<mxfile host="65bd71144e">
    <diagram id="4UVOASfWWbNsLgOJ9UXL" name="Page-1">
        <mxGraphModel dx="954" dy="228" grid="1" gridSize="10" guides="1" tooltips="1" connect="1" arrows="1" fold="1" page="1" pageScale="1" pageWidth="850" pageHeight="1100" math="0" shadow="0">
            <root>
                <mxCell id="0"/>
                <mxCell id="1" parent="0"/>
                <mxCell id="2" value="" style="shape=image;verticalLabelPosition=bottom;labelBackgroundColor=default;verticalAlign=top;aspect=fixed;imageAspect=0;image=data:image/png,iVBORw0KGgoAAAANSUhEUgAAAzEAAAKmCAYAAAB9ghDPAAAAAXNSR0IArs4c6QAAAARnQU1BAACxjwv8YQUAAAAJcEhZcwAADsMAAA7DAcdvqGQAAP+lSURBVHhe7L0HgB1Xef79blHvxZKL3OVe5N6NK8amGdMhhAAJhMQQQhKSD/iTOCQQWkIJhCQkEHrHuOPecMXYsmW5W7YsW5ItyVZv2775nd1nfTS6u3vvFml39fyks3PvzCnvOTN35n3mnDNTN3/+/LbooK2tLVpaWqKuri4aGho61lYH6VpbW6OxsTGlrxbKJB1UWyZpoLm5OdauXRsjR46MsWPHpnXVlK0yWVJmLfaSTm1EXWVLNXmQllBrmbBx48ZYv359TJkypWZ7CaShXOytNj317E0bAWUqbTWoHZuammLdunUxYsSIGDduXFpXTdmkx16oxV7SEfI2qoXethFp2J+bN2+OyZMnDwl7KROqLZM0QB03bNiQfqdjxoxJ66opW2X2xl7S5W1EHtWm13FUX19fcxtxPqLcCRMmpPTVov1CmlrSQdneautKPLWRQk+QBjZt2pT26ejRo1OAWsqEWo/d8j6thd7sU7XjqlWrUjrOR3yvNn1f9ylpaz3uSUNa0lTbRqon1xj2Kb/RUaNGpW3VlK0yoVZ7SUcgXS37BlRmb/bpSy+9lK7ffdmntaTL90ut9SStjvtqjyPVk33K9XT8+PHpmsq67somneitvaTDXu3TWujLPl2xYkU6F3H88r3a9NqntR67gA9Kmt7sU8qtpcx8n3KdmTRpUk1tzD6hTOLXai9pqSu/GdLKlmroyz5dvnx5+o12d42p7QgzxpghAidCY0x11OLUVKKv6U1l3K6Dm6F0nRmOx1K/ihj/2Azwo7YDabY3Ph8ND/JzyY50XtnWx29f27a36Xe032mt9aVdd6TjfqgxlI7f4XgcDfmemL78wHtz8JFGIf++IzDYfwDbYz/0Zf/3pj1VVl/KHSrkde0rw72thjP9te+G4wV8sMA+6s1+Urreph+K9MVnGSrUui+3Z3vsKMdeXs/e1DdPM5jaq99FzGCqXFdgY1/sHAp1FKqrbK7V9t6eXPJ02/IEtS33TX/Uizy2Zfv0F0PRZjP06ev5a6gdt9vyfAZ9bZ/e2Lut67g96Esd2ScKQ4ntuV+3ddlD4RjGxqFgZ630m4gZqo0zlA727dHGvS0zT7c97K4W2dYbG/tSr7zcWvPpS7nQ1/TQH3kMNNvaRpXXm3K3d3vWUn5ez/xzNdRSTn+Ql5fb21tqSb+t6ypqrWcet6vPA8W2KKMnemtDX9LVklbx+1JetShuX8urNW1vy8rpi719oTfpt0eZoi/t1Fe7BwLPidnG9OVuyva4E9PbMvtiq34sw/142p51rLXc3thZKc22rm9/2V0LvTn2++O3LbsHuo1lK8v+sNtsybZu17ys7fF7qZX+apvt8TuHWtMRvy91Vtpq69sf7dJXm3sLtm/L47G3ZfVXG23Lug5WthIxOgjyRq4lAEseyVbe1lXIqbS9UhCytxbyPPI8qwk5lbZXCopbphyvpwC9ravSC77rkXta6rP2ndB3HRfdUWl7T2nKED8PldZVCr2BdGrT3rStlrWWr3IVhPLqLmh/9CYIfc7XdUU5LWhdTwHyelaK010QlbZ1F8ppettm5Xx6CpDv00px8pBTaV1XVJtW67sKeZxaqFQ/ka/T+vJS6WtF6aul1vjdUe3xW6ZSnO5CTqXtPQVRaVt3oUylOOWQx8s/VxMgv9aUt3cVKlEpXncB8t9pLSg95Pl1RaX43aXJ43QXL6ecRgHUxuW2rnRO7CpuNaGcphZqjV8J2ZHbUE2o1A7VhFrK6C5US6W4taavtcy+0Nba93Ly32hXv9WGCy+88KKOz2ln8p4OIlf77GlQo7BUoV0V2BV5w1abljS8r4BnZfMOimp3Th6Pz7WG/Mdaja2Kq2Wtz+gGntHNvuF52bKjuyB6+i47WOY28VnxZG++vVryfLpDcRBSvFeEMtmnvUF5sewpKB77VJTjdBUUl7Rqm3KcrgJQT+qrdzJofXfk7VnrPsnLzu3tCcVhqTJrOfETV/s0f7dSNdQSN0dl19pGQmlrgfjUk7S8k6EWcnvz710FwWcdu6Qtx+sqAMveHrsct5yPqKfqqnxYKug7lPOAfF13IY9bKb/uQh5X5Nu7C5TFexlqPR8pPcjeaunPtPrcHcQhLvtU74LgmgrVlF8uM192heJXY1+ZctpqbBSkIT5+A8tafqfEJ73y0DrQ+nIob8vJ1+chz1Nl9vQ71bYc1ul3yrHLfhVsqxRAeQqtrwbikra355X8M+TbuwuUxTuOOG61T7W+Evk2PoO+d5UmR+Xm9awFpZdvpe+VguIDcfmNcp3Bb1DZ5TTdBVFpWzno2qLvIo/THloDzZLiZOuLoypaOvLoqZ4KlMmS+LwPhzbKf6eqs6ibN29esoxEK1eujHvvvTfWrFnTWaDIP5chrirLQURcGdFdOqE4SgvVpuMHWqtzlNtF2lpRXZWWvLqqq9azBB30+l4tHLi5w9sTyp+yVSb2VrKxEsQnHYH9wnfS9pRe5eZtlNe/J4jLD1QnI9neE7ltxFeoBtLRtsTPj8FqUBtRz1qPJe1TLjDV2ko87FO78LnatKC6YavSV4v2KW2kzz1BGcTld8pvtNp9qnrRPpDbW01aUDmKX206loRaygTiUU+gntWkEaTFXpVZDaQB7YtKaRWnjOqlNiItsK6rNMA24rJfOH6pZ7Xn7XKZslXL7iAO6Uifp60G4mKvbK81LecjlhIx3dVRqJ6yV+1bDaTBXtLUkg5Im5fJ555QfOyVMK2mXKUD0gLHQrWQlnqSlvKUV0/k9vK5ljKBtL0RMUB5Kr/cRqwvozqxTW2kulaKD0oDfCadjod8W06l9azjN1ppn3ZVNpBO9vJZeVcqowxxSEeoZZ8CcbGXsnPBVQ2k5WZDrQKcOL09NwBpIW/baqjUvtVAOZRZFjHVQJk6jmqxlzKq2adFTYq/xe+j/WshatrjtzS//NLUWmA/IkwPP/zwmD17dtq35EM9BN/r7rnnnrSGDUuXLo2rr746HUi8DZSlEnVleJlyIQON7NqWZW4vamnbfH8pTd5WPeWl7Yqbr+uJauN1hcqrNY/c1lrI7e2N7Sq3N2mVpjdpe4vK6y29tbW36fpqb2/oS5m11DMvY1u1qcpUut7aUKnsrtKXy8i/V0NeVqVyu6MvaaE3aXJ6k574pKslbR632nTleLWUl0Ma0vaWWsvN41ebVvH6aquoJY+yfb1JK/urTVtOVyu1lCXysmotty9poTdpBOlI31v6UnZv6Gt5taTfKm7RTO3fijbja1shbKIIKU7x+6orBFqKUwhDYqb/xYq6QsTUUCai6YUXXoiTTjopDjvssM4bg2UxlHpiMJCNiJgbbrgh9tlnnzj++OM770ANBbZqaDMkyfej9+nwwPtx+FLet3yvhPf/0GG4/153xPORf6em3+BYQpnwkT9t9MHUJ8FSSI/iXyQRg3QpPhXihi9JzlQF4oVepueeey6uuOKKOProo1NvjERMmbr58+envDl4lyxZEtddd10SMaecckqKYIwxxhhjjDFdg5zIhYaky9bioys0zA4Rc+mll8axxx6bRExXw+6TiJH6Xrx48RYihsygK9VujDHGGGPMcAB/lyC/WP6vvmu5rWEYVW4Tnwll+waaujqGjxW0FfqgrigzFVv8qWvXC/S6FDKksKeIVWxvj9tuYzWgO5gP8+yzzyYRc9xxx6XhZBIxqq/YoicGEXP99dcnEXPyySd3NlA5kTHGGGOMMcOBXATwWd/lBws+1zpJvS+Ubdk+9lC+QjtoGMxiDdakLcUH5sbU1/OBFcAHhZ7RwwcQMZdddlkcc8wxnT0xleq57faEMcYYY4wxgwwJA4kCegMIeuKZQi4gBhqJF+yRTWV7WK9RUwMHdqBYWiJaeQJna9QV5bYV5RdGpGUd9tQX9jQ0Fo3IE+I64qN2lL4zVE9P7e2eGGOMMcYYs0OR92zIz+Xx26tWrYrVq1enz+oZYGL5+PHjY8qUKel9fayrlL6vkJ8gTwQKrz3BnvXr16dHZqss7Jg4cWIKGm5FfGyrHpVHnnzO60F3S0eoa4yWOoaKRawrtMmK1RFrNkas38Qjqov6R9FGhXYZPSpi6qSIycVyVJEVltS3FgkYbsYTyqIQPcXfrlqr1p4YixhjjDHGGLPDIAEC+LgIhblz58bChQtj3bp16em8ikOgBwQhQ9h5551jzpw5acl6IE5ffGWVI5+bz08//XSy6cUXX0z2IGDU64JDT5C4OvDAA2P//fdPn0lPPOXVNdS/Pb92WVHY0Pm5SJsETBGjEB8bi3yWFaJl7pOt8eSzK5OgamnZVOgbREx7GqLXF/Y0jhwV0yePj8MPGBf7Tq+PKYW4GdGecXspmUll6yxijDHGGGOMyZBPq8/w0ksvpZe8P/XUU+kN8VOnTo299torLceMGZNECoIAAUHcZ555Jr2/hPS77LJLcrJnzZrVZzGjHpTm5uZ44okn4r777osVK1akbbvttlsqg/c36lHDxONlkMuWLYtFixall9Vj70EHHZQE1oQJE1La7m2hDRT092Vh0VKojaZCwLywLuK+x9fHYwtXxpoNTTFm7JjYY7epMXNqYxQfizLa02xuili5NuLZF1bH0mUvRnMhSHaZOj6OP2RazJ7RGOOKSCNT3KKkLuyyiDHGGGOMMSZDwgVwlh955JG466670rAx/F4EwK677pqEQleQB+Li8ccfj4cffjgNPUM0HHXUUUlk9MZvloAhX+wh3xkzZsQBBxyQelgQJN3lh8BChCF+sGvy5MlxwgknxJ577tml878ltAu9MIXt7SuiOepjQ/Ft/qK2uPW+52Lt+k2x7+7T49C9x8eeMxpiTKHZSMXsF6Vpz6W9b2dZIXweXbQ+5i9YEStWrYuD990tTjhofMwaXxcjaaNOk7asV60ipuHCCy+8qONz6k6jIRjzt8cee6R1Q03E6CAdSjYbY4wxxpj+RaIC5M9u3Lgx7rnnnrjjjjvS8KvTTjstjjzyyNT7UnaUiV/2K8eOHRu77757EgkM85o3b17qCZk2bVrqDVE51aBhX/Tu8LJ53o/CI4XPOuusJKx48aPyIq7qw1IBm6dPnx777bdf8t8ZEvfQQw+ltKynl0jpctprVdQrCYl2AdPW1hKtdQ2xqrU+7ni8JW6699kYMWZinHrMzDjtwDGxx6T6GFfXHCMKmUOvSmMhWRqLNI3F98bWphhRbBtZfJ80qj72nD4ydtt9UmxsGx/zn3oplr7YFpMmj4iJo+ujIdmDBZT6sl2ykzlAjz32WBKVM2fOTA8xKNsPw07EwFCz15htRaUTmTHGGDMc0fWOax8gOujtYK4JPR0IGIaFCQSB/N78WqnPWtJjgGBBaLBENNCTwjwZvkOevhLkQZznn38+vaOR4WGnn356HHHEEWnSvgQOQWJFeeZL1pMXcRAtDIfDFnqaEDKIs65EwMtCpq0orxBFdfWxPurj7sc2x93zlsReu86Ic44ZHwdOr4sxRXLevc8cGSb6txbfmNCf8i3WtdU3Fp9HFrkhmooci/zGj6iLPXdtjHHjJ8YjC16IF15qKzTGyBg7uqEQP/gj7aWLWkVMT31MQxZ2PsEY8zLlkwAnDJ3cjTHGmOGGrnH4hPSaIDgOOeSQOPHEE9NNe0QAvRUsK1G+bvKd+CxJg+g49dRTY8mSJXH33XenIWaUhbDoCmzCMacH59Zbb01D2hBUs2fP7nTYtezqGs02AhCXQFxEy5lnnpnEGT1OPCAAWyr5xOScci/+tLbVx6ZoiPsWtMRdDy6NvWbNiNOPGB17jIsY09YUjfVNUV/XWsRIr7MkVfFX/1iDxCkoTKqvb40RDa0xqm1jTGprjSP3jDjlqD3ihdUb4tb5m+KFDW3R3PGksr4wbObEaCdrh7Oz9CQHrTNmR0a/Y52wOeEJ/daNMcaY4QLXNhx4rnsMs7rmmmvSJPlTTjklPZpY176+XP/kc/KAgDvvvDOJo0MPPTTNraHcct7EZT3D2m6++eY0AgoRxNPFyvNxct+1WhuVP081u/rqq5Mv/OpXvzqJm7yu5EzgW3rKWF19PP5iXVz526dj3LiJcfbxk2K3cQ0xkj6XIr+XabepXcogX8jjZduUJyhGc7FyQ7Hy9sda4477F8VR+zM8bXRMGtGS3jmjFNpXVU/sf+CBB4o2at+JS5cuTV1a++677xYiJkWssvG2NdrB2MfTGni6BMPiULXsyJz8YNjWDNb2MzsW+k0jYOhmZsIg43v5XukEYYwxxgxV1BuCI49DT88H8000hIzrYV+vfSoDUYIPzVCoM844I5VRKX856k8++WRce+21cfDBBydnnSFk/WEP13nK4LrORH86Jyjj2GOP7XzHTYqX4jIkqzUNDVtXfP/NXSti0fMb4owTZsS+00fG6GLdiLrCb+At/CW686hfjk0sHvncFpvb6mJV8e2qO1+MF5atidecuHPsv9OoaGijs6EQe4VZrYXdiJqyiKEulfzounnz5nXaQVfYUBUxiBYeNcfBQ2VRs+wsTWiCvD7bmsHafmbHgt8AYp9xwRL648aNS09CQczot+Lj1RhjzFBHgoEnft1yyy3pSWIM/+LOPte5vgoGwXWVvHjcMc43PTG5aNA1lWsun7kGX3XVVclnfeUrX5muwf1pD9dy9cgglBhS9rrXvS7N2QHK4mrPJZ+XUbYV8R5YUhdX3f5U7Dd75zj1wDExdURrNCAumIDfYX+v4SUyhT1N9Q2xYG1dXHzdgjhg1i5x9mFjYswInnJWtEtDIadaaMeGWFQSMXq0dJk0nEyOC8PJhqKI4cVE2M4O22mnndLd5a4qbIxpP5FyEmXsLl3OnNA5uSFojDHGmKEO/iEBgYFDzJK5Igyrglxc9BWuqfKlESfLly+P8847L/mklEFgu4TFggULkrjg0cw46Rri3Z9+K2WRH8LqyiuvTE89ozwNzWJbK/qk0BebCu102Z0rYsHz6+O1r5gR+0wdFSOL9YWu6B9S0xQipq0u1tfXxZW3L4vly9bGeafuGrtPKcqK9occtIvOxqqHk/WXedsFDgjuJnOwsLN4igEHpxS24jg4OGwZ+H0wnIynfjA+mN8Pj3ikO1y/G2OMMWYow7WOaxtTDbjWcaMOZ7g/BQwoL/KlHMqTb5pfTyVUmAfDnBwe08y1uL/tAfKjbB4HzTtsGL7Gm/ah3abCHyjsQwksWRmxYMnq2Hev6TFzLAKmLRrSI5CJ1R76REfVmInLrdLDZ+8Uq9atj8cWN8eGpkLeYE+yacs26KlNhqyIYQdwcHCgIGRQuxwQZWgABweHyoHfEc/JR/wzZpjfkzHGGDPUwUcEpkpwbePxwwgG4PrXn+iaCjziGH8UocJIIa6z8lnbxUMkYYWgwh7Z2d/oGg889YxHOPPoZUg2FUKFnhhKX70xormlLXaa2hZjRxTioK3rJ6v1hmQFk14KkdJYfNllWsSkyePi+RWbY1NTUVY9TypD4rwsS9rathSAlRjSPTE4XRwgDB1DZRpjakMnXebD0IOpmwL5yc8YY4wZauj6xmR+rmd6f8tAQXkIEvxRpjXQE1NpdANigh4R7KFnBmTrQMG7H7GBOTgMqwO+txXlIldWrmmKxsaGGDeKXiqkBtKm/3yAVLsiu/R8gEKcjCmqvdO0abGhqS2aCiXVVsTYurSe22RIihgdDIydY2egZBlPCAN9IBgz3OA3w2+IEyoChpNufsI1xhhjhhJcwyQquKbRM6JhW9re3+T+J70sSSR02JEPF2MeKr4rNpUfqTxQUHcEE3Nh87rzCUmzeu3aGD2iLk2yx8y2ukJldNjL35dr1ksoKGVC709b1BdhzKgRsakQc5ub23t92mVMbb1SQ7onhoOTwB1kGIiD0pgdAU6uehgGNwfyk7ExxhgzFMFpZ9QOw6Z1sxsG+hqHX5qLGMFnemIQNYyAGIi5MJVAwFCWbGpXFdgTsakIazduKmxuiJENHS+s7E/IsLOKfKhLfxuKsppbmpKoSZt7UfCQFTHaETpA8u/GGGOMMWbHJPcFt4dv2FWZWpcLl21p25ZltYsH1uhTp1Uvm9fvaOBYS1tLtBYqpH2IGWtqb4ch3RMjejoA2M7dZfXc9CaojG15sBljjDHGmNqQSKD3hcBQaYZwbSsfjt4fkZeJXZrMj00stwX4wNhBW7Tf+EdM1EV9sRxVhLEjR8SmpsImfN4ifmsVk+qrg4KKQF6l7HioQNSlN8RgTAGSpDb1NGRFjHpfQGMcu4IDhadT8LKfhQsXpmWt4ZlnnklPdcgPuG31YzDGGGOMMdUjp535nkxoR1jgO0rg9De5T8iQMQ3hArap3ClTpqT1+ST7gUJlMi+IsjRsPK3vaAYmZEyZODY2bdwc6za1P7Gs3/3bjrJS3kXZzUVYv7EpRoxkrk6HD98RpxaGrIipROeO6YCdQEB4cEAxNlJxagnksWbNmvRCTZ42IUXb38jeroIx2wofb8YYY4Yq8t2ARysDflw+sqa/IV/ECRP3eSIab+Hnjf1C5TI/h6eX8bJp/FIY6GsuN+IRdAgo9ca0i4b2IWSTJo6OprbWWLuxaJ9WxEF9bzRFBcilI/BWzY6XWq5pinhh+epCPE2OsY0jorWFbbW3wbASMWUkQkA7j8fM8XIhnuPdUyAegRcX8cg8HZw83xsh059wAPcU+PEN5A9wsLEj1tkYY4wxfUe9ILzUGTGB78YN7YHyKZQvo3d4XcG+++6bBIt8UYLKxSYes4w9Wt/fNik/7HrsscfSgwQmT56c1kFyjwvFwhtaxo8r/ORRI2L5qvrYXAiMuo53uvQrhTn15FsUvOzFiJWr1seMKa0xmvfSMKgsmdt1mZXaZ1iLmDI0AAd1fiBVA3HpFkTIIIToAkTM9GePDDZhWzWhVvuHKnmb8NkYY4wxplrwlaZNm5bExLJlyzrf29LfIBTwEymPcuhpQTCUfRcJnd122y2953Dp0qVbzJ/pT+RDMZ0CwUSZ6hlqt6suGtKs+oip4yN22WlSPPPcS7Fsw+bYVMiDtvbZMWl7beCf5j5qx3e6eIriNhTfHlm4MiaMGxd7zGiIUY2Im2JD+/+aqKdB1ahdMRgdSOyVXd3Zrm0s81ALKoexhLzZnB8DIqY8R6ZWsIP0HMDPP/98PPLII/H444+ngGrOw5NPPhnPPvtsKlPjOoczedswp6m/e75M9wz348sYY8zwhusYvgQT6XljPdMBGFbF3JCe/N5aIB/lxbQD3tS/6667pp6PvAzs0bV19913T+IK/45hbvm2/gbfkvoywkjvymkvi16RQngV28YXIuPAWVPTe1sWLG6Ojc08PYy6FW1Yk5ChvqpzxzK1QRGKMvHkFq+JeOLZF2LWrpNjl3EjoyFl39HzU8TFMuzL25UldcAXzENVIma4oIOk1pDDs7932mmnJGQQFH2ZI6MdhBq/77774oorrojf/OY3cdlll8Xll1++RWDbpZdemsLvfve71FWpPIYbahfuZlx77bWpTTgxsG5HOVaNMcYY03fwGQ488MA0N+bBBx+Ml156KTny/QX5kx83XfHluOHNUDJETBl8SvwYekQOOuig5ENy45q5Mf3p3yivBQsWxMMPPxx77713ugm/lV9bfKQzprEI++0SsdtOE+LBBStj4drNsSEaorUOUYHK6F7IYHV72PIfc2Da0xb+W119FHItbpv3YmxqLdpoVkOMH9le9ss2IZq2hHogPPG1qVce6un+Yr5If+7Q4QiNhVpmTCU9A/wYOCCYmMXwMsXpDaRDlNC7Q350+3FAUw5LxkyyDUeep6vdfvvt8dvf/rZHIcN6hZ7I41WbJkdpak2XQzvkByptPW/evPQjpI37mr8xxhhjdhzk29IDcfjhhye/6d577+2c5E/oi18hv4R87r///uSjHXLIIbHLLoUiKHi516MdiQjCPvvskwLpmEfTH/YAPhT5U9e77rorxo0bF0cccUTn/JytYJ5KoTXGFYujD5kZ9S0b4t55a2P5+pbY0FJf5FfYk2zq2sfVViRPIenSunY5Uqxtq4umIp8NxfKBBa2x4Omlcci+M2PPKaOjAXNe1i9E3QpsRqdIr+ShvmKFTEJtQ0MxH4YDAGFBDwzDvzRBTE+XgN4efBzoBITRK17xinjTm94UF1xwQWc4//zz45RTTkndj/TcPProo0ldQ7lM/RCwX3Uox6lkJ+uUTt+17OmHpbIIxOsubldQf9qashg+xx0Nxq9qnKkxxhhjTLXIL4H99tsvjjzyyHjiiSfinnvuSTeMK/kr1fobSovvwpAtbjAzTIweFkbtlAWMYD1Cg96YE044IfXYcGOaKQMgH65W5KfhM+Gr3nDDDclfPf7445NvCZXsKdYWNrVFY1Ht2dMjjj1493h28fK4/cFN8VLh3jbVjyikCOmKCG30rHTdPoiY9n8FrUXcIjQXymRzfV08uDjixnueit1mzojj9hsVk0cV/jVPKyO/IkHRmumfyPcdS+qldQrufukBNRyTtHbeeec0zhGFrcfUKY5CLegHAErP88x5gho/tgMOOCCFgw8+OKno008/PU488cQkqOiZYLKWJqmRTy40WCKuCKyXbdoO+WdQHvy4hD5X+jESX4F4dKXqDkA5bndQJmn5ATN87Kc//WkaPscdDfIp22mMMcYYUw25P3L00UfHYYcdlno/6KXIR7TkvkYlv0NxCPK3CIwYQTDwSOWTTz45Jk6c2KMfhF9JHoiLs846K/mT1113XbqBS57yffCpVFYZlQ/EUZk83vnKK69MeSFgGNpG/l3ak1bXp2FlI4rsjtxvZBx9yK6x4OlFccsDa+K5dW2xsdjOc8xSZIRMW6FuUmhKob6tudhahGJZVwS0SGvbyNhcNzrWNdTH/Ysirr99QUydMC5OOWJy7DS2ISSN2mnvw0kJ+dtFfcs0XHjhhRd1fE7dawzdoVFxpEGNMhjBQecAxPHX2MNKtjJEiXiMU6Q3RdRSLzWeegvomuQgRMmjuPuSL4oZh52nVHDw81hnnmohAUEcPlMedWBYGfNF2E+IKpWNEGA9PTT8OJk7w6Qx1nGAY7NedARa0o70LJFu7ty56RjgWKCetB1Knl4n0rJObcE2hrnRK8QdCHpOmDSHsKJNKpXVFdhOPrfddlvnI6ypL0vuVtDlylwkIK+e8jO1w37jeOa3xG8K3M7GGGOGOlzL8F3wK7gRjU+E+NCTxBhyhX+nuED8POTXQ+IytwZfi4Avxo1mvZOGuD1dP8kDO/D7GGWzaNGi5IexHpvwobAXyrbInrwMfDJ8SW4GM9eGUT0MbcOH6skW1AQx6ttao5A7scvMkdFSPybmPfpsPPdiQzSOGxmjxtSnp5nVtbULnna9wYeO0Fa0cbGhra6oVxE2FM35/KaI3z64MW6/95nYadrEOPv4abH3lMYYXWyra3+mcvFB4qS+s17cqMcn5IlqPI6adtD+ybGIqZI8Lo3MgYfjzdAuxEFv8tWBmIsYeniYgKVnebPj8vwQEzz5gh8PO5a4/PjIg+5MDl79MDkI9DQO0mAr+esRe5RNfvPnz48bb7wxpUMgYQfxn3vuuWQXwoIfF3cZ+LGRjrbnx3b99dcn4YMIQtCwJC35cMCVe6y6gjyBuujdPNSdOUIWMdsGixhjjDHDFa5n+G74JPgYXOvwV5hYj7/Eeq598rvKAbixiv+F/yPfCKHAcH98Z3wZfB/F7wniYRM+Hw47fjgPH2CkDT4mN4TxgbqzCT8OP48hcty8ph6nnnpqGsmjG895/C5hM/GK+IiVGTNGxvgJ02PRkpfi8adWxUtrC2FT1xgNo4uIDfWFyGkovtdHc0doKgI9NhuLjJaujZj3dFvcOe/FeGrRC7HfnjPj1KMmxayJ9TGqUD/pkcqpwPYyOwovbOVrZRFTyX6LmBrI24Il5Q+EiMFh54DWD0GBH4+UOgc3yn///fdPBymigR8U4gVFz5hMthGH7XqSGrZKIJAH+/vWW29NAoQy6XbkoKFsekTUi4O4wC6ODdqTH/3NN9+c4rCOxxcSyANHGDFDlyZD37gzIZFSqW1Yhz2kRZRRDscf5dIdKhFTyx0OUzsWMcYYY4YzupvPkh4Zbs7iC+HTMLkeP0w3ZfGJcaYRLfhYzKUhHg8GYIm/duyxx6bh/vhIyreW6yZxSYOPRB74Z/TCYANlIGYoG18LW7AJ34rvCDBs4ka0HlaA38eQNubmyFdSGdVCfFy2hiLsPCVi5rQJhT/WFs8sWhJPLnoplqysj8UrG2PJqvpYsb4ulq+LWLo6YuGKiMeea4mHFm6OBx5dFk8sWBTjxjTGsQfPiuMPGh07ja2LEUX+DdjUMWwsPVSg/UP629bWPizOIiajv0RMmf4WMRys1AMRgvDgQMWpZIkA4WDlQOXgpTyECr0W/ADZ2Qzn4kfFAXzcccelZ4KzHxES5MGPEltZjzBAoNx5552pXHo5+DGSDsHAgUO78eNFTFAeAoO8KB/BxI8dkUQaJqchYkhH3iqPtuDHRLnk09MPiTi0CYKN/BExpLWIGXgsYowxxgx35EPga+DT4KNoiBk3fPGNEA74w/ggBHo6WI8viZ/F3Bp8Jnwe/DXl2dtrptLR84Kwwrdj5AujUfD/8IfwE7EFu+QzYi/+EuKF+S+HHnpoSge5v1WbXfSURJroP6IQF1MK93qXmaNj5s7TCtUwNpa/uDZeeHFNLH5+ZTy9eGU89dzqWLhoZTz3/Jq0bd36TTFh3Og4/KDd4piDJ8UBM+pjUmNRt9YieTKJ+S8gm162jX2CrdWKmLpCwRVp2hURO42JRdyNxxFWZrVVfuDBLgIHEzsW0YXjD2VbiUdXG/Fwzpicr/r2tl5KT/moZVQzjVxrvvxgCOysm266KQ3LQoljJ0KAA5O8yBehgpOJcOLARMAw/pIfICLooYceSiKGH6Im/5M3O54fAU++oKuRZ6Wfc845yWbUO/sbTjrppPSjVNcjZfADYbIaPxp+5GeeeWa6S0BZpEPk8KMh8MOjPNIh7O644440TpR2IR0CR/b0BOWTNxPvrr766vSDZOIbtsu2wXZMDnVoVwQrJ0s9Ppx1bmdjjDHDDV3f8usc/hX+FD4jN/UJrGM7N3IRL/hmhPKcX33uK9hDwM/BZ8Ie3WDEl8O/Yjs24MfhL8pnlP8GpO897Xmk5x0XH3nCckuRXWvxdWNLxPqmYrk5Ys26iNVrNsfm5tZorKuPCWNHxITxdTF6VMSYIvAmfoQQ74FhUkGa+lLkw6Kr1sLvxXYe9MR7ERGKPBobH7NSnfpSS9PPcPDxg6GnA5XN0DHUPzsTscQPigOVncp4R6ltfkw4+DyKGWHDsCyJI3V9khcCggOEwI+CHwTiiB8AYoN8gAMFW/jB0pNDOr4rHT0s/MixBYeXnhKQQGE9YpEfmHqSoL9+5MYYY4wxvSUXIICPg6OM30JPCDfzGSbGSBN8Lm4c49fgX+Hj4Ccp9KdvQ15y1lkyKgJfjB4JnlSrETM49oyOwXfDZgSM0ih97ynqgxiqay0y5OZza4wsFMjottaYWLh5O4+O2LNwPw/eJeL4/UfGKQePjpMOGhlz9qyL2dMiZo2PmF64kxOK+GPqmmNEHTfkyatdwPQnFjGDCA5eDlaeKPGWt7wlvSuG5Zvf/Oa0fPvb354+00tGzxMHKj880vGjQpDcfffd6RHF3//+99Py17/+ddxyyy2pJ4p4iBuQwmeJCOHHK4inHxI/ILZRDoE0iBjK4o4A82Io63vf+15897vfTYHvzLNhO/EIpDXGGGOMGWzg84jcX+nqcx5/W6Cyy76Uvstv6x+KPFNezFxBJhCK7x3zVyiRrcgmHsk8qggsmUNTx5yW9NrLAsRUHTe3lUf/MzC5mprRAYhoQF3zHHOUNmHOnDnpO3cC6BlBdKhHBRAJPM3il7/8ZRo2Ru+LxknSU8ITKlDrIIXOgS9Bo/Gclch/OKQlT4Z6AWkQNfT4MLSOgHCh94X4DGlDbFEn1c8YY4wxZrCCr4IPk/s/hO3pw8gmkD0DZxPipSgnSRWWon0NXmTa0rHh5e2FT9n5uGRBzCJ0rO74lr6WY+ZUqpfqn2MRM0jId1guNPKA6CAQl6FbOqgZrsX8FuYzIByOOuqoNLTsPe95T/zhH/5hvOY1r0nCCAGiclgqPaKEpbaBPpMGkaTvCB56fSifsl71qlfF+9///vijP/qjeN/73pfCH//xH6dA+W9729vS4weNMcYYY4YC8pHysL3ZtjaV824XEMgbtqRQ/GkPxTaGi20lYDrQ6i42V0ul+g4rESNnX5QdcyjHGWzkByZihsB3lggHiRdQXHpAmISPuODJFGeffXYaz0kPCOmYZ0MPCQJIdScf4pOe+S0EbVMbsY4eHUSOhBVDy5jgxnfEDSKHdXogAYGeIgQVE/uZj8PwM2OMMcYYM/jBy8xD+duWsA4fMQ8ZFZKWvlZEvqjIP4t6HFQcUQ0tGsrIqRf5Z1GOM1iRjbK3ks3awRInxEFE6AkVCBX2Ly+t5GEBepqGBAxPoELoMPyLR/YxLEyiCeHDOp6bTnzyYxvxGZqGaGGSP0+0QyBJXBFPj27miWs8yQwxJHuNMcYYY8xwAz91YPxr/FxNZ8iX9TiehOHIcHeatd8QJ4gSRAXP1eZlmPTMPPbYY6k3BEFBzwjwhDO2EZcncPDIZEQGYoMHADC3hqFppOORzPTE0I4cLCwRK7xThvfDMB+G8ohLWYge0t9+++3pM09P46lpPFXDGGOMMcaY3iK/V8t6nFKChguZbUcusvich2phR+pN96TjkczXXHNNXHLJJXHVVVell1LSw6KnmSFmEDU8tpl1zJ8hLb0xDzzwQEpzxRVXpAcE8N4Q5r10HiwdxwjpeKcMPTKIHMTOlVdemdLy/hgEESqZhxDwUAFEFirax5gxxhhjjOkJfM/c/5ReyUPyKmtxmocSqvxgh53DMC2e9U3Q4457sl87mDS8cJLnhzMfBUGCuGBJb8urX/3qOPfcc9MbYImvxx5zAPD2fl5+SVq9dwYQKryFn54U7GOIGvE5VsiDvEinSfvMy9H7Y7CH/JibQ/mkqVbA6FikDNqB4XG0jZ6Bbowxxhhjhi+VdAl+YZlh/cZ+2Y8zP1Bv7GeuCRPd6ZWoNV/iKw3Duwj0WmBnLhiqgbikR7wwR4V0OP/0pGAf2+mRISAOeB8NZTH3BYjP8DC+E5e0rPv973+f5rbQW8OTyBAlmj/FdtqWHhuWrCdPRAzlIqhUB0I1KD5L7CFfDZdjqe2mf6Fd/cZ+Y4wxxmwv0jyX+vqKb+yv5EsO6/E9eWVxyPozCDn0vQH72FksES44jggA9VqUd1ZPIDyY48IQrv333z923333lB+QJ8KFHhSEHIKAuTFXX311CnxGeODAIggRPogh1pOW79gIshtYpzJ5j83s2bOToEPAgOpXLYrLUg8foA7Yq/XGGGOMMWbHoZL/N6xFjMhFB9AQvQ05WldJ3NSC8lUe5XKqoZyHApSFhNYzpGzRokUxd+7c9Kb/J598MvUuEVhPL8wTTzyRxBGCCMGSizbyVL6sVyD/fFtfkK3GGGOMMcaIYT+cDJinQd2Au/qqV29RekQAw52YS6LhZH1pr77aVS2UQ8B2BMwdd9yRhm7RE0Nd2EabrVq1KsWnl+UVr3hF6slhm3phumJb1MH0L+xXDyczxhhjzPaiu+FklXzPHaInBkeMieH0EuCY9zUwr4Qljj6NqknnPTn3PbGtHEbKIdCzcthhh8WJJ56Y5rowfOypp55KAYeWp54dc8wxcdJJJ6XPSmuMMcYYY8z2ZFj3xAiUHT0NStfX+uRtQn5Mwteko6EEtgM9StyB56EAtBUgzGhX7spTNzO84VhwT4wxxhhjthfuiakAIoNeBwIT1HnbfF8C+TBPhMDnoShgBI4qgmWXXXaJgw8+OPXMcMDwmXXUTWLHGGOMMcaYwcAOIWJAjjjL/g55vkMJhBfKliW28xnBx3eJsnwivxm+DFURbowxxpgdk61ETCVHXA76YAkgx1vfe0KOeX8HUf4+lKhkO+2ar6+lrc3QQ/t2qB7DxhhjjBke4IuUfc5KPmjFnpjccR3MTs1gcLwoezC3UbXk9WCpsYdan283wx9+WwrGGGOMMduKSr5HJR90i4n9vNiQt7Mzsf+QQw6J5ubmQeu4YjNvqF+5cmXstNNOaSIy2NE2pnb4PTGxf9myZWneGI8iZ4KdxasxxhhjtgVMYWCeNg8Zuv7669McbQIvPK/kj9Tdd999nXKHJ33xgkPewI4To/kQg9WJwfHCNt7RoqcpgZ0uY2qD3w43BJ5//vnOp4NovTHGGGPMQCOfAx/k3nvvjX322SfmzJnTOV+7TN3cuXOLNO3DRuiJuf3221MiXnCIiBnsgoCK8pSwUaNGpTpYwBhTO/x2eNQ27woaCr97Y4wxxgwv1BPDTVV6YhgVlosYfJWcNJyMD2zQe2L222+/9ALEFMHOjDHDHt0A0AnCv3tjjDHGbEvy98Rccsklcdxxx9X2nhicFw0jY4lTo2VvA1T63B9Bthljeo9EC0uJGf+ujDHGGLM9QLT0dEN1KxGTOy5yaJRRb0OeV/65P0I1lTTGVId+//p9GWOMMcZsS+R/9HQztVsRA74ba8yOg4WLMcYYY7Y31eiPJGIsVIwxxhhjjDFDha1nyRhjjDHGGGPMIKZHEePhJcYYY4wxxpjBhHtijDHGGGOMMUMKixhjjDHGGGPMkMIixhhjjDHGGDOk6FbE+KllxhhjjDHGmMFGvYWKMcYYY4wxZiiRRIyCMcYYY4wxxgwm0Cmtra1bhHr+tLS0WMQYY4wxxhhjBhVl8aJQ39jYGIT6es/xN8YYY4wxxgwe0CgNDQ1Jr+TBysUYY4wxxhgzaKk0YswixmxTPGzRGGOMMcbUQl1dXcenl2m48MILL+r4HGvWrIkFCxbE1KlTY4899kgOp4eZmf6C48kixhhjjDFm+FFJaNQCPiJ5oEceffTR2G233WLmzJlpKBmU86+bP39+kabdsVy8eHFce+21MXv27Dj55JPTpBklNKYv6Bjr6wFujDHGGGMGH3319XjQGJ0nzz33XFxyySVx7LHHxuGHHx4jR46s2KliEWMGHI4vDmgOzqampmhubu480LUUFjnGGGOMMUMHfLcRI0akgNiQ31crFjFm0KCDmINy3bp1sXLlyli7dm0SMRyMbCuLGKi0zhhjjDHGDB7kx0nEjBkzJiZPnhzjxo1L+kHbqsUixmxXygfspk2bYsWKFbFq1ap0LHFgjxo1Kn2u5cA2xhhjjDGDD/TC+vXr0w1rhMiUKVPS/HrEh0WMGXJwTG3evDmWLVuWel8mTZqUDmoEjMWLMcYYY8zwAb9v48aN6cb16tWrY+LEiWlSPj001VKriNl6TYadTVMrHMQEDkQNH5s2bVrMmDFjCwGjeJWCMcYYY4wZGuC74d8xnIwnik2fPj35gAT8wd74duTXkw7pVsQY01s2bNiQlDjDx+hSREHnB7EOzkrBGGOMMcYMDeS7Scxw8xr/76WXXkqjcrStWqqNaxFj+h0OPubCAN2JEjAWKMYYY4wxwxP8PPw9pqJwA5sn0uIP1iJgBGl6SmcRY/oNHWws9RjlxsbGtI4D2yLGGGOMMWb4Il+QKQQgf1Dre0ul9PVkrkAEJvMb0xekvJmIRTDGGGOMMcMf3bBmQv/o0aPT9AK0RaWJ+d2BJmE+DQG/slJIOVJgrZkb0xUcrAR6YTiu3ANjjDHGGLPjIG1BJ4k6SKrtjcnjMTRNgTzzUI+jSdBGi5naqHaH7Ii4bYwxxhhjdkxywVGLT0h8kCaRiJFmUUhbyViZby/HUzbQbcRzpglaPxjBTl7sQ3fWYKZS++Xrumtftg10+6uMvgZUPktjjDHGGDM4kJ8mMVMteVzlUaZzOJmopYD+AsPkhCJeli5dmsbQVTJ4MIBdiBjeQs/LHPnMusFmby32lO3nc/mAG4j6qYy+BvcgGmOMMcYMTnrjQ+LfifyzGDSeH8bRs4GA4QWJquxAOM79BeP8XnzxxVi+fHkSMtRhMNiLDQTskU3YikCkjRGIfObZ3RJgeVxBGt71wv6oBfKpBmx59tln46mnnupT4M2usjG33xhjjDHGDE+2u4iRA41D/cILL8SaNWsGvSOaO/s4+oiYFStWDBohIxsQKvQWIRSefPLJFOT48/mJJ56IhQsXJvsRNrIf+EydEAiIjVomZVUbh33Oi5AQgrzVlWWtgfT0hi1evDgJGdlvjDHGGGOGJvhzPfl0203E4MTK2V23bl0888wz6a4/VOMEby9yu7VkXgwCjLA9hYxsQ7wsWbKkU7AgRhApiIY8EI82R6gsWLAg7QOEAaIFYUN9eFQy8ahXT5QPtp4OPh2gmrDF45h5JJ8ezdxT4BnkTOwCbKbO+TG0PfaBMcYYY4wZeLZrTwxOJnfP8+FAQ22CtmylR4YeAYbDbQ8hQ1kIE8qnl+X5559P4kM2VLJFIoNtCDEEDEKGQHrqBAiZgXqAgezizf6zZs2KvfbaK/bYY4/Yc889twpsywPxp0+fvoWQof4IGQmkSvU2xhhjjDFDm+0iYuRY0gPD3fOhPAwod5Jx+un1oAeDz9vCiSZ/hB89LbSlHoqgie5sy4eCVQpAHOxlWR4+hiirpiemt1AuL0RCyBAmTZrU+TkPEyZM2CJMnjw5xo0bl3plSA8cU7QBw+iwvT+OK7WRqYzbp3uGevt4/xpjjBmMJE+3q4vUQF28cJARLtztzwXMcLhYUjd6ZKjbtuiRIW8cd8pjXgkwNAs72Eb5al99LofcPr7nT/riO/WgV2egoHzKYEmQ7ZUC2xRIw3LMmDExY8aMGD9+fLIXEUZ70CNDmr6iNqo1r0rx8zr0h22DAdrHdM1QbR8dn/nxP1yOWWOMMdue/r6GbNOeGIzHedOwHybx6wIJlS72unDWEmqlUh6VghzP3AEt28x6nGtNOFePzEBAWQwhY/6KBAzktlVTtuIRyvVjyVAy9c4oTn9Cngin3I6uAvEU+C5bxo4dGzNnzkxLwF56xDRMEWqxW/VmHy5atCi1L+sUeoI42Fcmr0el7YMJ6qDji3bgs9YDwpb1DEPU0MNq22e4ovpzbuO44RjUUMyh1C7Yqt8XvyHO1/QyUxfV0RhjjNmebDMRo4ue7pLTe9CVEydHj1Ctc5uHWqmUR6Ug55mejrITXUZDy3DyEDXQnxd+8sKhoAzNARG5g0y8WspVXfP0iJeBnhdTi40CG9kX2IaThbNFrwzDywAnm+MsF2XVoLg4ovfdd19cffXV8dBDD6X6523THeTBMUAol813BIEcwpzy9+0BNhBoN55ed+2118bcuXNTO7OOQL14aMQ111wTv//97zufKlht+ww0vW3HvrS/0rJfmZd2/fXXxz333NMpgLcXfWkLjtPHH388HQN33nlnujlT6+/JGGOMGQi2iYjRBU8CJr87DrnTo884STgDejpWtUGOVrVoqFStgXKwsTuHDfu5S02d5QD39eJPeuXB3BccJDkVWuZlUCaBbXm7KG53sF3paSfdiR8sYBdzYuiBYSiZ6oiIg7xNaoH4BO0/BBLLnsSoyuP4uP/+++PHP/5x3HbbbZ1CivTsr9/+9rfxy1/+Mgkk2lTpgDp1h2wbSFQGv1cew41DTlvwAAWVzbFPu/D4burFnKRKtg+0rV3RUzt2RW/T5bAvEXX87nH6abuBoLu2zbepTrXsC+ISsJ0bMRwD9CxxTGi7McYYMxBUe92ql5M3UBcl5Ytjh9OTPwJXlI3FJiapP/LII8mJqibovSc8Was87KUSbCPgbDz22GPx6KOPdi67C8ThzuTTTz+dJo8rL8gdIOWPLfSWEKhXfzhJQL44xCyVJ8u8LRVYh7M/bdq02GWXXVJgYnxPtig/ArbL4R5M4FhTF55SRr122223mDJlStqmukNPde0K9WrpMdDkSVvguBMqtQftxHtrOFZYqt0I/A54Gh/HEse4emrykFNep/3RFcTFPoVqURlaUga/DYaS0bPFscNSZeOcYz/HFW3OttxO4LuCvufLMvn2SnG6SgflbT197wrFqyZ+HkftzTrto0pBEE+B46i8r1if50kQ+l5eD+V4WhLy8suU85G9PPKc+WYHHnhgeiKghmvm5Hbmn40xxpi+kF9L+JxfZwhJxHTljPUV5cndOxy3soDRxa5cNt/ZhoOHA1ht4K4hdakV2ZHb01VQe1XbZjgCxOVuJoH0UE3aSpAfabm7LxFVCTkhDK/Cydx7773TY4pxSHA8tZ1QDdoX1cbflmjfYBuiQ49c7g9blXdehgQNQXHypeJgR26L7MMxZD3fOR5YR1D6HKUTxNcxlJPbp/wIOZXyFypD5RGX4wuhPHXq1Nh55523sANxhohBQCIaK9kvW/K8ZSNL6pGnyeMpjijnDZXWAet7SgtdrQfZUi3Uk33eVd20rgzxSad9lcdjndqvbA/f87YFlaf02lYpfZnydqVBnB5yyCFxwQUXxCtf+crU66ljn/IIuZ35Z203xhhjeoOuISy5tsn/Vmj40Ic+dJEuWAzz4qWHOC28q0MXqN6gghEwODvc1aWMnDx/Pmu7jAXZVk0AnEOcqmodWe6M54/jld3doTi5zT1BYzP8CzGAsJATUG36HMQEziVCpivIV3fJ8/ZgH7M/WFK+6iI7WFayiXjkwZ1Y5dUV1BHbqCNOrvZxOV+G5KntsZUhYV3F7Q7ZrDS0s4438iXUkq/ahGOXHjd60XbaaafYddddk/PO/JD58+endiQuQ6moK8cs9WYyN/NFWLKNR0YrP3oj2cb+4zigfQBhQ7vRw0G7AHWgN5JhZ6Rhv5fbn/pgA8cXQ97o/WEoG3N4sFX2lX/HxNewSD6znaC6Yws9jvRw7rPPPnHQQQclG4H2pSeJXk/aBMeW+rCeF5DSFkBeHGe0g/Zz3ptDuaxH3JOWtqOtsUlCT/awjeFZlANsVz60O+tpW9KSF3lSvzwfAuURjyXpsVdQZ3qeCGyTraRTWYJ12M+NGfYN7a6hdeSpoXbse24gcGxjD3ZRNjZx04X2ZX9hs3oQsUP5Pvjgg+kYIC+OH2ySXQTaRXnmNgN5Uhe1Kdt0HGC/2ox8sYeQ11Ntht3sR+wiTn6cqO053pj/88ADD6R5VLQDvzsdM3m+xhhjhjec87lOcG0CfB35Bt1dD0jDdvwf/Ax8DG6i6tpTDg0XXnjhRSRUor6IGOLr4gZcYHMBI+MUh88EfRZdfe4OxaOitYoYLsKyKbe/O8i3WtuAuOSNM8GFX45v3hbVQHxsxmHFqa20f8gLRwrnEieqXCecGZxhHAxskG3YRYDcHj4rYDeB+HmcHJwd9j15bwsRU4b2kVOnfJVfNfmqvXDu+D3gCHI8IQruuOOO5LAyPwAnHkeTuvKbIW8Ezo033pgcd2AbeeBo4oQzCZ5ttA2OKj9SnEyGw+H8XXbZZSk+cRAvOIYIKcpjyXr2Le/Ioa3YX/y+KPemm25KS/LBNqVBGNEGBKB+OK833HBD3HLLLal87OeYUN0p595770376PDDD4/dd989rQd+LzjX7GeGGdE+TGInDWKPfU4+bMdBZ1L4ww8/nNJyQpLdHMPMGSKwvzhXYA/tTHvwbiDywSGeN29e/OY3v0n58J2Tmn4/2MM8I9LSptSNz+SHPfoNcFzQntiKMGAd9pAP0FvMvqPe/Eb4/ZSPR9IA7UIbkBf7CTFCQPixn6kPtlA2PaC0PfuDByGwzxEwpL/99ttTOvYpbcx6BDL1wQ7yY1/qWGPfYgNtwzHJOj14AVupr9qF4bXXXXdd3H333WkfMyRQ+4Zy2DfYz7FJD622UVfVkzYjb+ymfdgvOo7YRh1oM9oA22hzHXfkSzuSL7Yqb2OMMcMbXUf6KmK4Ea8RAFzj2JaH6hVKD+iiR6aA84YzwR28vOCc8vccxSffWkJvUFm1hN5AOpw3nEocP5yxWvJSHXFAEDBd1Zc8OWAIuSghIEBwWDkoEKqMc8eRw/lhPU6X7tzLtrxcHNMdDeqOY4p4oW3olTj44IOTU8jxjWPNNuIhLpibg3jiO8KA7ziJmpOEE8g2luwD1iEocQr1u8Fp5zjBAZ4zZ066m8/+oJy77rorxeE7xxAOI04kzjz78uijj45jjjkmpWWfYR93yDkpqD6sR0ToLj7fWQ/kq2OU3iLZCxwXpGMbjjSON3XGDtbTThxz5IETj+NLGxFIQ+8AsJ34OOfkzYmKY5C0xKN+HGvlfKgDtmloo/KhpwLbNFyS+ii+bKee2IcNCFTaS/YQh3IoGxvUW5qjfKgr4gJxgF3EmzVrVsyePTsdH4gSxIV+owTspD6IH+xnf3CCpiyEAW1IHPbl7373u1Qf2p2hXOxLjjmOJQQe+5/8yZfyEEAcN+RL/uSDjdSHOqtM2ok0tBP1Zh3twLGH2JCtoCWQnnYkrn7/tC9tgC3YhP2HHXZYHH/88clmRAvHHWIMUYM9xhhjTDXoGsT1rDv6TcRQEIGCuaDiLOBElCkbll8sK6F8qw2DGepKwBGQI8jFvRa7SY8DQTqckUrgQODw4FxVahfyYB3pcV7oucKRxiHFqSbgVOJ040jh0BGPNNguYdTTvhsOqP1oS4ZVnX322fGqV70qzjnnnDjuuONSGyE+tC/333//OPPMM5PooJ3oMTjjjDPi5JNPTuLipJNOSm1N29POzDM44YQTkiAAHEraFUec+Oeee24qj3JxDtkPOI2IGRxRnEscXxxy8qNsbFOgp4R46lEC8sf5xQ5ELIIWR1jgfOP8sq+pHw4qkA5HlrvtOLZsw05sR4BQDqKI9qB+2KQyQY4028ibMjhXkAfiAzvIk3xIRxnEpReB84n2A3lQDtDm5INd2EGdaHNsJm/iUhZpOR/h2Ov4Zzvtx2fWUS62c8yTnrIVF/hMwDZ6IOh5QoBwHLCfXv3qV6c233fffdN+VDogHfDbxB5soc1OOeWUdAywb2l39eSwjWOFbWeddVZaUg520Y7Un/jcdKDNyJ88JWKoB+3CMUiZEm0Sf7QD7cp+57dOPtSXUIZ15JFvw0bagPZlv2GrjlOW2Mp5hWOVoWbYgo06dxhjjDF9pd9EDHCBwjHQEDLQhYugC3nuFOQX+r5AXsp/sEOdESI4QzgjODVQjf20I2lFOQ1543DgRFVCbZ63l5Y4iKTDicMx4q4+jjF39FnK2VUeOwKqJ04ld8QRKTiS9FohAFiPI43zSEBkaKge0KaIQN0xZ8k69iNL4rIOaFfyYj2CiR4Y9gPp2RdHHnlk2heUw516HEmcUZxpjgnKRhCo94Q0eqoUIkFCFGeUfE899dR4/etfn+6eaz4GkCfOJ3Epj7jAdxxlCQjW09uHA0x7YAPOKmKAY5pzAOcD6kRaHF7ype441XznM7bSNrQreUqYUBafyYP4xAWceOpMe9EW2EvZ5EHd2SeICxx5HHfSA3GxjfpjD048v0HyYT32kA/1wSb9Loibo3TsY44H9gu/DdLxHfFJe2Bvnlb50TbU88QTT0yBNMQHjgW2sf8J5Emd2D/8BvkOOlbY36yjTrQDgXJ1XFBntlE/9ofONbQt9aU8bKcuZXsF6ymLQLnkwfHHcUCbc4zRU4SIJD9sRZRx3BGfuLSXMcYY05/0i4jhQqWA48AFM4cLYx5EpQvmjgDtBDgDOBMsta4r8u1q667aj/UImUooDcuuPgucaTmGOKs4hjhMrIc87nAGJ5B6IwT4jFNH++P40T7APiRUapN837Gd9iOfMmwjLm2NeMBBBcXFBoQJZeLU45xLuJAnziIvJGQYDw4qeTHE6e1vf3u85jWvSXfcyYuA7Tib1AnxkB8vOP4IJPKVuNHxhiOMiMAWOb8IMfLABtmlngCgdwTHHIFAeuJIxJBGPSdy1qkT8SRO+Ez5DNkiLu2MDZxn+P3grJMP9SMfBAj1wqHGeUZ0YA91oicCcUBerCMf1uGQM7QNG+hFIx/aSftT9ScNeVI34uCo005sJ3BsUDYBlB70mbamHrQL6yQe2O8IIJ4EhrihjREO1J9hawxTU48GbQC0P3lRHu3J0C1spF2ISx7UlWOG7bQp+XGjiXqzX2gvys9tzdF6LdUG5EPZtBdtzXbaDPtoG0QXxwa2cEyxL4HtxhhjTF/pFxGjCyCBC7HuKnJxNpXhQo6zxl1jOQCEalC87pwBtlWbn8jzq5SWdXKodySoN/uKoO9lutoXldqMuF3FZz1OLo6x0rEksJ7fF44rd9hxcHFC99tvvxQfh5xJ2JdeemlccsklcfXVV6fJ4TiuOKoSKpXs128Vx5beEhxPRCu/ZWwiDaIBR5/8cIxxwkmHg0xcbMNxRjSQjxxXxAUByFcihri0KQ44zi758HsgH8ogEE+9lQg7RANtQVoCcdhOPthDO9A+2I0gIQ6iirZB5JGWPLAH2xE22Ek8nHzS06bEYztL0D5TXuoFwW7aRvuZJfXAiWepdlUc8sBWxBr2aT1gN8KQPHnwAPuPBz1cfPHF8fOf/zw9uIG2JY88X9qMwDGhnifqwpL19PRQHvOMEB+0KXUgH9qJepCP6lqGePmSfUje2EC+1FWoPgTOa9SRfUd8CS/lY4wxxvSFfvVIuXBxgebCiWOC09TVhXFHRRd4HAccQRyAWi7qpKVdWVZKxzqcBRyaWiEtzpkcpK7sqsXe4UJX7a39ybb+ahd+M3KIgf1B3vqeg+PLUB7Nf2FID/uQid88+QpH+Gc/+1ncfPPNyVEnH+3fHNmOs4mjSx78juWgUjbpEQLExdHHQZVdON/El7CQSMGRZ64VwgHnHOeagPDAGeY8QV7ko3xxrCV0iIPjzjHPXX8CebKengCcccQVaag7dcMe7OY3Rh7UifjYRY8N8dhOG7NOIoa0rJcwKYN9lEUawEnHLtlOAPJlv+jcR17axpL1nCfz7UAPBw90QIDyJDb2H98RlcSlbbCNz0pLfthBjwt5Uk/ahLbR0Dj2DXVWz5PaQ3lKxPSE6sD5hUBb5vXMUT2JQ97V5G+MMcZApWuGrkE5/aowdLHiwoZDQ+BC5gtYO2oHnD+cMRwLUWnn5Cgt7SnHgTSV2hYHFBFTyVntCvLC4cNJxanju4Jpb/+ujmXth662VUMeT59ZyikH9ivOI+uwRQHHlqelMQzpHe94R5x33nnpscj0NuDYIhh4tDOP3NUxobwVgHJwcHF0ceZJr7KJj6NP4LjF+c3riw30xlAed/wZ0sZxxJ16BAb5qaeGY4yAk805AkcbyI8eIw1T45G9PMCAY5k4bCMPlhoSxTAr8qEMtskmPiOQcKLpbVE81isPxBCOPXYirED2KB/anLprn6jNgfzUuwBKwzrakd4o1iltjuKC8qfdeDIZvV0IC572df7558cf/dEfpcDDAzhvEFfp+UybS4xQLnWhfWhD1qvtaQsEKu2KiGF/EaiPbNDxoO+gsrQkHwLbaR8dP0Jp2W+IPuzANpaQ190YY4ypRPk6VOna0a8iBlQQdyhxLAi66IMM6gkZX20Q+edqKedVS6gG4qldcPZw0nAq8jwq7ZwyygNngPbtChwL7hbj0BC/J1vZhkOGM4cDqzH/Kq+7tKadchup7UDt31076jdCGpxg9aTJwQT2EfsV51jHAPuLx/UiGliP484DAd7whjfEm9/85jRpn3U4kzj9LAV5579N0jOngv1PGhx6gaPKMYHQlfML2IbNONKIG4QBc1SYv0FZiAWOeYQ7goZjEyedMuTcklbQq0DexMdenqpGmeRD/gQ58ggh8sGhlshRnYgnEUedKJN2pU4SVdSRdeSDzdhO2dhAfcmHvPN9SV3Im/IRCoggIL4ED/uO/ZQLnDLap1oCNtDrRJuwD3kiGUKGYXKUSXsRXwG0lIijXAQb+dDeGp7GZ+pFGYhZRAz1J52gjmo/1RdyG4F8aCvQeUY2qd34TPuwDbuxX+esPG9jjDGmErqudEe/ixjQRYoLnZyG3BnoySggni6o1YQ8fi3IpnIe1QTiV1sXwDHDqdCdXq3XslpwCsgLGyqVzzqcBxw8nCzlj4PBNgWBs4UzjIgBnE/uCrOONKSvVI7pmryNta+1H8ptmR9LLNUjxr7jd6Pjjf2BM46Y4RjCMWQ/8bJDhh9xhx3Ih/j89pgPgWOeO9mUwXfypyzEC3DM0GtBHH6zOKtAXJxeyiItwyARDKA64aDiKOMwE1ciGDslYrADu8hHvTTYSB0FaSR8EAPUGbuVD4F8iMcwK7bn+ahtVTaCAFuoF9uJxzq2IXLIG6FE7wW9FuSl9mYbbcTvgTZgHen4DVMf9QaxP/hNal8hIKgfn9U+ZcrrsZv6Emh37ESUEI9AGfSoIRq0Ls+DYwFRgs165Db1IQ+dh2lX1nNewDYJG9DxwDHAku/Kv7xkHygt9ee44xxC/WUX+5ghjdjD/qLNtW+MMcaY/qCix6+LVW+RowRcQHXHj3Xa1tUFjfUELopcuGsNXDS7yrsSXKxVVq1l6kLfU10IOD20A04FqH20rAUcJhyJ7soGHB6cDJwtOWGkUSAtDgsOHI4NzqzsZT13bXF6VEZ3ZfUF2TMYUXsolGEdbVtG9cEppB3ZBxxfwH4gHQIC5xpHnONJ4MgyjIr5EGzHKaZng0n67E+cRz3xi+MKh5L9RRocWJxu8mC/8p086JEgnu7ms795Y/8vfvGL9EJCyuB4Yb16JHS3HXtxoBFWOMI4xIgW8tFxRMDBZxufsYdjlF4TyiTgaJMXxxm/U+KyXW2lJb8RCRXy4TuCQ/nwnfLJhzYlH4RFGdpGvzfaGkeaNgPZw5Jt2MM5ih4a9if7g3e2XH755XHFFVd0DsXDJmwjLvuWHjDesE+78VtBEPEmfNqcPCsdG6A2E+TLfiUgAuk9kmhhSTm80JRjBbCZ8oG01JW2pM1JT7tQX/VyUVfVTfuG4wHhwTqEHi+u/OUvfxm33XZb+o59bCPIVsriuGB/kB9l8dJOAscQx7l6ezhW2d+IXtpd5x9jjDGmJ7he6LqRXy9zkojJLyz9cZHJ86Bg3QHl4o9B3UFaAhddOQvVBC6SLHGkKK9auCCTlrK07CkQT3ciqV93bcY2HAzqT526i1sL5CknE8o7mO9yTnA+cSj4jONDkLPB0BOcJJw22aa8cHbUIwP9Zftgh3qqrhxLBP2QaNOcfLsgHk42ASHBU6XuuOOO1OY4zTiW5ENPwjXXXJMmcOMMKn/an3Q4kzjRPKGKeIgUtjNRnieSkQ/CmMcoUz7bmchPr8z111+fPvNWefY7xy2PvKV88kDo6LG92IHo0XGh34HAGScPHGf1kghspmwCvz0eAc2xyXd+I/wmdTyxne+0iwQFvyHyyPMhHU4y+bCeeNQTyIvfEevIh/TkyxLyvFhPOtqJuAga7Jc9fJYg4rdEvvpN00Yc94hAehTYH0DeCMgDDjgg2cfv49Zbb01PhGM/0fa0qWzDDtKAyuV40TotgXME7cO+QLSQF/v9yiuvTPsToaS2xSbmOWEjtpInddH2vH3Zzjb2KfVkO+UgQgSCEOFFfTkeOD5ye8vHOPuZ4478EFw8OAKxh81XXXVVEtycP/RQB52r8voaY4wxXcH1oqdrRr0u2EIXrv4CA7gAchGTCOBimF8QBXEpn21c0Ln48Q4C3oDdU+DdDyy566e7j91VXo2DQ8ajW6sNOILYxcUZxwB7K5XDOuqBU8EdUhwqvqvcvkA+upOqPFnmsA7bCDifCBaGfRBwOuSscKcXByY/BoDvpJVzg7PE94FCtvZX6At5HrQDd7W7ylPtBLQ53zn+9HJQRAGOLu1PW+I44/zhCCNcaFsCIpLfCek5rjiWyY872jjFCFHS8xLB008/PR1TwHFw6KGHprkTpGXf4kAimughYL9xvPJiS8qE/PjDdo4d6ogdONAIiFx8sA6hy3fdVSePcj7UW44z3znmqS/xKANBwe+GbYgpjl+cfezO82Id5fPbYRt58FlwbsCJZhvnFcqkbL6D8qJt1DvBNpayBySyEGm0OftLTn7uuLPEJtKpTN7nQpsiFhAX9MDwWGT2Ne3HPsEm9it5kFahbCfQJuwf5jBRN0QjopT5TvxWKeeMM86Ik08+OYktymRfc3wpPesRJtSH9pLQYxv7hG2qV/mmCkvslG18zpfkST6Kjz3HHntsnHDCCaldOXbojaEXiiXHNkIPmzlm1AbGGGNMNXDN4RrKksD1qRzq7rnnnuSpcIHBUeGOH3d5TzrppBSBC15f0IVPSwyiHEIyoGMb8Jl1XHi58OFkaP1gAntxKHFYcCZoI9UBZC/ODo5Rf9YjL4c7ndxNR4jgJOTbBOvUxvqs7yCbtC1H33E4cQZx+JS2HFewjbu4ODWkwzFT++Rp+I7dzPFgn+PgEvp6vAF3zcmXNsFZYx+ofbqyuwxxcewZIkQPBU6uRCPbQD0UOGw4jTiJ1FnbEBAcH9QPhx5bOCbIl6E32Mk25f3ggw+m3x9CH+ePPGlH4vObIA/aE0cctC8AoUpvG3lyXLANx5W41J99B4qv4WYscUhxaKkndcEWbFL+qgtxqaPKB7arTflMHNpMgg2b898HTjflUp9c8JBHXh/lwxJbdBNAcOywnfbGJhxpofxY0i7YznlHTr7yoe3Zf9hEW1MG+wdIS1uQlnikY3teV/Jk/0j8UU/K4LeCXeQt+xA07BflR160u/IDPtPWnBs5t/A7Yp0EFvuFdkUQU3ds5nggHyAt7UJgG/F1PFJn6olN2I6d5AuUQV2wjWNAaWkLbCU/0vFd65VO9she8qauHG/YpjKMMcbsGHAd4PrA9QNfjO/cnOPaAGzrCq5jXK/wbXndwBFHHJFu0nJ9JV05bV3hOBX5tzsOOEFMEu5PEZOjcrhgcuGTg4dRbMNwvucihu+581IN3TVQJWRXNeR1KIsYbcNeHAEcD5wV1ldq/L5AnrQNjhb7TQ4P66CrsvL1sjdHtgJL6oazSV10LORxyrCtWhGDYyQRI6eqUtxaIC2OGI4yeSCMsF359TbfWsEOqFRepW04uPSgME+F9ubJVPQu5nEJfCdwjCm99jnrtF3b8jTKA/I4lehuey3b8u98hu7KrYZK+VSySfEgt6GrdN1tK0Obs13nJsUl8DnfVi1KV7ZHeVImn7WfFU+U1+k7S6i0rTt6ilPpuAPSELRd340xxgx/dO3gGtBXEUOPP6+MwJ+slK6elSTIN+piNFBQEZxL7kznTmulcllfa6iVSnn0FJQOsFt1oC25u0z9BkrAgMribjdlcXeUsrQvZVMZrS9vqxSXvLiLjFOt/TQQcNByZ5mDnaEzmofQm8BwOXo5sFXtAL1pf9JiG0EOWRnWa3u5fcrp8+35NkIZ2a5tfFYe5d8r30HlAPGUniXxy22gshUnr0s5bnfbyihP2SJIJ5sIfO6KPB755HFVfp5PJZu0Ls+rTHfbQNvKdaHNCazXNuUle5SW7/n2SvkBaQh5ffM8td+VvlIerFMZIs9X25S/4Lu2K1/SQFfpcnvy9YoPimOMMcbUQn5d4Tqi6+4WgY3lC9pAgRG6oKGqJGQwZFvZMBCoXgSNw8f5z7cNFLQdYokyJWQIKlPf1b5aQqVtpGNJbxhDQtg/iE5t6w+UFwFxpECZ+edag9LSJuStJeURaiW3j7wqwfq8TKHy823aXt5GENiJEyh7tU3plVeZPD/FVfxKafhOfAXFVR5lutuWk+dbqVzlQyhvy+kpn3x7T/l0V2Z32/IyiFdG22Ufgc/6Xs43X1cpP1AeLBW6KqOch7aVyxX5tu7Slrd1l6fSsVToKh9jjDGmt1Ty47bLVUaG4HjiJCNm+KwL4FAE2xEw1AUBw3etHyjIW22GkGEIHmXnbanAd9pdS8i35YEx9gzBItCrBKzviUoHWCWUl8b0YzeBCdGE/HMtgXR0WRL4TN4MU6OO2xO1ayW0niViUcPq+Kx05f3UHYqTBzOw9Hd795RfV+u3F7mtg802Y4wxw4NK15bt4t3lFzoJGSYzc/cOtrfT2RtwyDWETGyriznl0HY4vzjuiI98sq/Ehdpd7ct6BUCwsB8QAewTTQquth611JcyyZ/eHspkyBrLvgbs1vFE3uwXUN0HI9jF74CniJ199tnpiU/YXrZ5sNpvjDHGGLOt2a5qQU4ZDricUAmZwU7uUOL8IxxyAbO9kBChZwJBgzPMOoQLwoEnXeXCBiHB3X8EmHovmGdD/RRnICD/vAyWAxFUzmBHvwEeocyDNSRCh4LtxhhjjDHbmu3e5YGThoONM83deJ5IJudzMIONoCFRuYDRtm2N2gyHGLvokdDL5vQeHUL+nSXvNGFOjZ4ORj692Qeqt4Y+aXJvd6gMlv0dZMdQgjbcXsePMcYYY8xQYVCN20LIqEdGQ54GmxMqe1jSw4HzXx5CNlhsxg6GKSFoECjYiUikd4a5M/TAMI+H+ReIl9yB7q4OPdWPMtmXvDuD90iQZz5Z3XSP2pelgjHGGGPMUAH/j1de4GfiF+ID9rc/M2hEjCrGE7YY2qQhTYPVgWOHqOdIDCZb87aTOFHoal1f21tpWSJiyJfhazAUe0W2B9oHbitjjDHGDFV4nyLoQUV9Rb5qzqDqiZHzRq8AYbCCjTjlfRl6tS1Ru3YX+hPaBjFKvrwlnF6Y/i7DGGOMMcYMLvD38PtWr16dbvjnT1vtC5XSN1x44YUXdXxODueCBQvScCPmSeCca1jXtmawC4OcoWLntoTjBhVOVyIHMEPvBPu2kqI2xhhjjDFDC/xg+XV8XrVqVSxbtixNYyBUOxpHvj965JFHHkkPqeLBWerYKOdRN3/+/CJNe8GLFy+Oa6+9NmbPnh0nn3xyUlKDuUfEDF44pjZu3BhLly5NYoahdxzIqHJjjDHGGDO84IFOCJgXXngh3cBGhOhF7NWIGNIjeJ577rn49a9/Hccdd1wcfvjhKa9KnSoWMWbA4PihJ2b58uWxYcOG9NhgemSYL6PhZmbwM1z2k85zxhhjjOk7+Af4ejzIiRvW+Hr4ffh7PCGXB0sRp1o/ojsRUymfuvvvvz+JGBJx19wixvQXchp5QsXKlStT9yAHOet9XPVMtT/6gYL9tL1t6E90PBpjjDGmZ7rzAXIfgYc48Zmb1DwNlyfg8pl1tfgRZRFz7LHHxpw5c5LPWCmfunnz5nVe2ZcsWWIRY/oVHeQsOcgJDDNDtduprEytP/qBJj9RVQPxB3Lf9qZ9BtomY4Yq2+L3VGsZ/r0as/3Qb7Wa3yw6AdHB6Bq9WJ1pA7XkkdPTcDLKy/FwMrNN4BjjYNbSGGOMMcYMH/Dx5Of1xtfrScRIrwD5D9qnk5nhhYVLbQz19spPNMYYY4wZOvTGB9F1n7S99WEkgCo9nUz55vm7J8YYY4wxxhizXan16WTuZjHGGGOMMcYMKSxijDHGGGOMMUMKixhjjDHGGGPMkKJbEaOJM8YYY4wxxhgzWHBPjDHGGGOMMWZIYRFjjDHGGGOMGRRUOxLMIsYYY4wxxhgzKODVLwoi/ywsYowxxhhjjDGDCgmXsqARScR4Ar8xxhhjjDFmsND5Zv5iWUmr1KNseDN/JYVjjDHGGGOMMduack8MeiUP9U1NTdHc3NwpZFgaY4wxxhhjzPYEbdLS0pICeiUP9SNGjIjGxsaor6/vsrvGGGOMMcYYY7Yl6JKGhoakU9AseahnowSMMcYYY4wxxmxvpE0kZFjmIU3s15gzQNAYY4wxxhhjzPYAkdITfjqZMcYYY4wxZlCR65O8w0W428UYY4wxxhgzaKnU4WIRY4wxxhhjjBlSbDUnplJ3jTHGGGOMMcYMFtwTY4wxxhhjjBlSWMQYY4wxxhhjhhQWMcYYY4wxxpghRY8ixnNkjDHGGGOMMduLqh6xnEficWZ+h4wxxhhjjDFmW1BJe1RcN3/+/EK3tAuXxYsXx/XXXx+zZ8+OE044IVpbWy1ijDHGGGOMMQNKS0tLNDY2Jj1yySWXxLHHHhuHH354jBw5smLHSt0DDzyQFAxCZunSpXHnnXfGnnvuGTNmzOgUMZW6cIRFjjHGGGOMMaZaKmkL1qErmpqakh454IADYs6cOTFixIiOGKURY4gYJVqyZEnccccdsddee8XOO+/snhhjjDHGGGNMvyP9IdAdDQ0NsXHjxrj99tuTiDniiCO2EDE5Ww0nu+6669JwshNPPDF169TX11cUMkpjjDHGGGOMMbVQ1hcSMc8991xcdtllccwxx8Rhhx3W9XAyRAwfECWImGuvvTaJmJNPPjmtQ8QYY4wxxhhjzEChzhNEzKWXXprmxEjEVNIjDRdeeOFF6lVZs2ZNLFiwIKZOnRp77LFHWmeMMcYYY4wxAwl6hN6W1atXx2OPPRa77bZbzJw5M/XOVBoV5p4YY4wxxhhjzHZFPTHPPvtsGk7WU0+MFYoxxhhjjDFmSGERY4wxxhhjjBlSWMQYY4wxxhhjhhQWMcYYY4wxxpghhUWMMcYYY4wxZkiRRIwesWyMMcYYY4wxg4lKWiWJmErPXjbGGGOMMcaY7YGEC8suRUy+wYLGGGOMMcYYsz1Ai5S1SSV9UnFOjIWMMcYYY4wxZnuR98S0tramzzn1mzdvjqampvSWzDyyMcYYY4wxxmwPJF6am5uTTkGz5KFzOJkUjgWMMcYYY4wxZnvCyDD0Sa5TcupHjhwZo0aNihEjRngYmTHGGGOMMWa7onkwjY2NIa3CMg9+xLIxxhhjjDFmUFBJl1TqaPEjlo0xxhhjjDGDip70iXtijDEDhs4tLLsK2l6mUrzBzFCwsbf0175QWpZM0tRY5zLldXyvFM90jdvMGDPccU+MMWZAwEndsGFDrFq1KtauXZvCmjVrOoPWrVu3Lj1lRE4tSwIMJSdsuJ9HqR9PiGF/rV69OgU+a19BeX/pe76e+HwnbNy4MZYtWxYPPfRQ3H777XHzzTfH7373u3j66adj5cqVnU/O7ErsmMqovXRMuu2MMcORuvnz56ezGye5xYsXx7XXXhuzZ8+Ok08+Oa2rr086xxhjqkJPEME5vfrqq+P3v/99Wqf1OThZ48aNi5122in222+/OPLII2O33Xbr3JYLg/xzb8kdu1qRI9iX9P1VByCvWvOsJn6lOBIqTz75ZFx55ZXx1FNPpXj77rtvvPa1r4199tknbe8ub+Ir75deeinuvffeuOOOO6K4BsULL7yQBIu2jx07Nvbee+844YQT4tRTT40999wzGhoaerS9r1SqezVUnU5aooYiemMTvzVuDJCOQNsRekJl9bYdjDGmL3CtQXc8++yzcdlll8Wxxx4bhx12WPsk/gp6pOHCCy+8qONzuju6YMGCmDp1auyxxx5pnU9kxphakFhZvnx5XHPNNXHjjTfGM888k8KiRYviueeeSycoAt8558ybNy+JHbZNmjQpZsyYkZyu3Jnqj3NRX/IgbV9t6Cp9LU5jbket9lQTv1Ic7APEy6WXXpp6SxYuXJjWHX744bHzzjunz1ApPccEeeji9JOf/CS++93vxj333BPPP/986pGj146eGQLfORbuv//+dHNt+vTpSejqIlZrvault/lWnY5oNRRRy3GhfUT8hx9+OH7zm9/EnXfemX5btD/XdQmZrvLUei2Vp6jWFmOM6Q0659HT/9hjj6WbmjNnzuzyJpa7WYwx2wQcKe62b9q0aavAek5a9AT/7//+b3LCOJkpAEvu0uRBznE1EJ9yGBKlF2dVk1blKq3Kzu3Ssrv8OAGzHZvLdtfiHMoW2YFN5Cdkh0JeXl4uS+Wh9doG2q72yrdhLwFRkdveXT2Iu2TJkvjRj34UP//5z5M40XoeoTlhwoQkYHmMpmxB2CCC/+u//isJmtyGMtQBe/P91F18lZFDHpX2cXcQp6ty8/YGPpfXCdlPEHl75vXLy8hR/ggXhOK3vvWt1HZ33313EodsI5QhncpWOSy1nxWqQWVUss8YY/qTJGJ8sjHG9DdyqOQc4QRxx/6II46Io446Ki0POuigdJddcXFoccCuu+661DNMGrYpaFiMgpxoOU6VyNPyPiwcZgLfoSuHi3XKM0+rsrVdzh1Lfe4KtmMzASqVm5Nv5zNBtsgObCI/OZ45eXn6zJJ8WCoP2aNt+XbyV3nkr6B4OeXvoDZav359XHXVVWmIofYtQ57odXvzm98cn/zkJ+Mzn/lMfOhDH0rHB2WqDHp+Lr/88tQ7o/KF6k0dsDHfT9CVjZRPEKwnj3wfa31XaFu5XPKVjXkZfNY+EKqP7CcoX5b6nNcvL0PlEE9twXbFZxiGtkE5jT4TN0/HstIxJXu6gnSEvI7GGDMQpOFkOtlwYWG4gIeTGWN6i5wcJvQzRIx5FJxHcKZe85rXxN/8zd+k5ate9ao477zz4uCDD44XX3wxOajA3WzuyB966KHpXMSdZ5wi0CRwhA7nKsrA4WIOhZw6loTcQeOOPpPFH3jggZSWoVCc77jrT1riEnS+Ux0ol/kb9AyRlu5t7MT5Zi4PTqucQ+xmoruGRrEe2wT1YBvOPNspg+2yl+2kVyA/8mdb7nQyBI/5JPRM0BYMx+Mu+8SJE1P83OkkPvlSJoFeLyAeE+dJT35qB8pU3VlPnR9//PHUzmPGjElDBBEU7AfYZZdd0phllqC65GAPeWLvL37xi7TfaFfWzZkzJz7wgQ/Em970prS/mVvD8UCg/SRa1E4HHnhg7L777ilftQt5YTf7FHupE/ua9OPHj09p8zYhHfFpD9qNfUkexGNoG+kfeeSRWLFiRWoX6q02AdKTN+tIx3HE8TF37tx0fNDDRPtyfOQonR5moaFzqhv200bYxb4UlIFdlEFgf2Mb69lnpMcWAvmwnnlGHCOUwzqG/BGoC99Jgy3Ad9pZx9SDDz6Y9jlp6R3jd6v2Iy6BtNRbbch38iTNo48+mtpPbUB8pTXGmO7Qeaza4WR1xQmr8+zMyZc7oEzsP+mkkzpP0sYYUy1yjpgD89///d/p7jvg1Lz73e+OD37wg5132Tm/EP/iiy+Of//3f0/OMicq7sRzR54JfYCDx1AzhsU88cQTyQEnD3pxuOFyyCGHxIknnpjiy+kkHxx4HLMrrrgiLRnOhKOFY0baAw44IE477bQ45ZRT0nfQiRJH8dZbb43rr78+OY8ILZw5HEecdhxwhBi24uwyv+NXv/pVcvTJf6+99orXve516XyKPTj/l1xySbKderOeSfFMjgecYOab4LDC/vvvH69//evTBHdsQgzSi/Hb3/42fUYIAXnNmjUrjjnmmHjlK18ZRx99dLJH26j3r3/96+So4lSefvrpyUnmXH/XXXelnpA///M/T+0HiBf2GXVHDCB8pkyZktLtuuuuKR2OPlDWhRdemB7IANip9qPOQJvxmWFkDBXEiec7eXEs0IYcG0BaHT8I4G984xupXYGL2Dvf+c5473vfG9OmTUvrAKebuVfUheOEdhk9enQ6LrDrrLPOSr1+EqvYc9NNN6V6cKFkrs1xxx2XnHL2NQ44zvnkyZPT8XHGGWekY4TjA/vIgyX1YM4J+bDvli5dmmxHOOnhOOwPjgMgDcffz372s3RxJi7HENda6kg+2H/BBRekOiLgEXw8sY3jnn3OMQjUH8GHqOPYRQCyz6kX7YCQoAzqQbnYQ114UALxqRtQHuWyr0nDb0P1o9eU9uNGA0KVetF2bEMs/vKXv0wPZKDcM888M7UjeVE+vzv2LTcr+J2Sxr6EMaYnOC9yruB6xfWScw83YLimVjqHdDmxP7/bZYwx1YITBOqJ4a4u4IQiNnCMOK/gEOHsEB/HGUcOJ4oTFY41TjmOLg7Tf/zHfySBQDycatJzsqMMJopTDk4YjiZOI3kQD6cORxgnDXFBeaTlTjxOKE46Dii24OghgMiXngacTc3PwS7iAHngTHK3m7ohCLhbhEOHE0w9cA4RQYgLnE3KY24HYoI0bKeHhzIRMfQG4IgzVwSRRp2oBydwnG/ukiPyEDnYho3Ug0BdaQfsQVxw9xwHnvYGnHyGYlFPbERE8ThjngxGveTEk4a2pr24eOBwYzcQD+eeMmhH1rPfqPfxxx+fHF45vwShNsMZxwbakngEnGkcZDnU1IP4ygfhRNthG2IAMcExQZmIHuLS3l/5ylfSUiJT+dD+2EuZ7CP2BW1CW3NcIGypExdL4txyyy3J8ee4wQbqzH6677770nHBvpLYog2Zc4JIV48HYDf503Yck9RbdxKxi/anXIQoxzI2kp7jk220K78RRBdpOe45ZviMIMEu6kZ5pMc29jnHPb8VJvMjLjh+sIO4wD6jrrQDgoeeTn4v3/zmNzvj65jCTtqJ3wftgQhGqHB8SJBQJk+po3zScvwhtjim8CM4ZhFMtBl5kYZgjDHdofM/5xHOUT31xNRzkiOQEFjqszHG9CechHCScIZwCFnibHEXW3foOR9pG84iziV3ooG7MThIOM0EDVfhBIc44E4wPcqUwQkQBw3njTik44SIaGCJY0o53I3HaUdE4MgRyIe0bOOuPjd26BHBqeYz6bCFMhEWCA+cZOb4YBP24GjimCJ6ECw4y3ymXmzHKcX5o76csCUacBi5005eOKb0aDEMizvc1INAHsTBecUWtRlO9/e///0UV20pp5SAg45zrTYhUKaEG4+0xBEF8gO1ObA/qFd+jejueqFtOLoEgU3cKEOsyg6tp1xs5c4/Iu78889PPVosce6xBxBl9O7gaLOONOxT9g/7QPkgAGgTek2oJ+toP8oiHcOhiEO9SEubsh2Iy75BgNJm1If2uuGGG5K4YP9SDvERBqTneOE7dWI/8BQ2jhPyErKBfYtI4Djg2CBv7MJORAH7is/EpU4ITnoB+Uw81nPjEYFIXhwTbEes5OUhFHlMtY4XjjXahDIk7IlPHciDY5D8WdIz+OMf/ziJc2wBtS1L0E0E4JgjT5bGGNMfcO7l/MN5JQ8VRYwxxgwEOIo4UDi0ONw4/zjOOGE4cpx/OB/hwOJQEY+75Dh3OEw4Zzi0f//3fx//9E//FO94xzuSIyxHkjvOOF3kgVPOZ9aznaE7pONpTZ/73OfS3X22AWVjD0KKO/oM3cF5xVHDqaOcr3/96/Gf//mf8Vd/9VdpqBe24uhRDs4s9uJkUhbbGNZEXjjJOP/YgmBjG4GyuBOPsEDESeQQEC84ncS/7bbb0lA0OfqUwzC0j370o/G3f/u38Qd/8AcpLmAPzizOM2XzvXx+py3Ji3bjrjzCALvphUEYANtJS6/Ze9/73jQ0iOFk9I7QJmxXnkL2Cb5rHWXKQQfqp54RtQd2YjMOP4KBu/30pNCTxJJA3Wgf2hanGvEhexgu9f73vz/tY4bHMa9GNrA/6fFgP4NsZxvlIn4YMvaRj3ykc84WdWU7NrOfSMtnjl+EHvuT7exvhoSR9hOf+ETaH9QPu4iP3bStxF9eXwJxECW8JwnRhsimftSVJXEQkQwtpG7//M//nPaJ2o8gcfmKV7wiHZ/q4WIbQo2hgn/5l38Zr371q9N62g6byJs6UP7ZZ5+d4lAH8qcXhW38Rjg2EW7UHXvlTKj9+M5n2oyhHwylow2IS2CbMcbUis6XlQQMoeHDH/7wRboIcNHmZM9Fm65j8MnHGFMLnHAAp487tNwpB05COKk4T9wBpoeFuRfMdcGJ5zwECBUcZhwvekI4J+Eock5i3Vvf+tY05AYnCccYJxcnk3K5E45Tzl1+xI+Gt7CNu9DMIaBrmrTcseZch/OIM4/zhRjAIeSuPXe4OUlqKI3uZJMWZ42eIHpLcJ5JT5nUg/qpVwlxwDwd6sEQIhxfiRxsxwbyQKwxxIkeG6AODJ+it4YeIhxhwBbE1/ve9740FweHF7vJizvhGgqF44ld5E/7sR+UNz0FOMs42295y1tSOdSH+TYMa6LOgIBBvOA8Uxa9UNQPsUcZXBtoC4Z7UQ6wTtcM4hAAsYoQo21ZR3wcbtqV8kiDYGM4FD0EDA+jPQjYxH5kHccUdtCeDMvi2CI9+/0P//AP07GB841g5XhiO0JA0Cbsf3o/2E+UCeyjP/mTP0ltwfHAvqTdGLKFvewz9gl5Yw/7BBuUlocTMC8E24iHoGB/cMxTBmWynxG01IX9reMdMfLGN74x3vWud6X5MOxP0nD8EYe2YhgdT3BjG23Oeh5QgYCm/hzH7AeOb45T1lM/jh/i8sLQc845J6WlPehp5JjguCE9++JP//RPkxijx5E6ID5oP/IgDscU7UovJrZpf7LviMsxwj54+9vfngQRdpAmPyaMMaY7dG3h/Mr5h/Mj50/OJZyHdWOkM3Sk68QnG2NMf8OJCYeOO7oIBM3JQGjg8HHe0d1cHGycIOZ2MC+Eu+o8ehdHEUcJBxDh8+1vfzt+8IMfpHktOFmE/Pylk54caRzXf/3Xf41/+Id/SHMBuIuPs4bzyF10JoBzxxsnH7FAOgIOIfNxPvWpT6W74AwfI2+cwj/7sz9LAeeR8jXkDEhLfQmIGgJ5I4SoG/XFBurDCRuxhf3cFaeXhDg47fQuqQ6IIhxaTuycwAGbqQfl4rCyHps1PI08Sa9tOKE4zfRoYS/l4Khig9oRO5nToAcrII4QTKzDYSYvguzqDpVP4DOh8wLUUQfAVtoK55x9pR4YfedYQUQhBKifepqwg/3Bd44rjg3ED9/ZjwgCem/o2SCoTUD2aIih7OSiyX4CvrOvaCPagXaVICQtvYbky5AzhBbHNfu6fdhbu1hlH0rYAnbTzqSl1wfHH9HIfsdm9vN73vOeuOiii9IDLpg/RN3Jn+Fp//M//5N6rLS/ZLdsJagsbNQ22oo21u+OeBw/iBPEEnGwl3iILs11AtIh7PIeJepB/ogjBDE9PbQlopj6s80YYwaKraf6G2NMPyEnhiWOEcgpAj7jhOHwcOf2DW94Q+ohQLywHgcLp5672j/96U/TpPMvfOEL8eUvfzndseduMM6l8gKVqR4XOVsEHEF6RBjjj6BBHCFouCuNo4uNOK/csccRIy0OMmXgNNJbwWRubPjsZz+b5mRwt17OJHfwETQMTyItDi+OHz0wiBQEA3fT9cQqnGECjiEBG3BkKZ+4OM044XLWNe+iDDYjLmQHjj4CiPxAbQOkJy7OqrZTju64A21OHDmi2neso11Ed06qtlE26amDwDbqXRYUiCfKJODMI0JJyz5gSRzyQRDQo0B6HHGG83F8MEzwS1/6Uto3CFzmR5GWNGqbHGxjHfWlbL4TKEdlKR6wL2gr0igtw9SYgP/5z38+vvjFL6YlvUTUr66u3clnf5CWz6C6cIwiFBniRb4qh/pz7CNyEdAcoxxzHLOIdwklxc9RGTl5PA09o22Ji2BCwGhfKz02sb/5jr2IXMSj6g+0D9tJj7AGHVPGGDPQWMQYYwYMnCc5RTg83G2mR4XeFe4wf/jDH46/+7u/i09/+tOpl4MeEXpbcJpIy930n/3sZ8k5REDQvUzPC84pjjAOqpxPIceTngnucPMYYJxdnEji4bzhaOHMcQedfL/61a+mMf/EIU+GFb3tbW9LIginDUdZ9cB5xpljzsb3vve99FZ0bGI7jjdDpBAKpMHZYxsiibvxwHwa7nwjdChPvQ2Ug+0IHO6CUy/SE1Q2thME21QnnFA+s458c1ECbCNQLoE2Vltha15HtaviaD0iCnGlcsoQiz2hvaEyaRfZR54M/+POPnYqf8pjXspf//Vfx//3//1/KTCUTWJS+VEu+499ymfsJh/2CXkqIBxx9LX/cNz5zmflJXskkkB11RLy8kmvuhOHPBHHHJMEyqZ+2LRx46ZkK5+xN0d1pl1oA+1XymDf8TAHRBnzxZgjhFimHI572pO0OeSX7ysh24XajbgExBI9QnwGLbGLcpQfaagH9SfPvE04JvLjxRhjtgU+2xhj+pWyE4VTg3ODU8S4fYZf8W4Rlsy54N0xDKlBvOD85+lx8Bm/j5jB0cRZYvw+k9q5483EduajiNy5wjFDjPAAAO7MM14fcYCzKEeUsnAyESQMB8IBxV7uLGMX4gmRxbtMGFoDcuKoE4KGifcMkeMzaYlHz4icPhxQAp+pHyKGeRc458ShbIZLsR1HkLIRC0CdsVd1wlbdCWcdS+yhbBzfvK1xTnOHUnnIcQa1NUs58YCjq0CZqjNCgHKIn+ddCeITj8BQLXqp+Mx66oAgpacKtC/oxWKYG0OTGK5HexG3DG2CvVrSi/fHf/zH8f/+3/+Lj3/842lJYCL8P/7jP6YhhAwHZFgWdZddOWqffKnPQu2rtuI7wxA/9rGPdQivj8cnPv7JouxPFWX+YyHO/7mw4aJ417veXdR/jyI+Tv7L7Ux6gsrSfuV40Fwx7GRfctwj+v/t3/4tPvnJT6beOtLm9SjXSd/zuiBMOK60jh5CBD37mfLZ56xnX9ObpH1DWyN+WQrlyTpsMcaYbYnPOsaYfkWOjZBjRsBR0tAanFO+K+AoS1wA8ejFwJFjHY4Xc2X0RC4mUuMck5ccWuIRGPrCY5l5lwW9HIgfPWGMnhPu9vOQAN2BJj0ChrvdDE3iwQPMP+A7k7l5YtV3vvOdNIwNMYQQwR7S4gTikHP3nXwYDsYwIbZhm+rAd5xtAuUSSMukd3oRaB/ECz05DG+iLRRPYoJ86D1iG8i5xHYJAtaRD2IIh5V8y84t5PsJ5xRxI0eUu/3YTS8D65SeMtSjJPK8t9zzL2+jzvTCSbixniehMXeFdlMZ1Iu6su/ZBwSJJh0XoB4h0hGoJyKYuT68/Z8J/jzBDdGMcGXIFmKX/SIBUguqB/scQUEe2MM+YcgVD1ug1+/tb39bvP0db49zX3Vumqd00EEHxpzD56Tjhf1INh1ZJfS7KIOwpa11jCGUEO4cewhz5p1of1WqTzlP7FcdENkco7Q18eg94hhECCsOS/YLvyM+E5dhZwhR9eIpLtAWlephjDEDiUWMMWbAwLHJnR05XZWWxGMpcBBxpnUnHueJoVaa/IzThUDBqaccHCkCDheO2Q9/+MPOO/PciefONnng7PJ0L4a10SMiBwzHmTzp/fna176W0vK4WR6rTBmM+ceZ5BG2OMsSGqTFRtlJ74EmzIMECDbjBOL0khanlvXc8SYf6k5ahBlxsYu4pFHvAY4lc3r05CnKZs4NdWNJWQQEDIE0+T5QO7EEyiRgK+1KOXynLggMJsrjyFIWj+VFVNArpnYu8/KebkflkidPlGOIn8pHuDGviUdeIzh5wAHrEE+8t4c5LdSJ+NQpB0ccp1r1RcQxTwSRx/GE/cxLYcgiE+R5eAP7k+MFu8mzjGzNKa8jb/YtbYV4JLA/eNKeHoywfPmK+F5Rr/e//09Sb94fvvsPCwH87WL9smSr2q0rl59jgh4QBCSfsQERxPHHccFxyv6nzvn+VCjbzHYdpyzJR3OuiMt25vXw4krqQDzypk7sE+VLOgS2jkX2qSiXaYwx24Iu39jPyQp8cjLG1AIODzBEhYn3TIhnHU4Pk9q5O47zB6zTOYYlQelxrhiGxdAanDl6NThHAb0BPCUMR1W9GMTHseXpZjiaOGKkx3HDqUWIcHebnhacWebA4AxKfDCUCZGCo4iQIS5OK/XgscJ8x6nD4caZJ3/KRBhxd5zH2BKfu+eIIR5GoF4L7KP3gKd76RG6PH2L8y3bsJG0tA09TJo8z11/BAQ9Pe0TxetS7xBpqRsO9MUXX5zamTyBCdm8J4TH5eJwak4OAggQErSR5poQ1IuFPcwlAeLzFCvK4rHCtDftonIAwUVezB3S/hP5d/azemEogzZlHQ45vQ4Mx0MkUR/2KY8wpn2Vh/LRu1QQd7QtedHWiAP2DaKHdmcIIr1w7HPKJLB/2L8ISI6pfN/TS0TPCfuOssgPAUf9gXZkbhW9OpRNvvReEA+xQbnYwnF1xRWXFwLw5lTHlpamJBbOPOPMmFPkT1zqqmMHMcQxQfsJ2oV2VlsTTz1i1Jl6Mdmf40D7j+GLxx9/fBKuxON4kSjh2GJJmfyOsJ84HD961w2in/1AfTm+eZEnIobfG+VTf3pB6b2kPjxwQI9YZjs3F3RMkR/5G2NMrXA+4xzCOYvzGNcY9aDrOpBjEWOM6Vc4CQHnE/WU4CQjDnAU6QmRk9Pd+QXHCQcVZwsHnpMYd9rl9OKYsx0RQX7kxTtmEAkMH6JMzmc4aHzmpIiThnOHo4aTiBNLWgQG815wdPmMc8YJFCeb+uAg4/jiaJOWOmkGO3e1GbqkXgbsoHeF/Clbw35wMJm4zl112gInFIGHbWzHAeQRtQgZ6qo6cT7GmaUuCBq20RtCuxBwbIkL5EUZzCvhxE96yqGtqD9OOkOReEyzHE4CUA7tgXNOvSmHNDjorKNNsBthRTnUlbvzOM8zO+YLFZmlRfsRUHwlFOtoQ/KjV4klwoq8yYfvOOk42dhK3XQM0aa0G3bRBghNnGWcdsQadUdgAjZjK8PU2M8cGxxD2MnxwIMa2FfkzTGEOMPBp04ckxw32hc4+zjpOOuA8GG/sO84PkhDuRIB2M++oGz2U0tL+1PXODbPPvucdHywP1auXBW/K46f5wshDYgYhEHea6byOf4Q6HxHeFMnXmKKXZTHccX+pH7YRLtwwSc+bcnxShvTvghS6ks9GFanp/9pyCD5sH85HmkbjltBfvwuGKJH/sDvgd8CabGZY4r2wQ7qQRpjjKkVziecQzh3cUOKGzz5MGC25fhMY4wZEDgZ4XwiZnB2WOKEQ/lEBFqnJelxuOQA4qTidOLY4USpx4G76HJycSxxJHHIcFhxXLnTjXPKXXOcQ5xkAt8JOO8MD6MchnghhHjQAPNuuJlDGsqlfNJRF77XN9THnMLx/YN3vjOJM+yW84ZtiATSUm8cau6A670bCAEccTnw5M060uFQAnkRl3XYQ12wh7IJQrbhQPI0L4Yw0WOhdqRdqCdxaH9swoElb8AG4lI+czt4qSLONW2al0MvF5PLcYARaeRD3iyLzFKo61AvlJzvYepCGdzFp515sSI9G+yXcjl8xiaEBfGYjA/UgW3YzmcEFPuIOTC0bbIjg+/kQ3oeIEF52j+USXtQD4Ys8pl8Qe2iY1fx2IfUgYBtDEfk4QMcL7n9QFr22+te9/p417t4ZPieKd9ke0t7z8qmIt9Nar8CtqudEFS0E6KB7eSPYEI8Ux49SszVUvtzsacXS2IfUcExQH7YL/u039kP5557bmo/hCLby3Ugb+LRA8MxhYDDNm2jXNqFzwT2idrOGGP6CucTnVPyzzl18+fPL9a3b+DuC2OrOTmefPLJKYFO+sYYUw062eAAMtZeL+XDueLRwogOOWtyirQE0uo76XAy6Umg90V3vnGolRfDvOjxkTOIeOGuNE45zhWOH3ewuZPNHWkcTGzhrjROIg4p+eAIy3bA4SdfyqWHAIdN9cCRxFFEIFEed+ZBdlMGaRmyJOeO+PRaUC5wx5676txxAsQUd7PVC65zL2WSL+WTH/Yg1nCEgbv9tAdCivQIEOKrHYlL/RF2fMcOHHpED6gc1RtHmN4m7rQjGCkfcafeCgQkd/Bpb9ovlVmUn2rew/VCNtE+2EVd6MFAHLKvEHA4//S40EPBsEB6V9j/1Jf12IE92IXtHB/0OmAzPRCIDcQR9WP4F8PqaFPyJj420I70yGEHcWk7BDOfsQ9baDPEAc49vR4cU+xr4gDlc82kDuzrFctXxOaiTUaOGhnTi2Pp6GOOieOPOz6JVSDfl1a+FHfccWcsXbI4HRfTi3Y7sTiG9OQ72QfUl+MDO+iBJD3CmH3Hsc8xSduxHwhctzm+qDe20YtEu9Em1JN8Oc5pV+LwnXrSY8h8IvWOYRfHFGXRLrRfeX4VvynS0Pas45iid4982a5jyhhjaoHzLecPrjOXXXZZOu/Sk57f3OMcI5KI6ficTnYWMcaYgYZzS05+Usq3aT0nNkQFjjzbEQIEBEU1kB6nkIDDRzocNZxhhhxRjsrd4gRZfCa+elPIRwKIIIeWtMTN84E8L1GpnEoozxycU+6sYw8OKGA/tlCfcntUyqMa1N4E8sCJp61U361IdSJQVhGqLJJy2KfsFz5TF8qiLnyu1n7i5e1CGtqkks3V5FlLHJx+6rB+ffvcnPqivIkTJ8RY9kd2/VTrlCEfQX76rrw57rQfEObUS9fl3Ea252kJHC+0B0u+0xYEPudxaTvKUK8NceiF0TFFXOJVQ56vMcbUAucfiRjmYSJiuHnG9aCSHnFPjDFmwMB5gtyh0WeddyDfnq8XcsI4H7FdcViyXumJR5y8DAWlF1qvvPN8WObptA5YB3ndFITSKi7b+NyVbVDOh/WV4uZ5CG3L00OeDtjG50p5COpVjpPnIdL3YnN9KrNjWxvxizaunHUnKkP5s5RtlcrKUdxyfK3L6W699p8ot4lsFGwjjsjzaF/fnpYUhUVkkL4rX7JKa/iQ8iUobTvt8dptVv4vp3/5WBWyT3nk8ZQPIS8jJ89T+SoPUB6gJbBeId+utHlcY4ypllzE8JRKRAw9z4x2qHReqecuI3d7dDLmBGSMMf2BHLAy1Zxn5BQR5IRxntK5SusVB/Q9d7BYl6fPtxG405znQwCWSgdKq+3KV99zlI/yIFBOOa62az35izxung9gCyf7vD3yfCCvY15+OV4ZlZOXobxYvwWFuVtk1XW2W5DbIyhD9ZeNiseynCa3SevVHsqLdYoPyh/ytJVs0XZCOR/gu2xTeSl/hY70nek6Fmwqb8vzztcRB5Q367SeILtTuR3wXXYJbc/jgfJiCSpHQevLKJ3S5nl0lcYYY2pB5xLORegUgobPKhTnnvYTkSIaY0x/wokoDz1RKR7fda6Sg1aOl3+vtC0/15Xj6XvuwAltV1rI0xEqkaepdG4t55Hb1x2KKwdWoQzrVG6+vVLcMsQhf7V1Xg991/YidkcgTs/251AOebHUZ33XUvGE4hJUP5Z8L9ucpwN9Z1lpu2B9HojbFS/HeTkwjIzA+hy+Ko7yZVnp+ADlrbiV7MjzyWGd2kLbynGAdQqKWylUorttxhjTH+TnoXKo10mfkFZUOEkaY0x/wrmmv6g1r67isz4Plah1PXSXn+hpuyjH6ynv8vbu4vZExbLwvTWEDCFT2RfvFyrZrnV9qVe1dFdGNeWnpir+tC+3bqhq61CONxB1J8+ByNcYY2pB5yHpFM3rU0iKJT+h8rmru0LGGNMf+BwzTCj7ufZ7u6doH67JzCMyxhjTNbke6cpnSCIGpZNH9B0YY8xAoju9CmYIU9593p0VoVm44FYa6+DfgDHGbEnZP6gkZCqdT40xxhjTj3AptlQxxpjqKIuYSjd7LGKMMcYYY4wxQwqLGGOMMcYYY8yQwiLGGGOMMcYYM6SwiDHGGGOMMcYMKSxijDHGGGOMMUMKixhjjDHGGGPMkCKJmK5eImOMMcYYY4wx25Mu3xNT6dnLxhhjjDHGGDMYqUfZtLa2ujfGGGOMMcYYM6hAo0iv5KG+ubk5WlpaLGKMMcYYY4wxgxK0CppFoX7EiBHR2NgY9fXtc/xZeniZMcYYY4wxZnuDLiGgUdAsClvNibGAMcYYY4wxxgwWJGTysNXTyTw/xhhjjDHGGDOYaR9DZowxxhhjjDFDBIsYY4wxxhhjzJDCIsYYY4wxxhgzpLCIMcYYY4wxxgwpLGKMMcYYY4wxQwqLGGOMMcYYY8yQwiLGGGOMMcYYM6SwiDHGGGOMMcYMKSqKGN6CaYwxxhhjjDHbg55evl9RxPiN/cYYY4wxxphtDZ0p1WiR+tbW1hRRkS1gjDHGGGOMMduTXJugV/LAuvpNmzYFYfPmzdHc3GwRY4wxxhhjjNmuIFbQJxs2bEhBmoXA9/pRo0bFyJEjg2VjY2PU13uuvzHGGGOMMWb7gSZBo4wZMyYFtIrC6NGj2V4fDQ0NnsxvjDHGGGOMGVSgUdArWwU2MoTMw8iMMTsCPt8ZY4wxQ4tK1+0kYtwLY4yphcEqBHKb8sl/OZzvfM4zxhhjhg6VrtueAGOMqQjOPw/7WLFiRTz99NNp2dLSsoWAKQuEwYBsUnczqC5Lly6NJ598MlavXp3WVRI5xhhjjNn+9HTD0SLGGLMViBUc/BdffDEuu+yy+NKXvhQ33nhjeiKIGGw9GogRCRLsRHQtX748fWb9ypUr45JLLomvfOUr8bvf/W4rQWaMMcaYwUE1/oVFjDGmIjj3GzdujCeeeCLuuuuueOqpp1JvRjUggBAJBNJIFEkwSDwoTk/xBd8VN49XDtj69a9/Pb74xS/GvHnz0jrqsmjRonjssceSOFNc8lFe5fKMMcYYs+2p5npsEWOMqQh3QTQki896iqFOLN2dYBSfwKPby09A1GfF4Tvl5PE1FKyM8s4fCa/0ynft2rVpCBxihs/apu2CPHh8o8o0xhhjzNDAIsYY0yUIlVp7J4hPr8aSJUti7ty5cf/998fzzz+fej0QEcqPYV4M93rppZdSTwjLBx54IA31WrBgQeo5IS7pIE/37LPPdvaokKdehkW5TU1NsX79+rQkMIxszZo1KT1ihiVpiP/QQw/F7bffHvPnz0/zZHL7jDHGGDN4abjwwgsv6vicLvQ4D1OnTo099tgjrSvfuTTGDH/kyHNO+P3vf58mwx966KFx9NFHp54L4NyQnx80PAuBwdyT//mf/4kf/OAHccUVV6QhXQiLKVOmxPjx41P+CIfvfve7cd9996U0P/nJT+Kb3/xmXHrppXHvvfcmEbPzzjvHuHHjUnyECoLoRz/6Ufzf//1fXHzxxfHggw+mfBE+iJHJkyenz//7v/+bbF61alVaImZmzJgRDz/8cOqhIU+GyFHej3/847jlllvihRdeiGnTpqVQrpsxxhhjBhbdZMT3ePTRR2O33XaLmTNndo7YKOOeGGNMn9F8EuacIEz+4z/+Iw3l2muvvdINkUceeST+/d//PX74wx+mXhl6RBANiBUEz7e+9a3UC7P77run+M8880wSNTfffHMSIOSP6Pjyl78cv/jFL9IQMYQIIoayvve978Udd9yRen+ITy+LhBg9NwTWI7Lombn22mvjpptuSqJnzpw5Kd6vf/3rVCaCiniUaYwxxpjBSRIxUj7GGFMrEgsMCWP42K233hqzZ8+Oj33sY/HpT386/uEf/iH+/M//PHbdddfUW0JvCiBkCPSwHHzwwfH//t//iy984Qvx8Y9/PE477bQ0vIw7MSwRNTwlDWH0+te/Pj772c/Gv/7rv6a8DzvssNTjMmLEiBg9enS8+tWvjo9+9KNxwAEHJFH0p3/6p/Hud7879QJhK2Jm+vTp8Wd/9mcpj8985jPxR3/0R6kHZuHChUkIAXFVN2OMMcYMLpKIsYAxxvQWeizouUAA0HMCb3jDG5KY2HfffePAAw+Mc889NwkT5p0wD4XeEJ139tlnn3jjG98Yp59+euy9995x3HHHxUknnZSGndGljMhBxDAsbP/994/zzjsvjjjiiBT35JNPTt/5rOFso0aNikmTJqUlQ98QJ3ynOxpRMmbMmDj++OOTPfT6EMiPXiPKIhhjjDFm8FDppmI9DogeL2qMMbUi8UCPybJly9L5hLknzDX5zne+k4aXMVSLuSgM80KQEA84KSEydtppp5Ru3bp1SUQwVAwRw3mJgPhB0NCbs8suu6TeFOJSLgJGc/gE60lH/uRH3sD3sWPHpvIQM+RDYJ3m3lQ6URpjjDFm28GNTl2TuYZXCvVE0uNHjTGmO/Lzhc4ZetwxE/ERKQgOXozJ5HrmqiBivv/976cJ96QFhEMuGJSnHnWscoTEDXNYEBzEoZeFJeJj4sSJHTHbye1jmFluM2nIg54aPhPYrvKUzhhjjDHbB/yD/LqdX6uzsKVDIqfCGGMqoZ4XzhUsBecSTjI8Ueyd73xn/PM//3NcdNFFaV4Mnz//+c+nl0++//3vTz0nit9xIkp5lM8/fFfgrgtCRj0sisukfQRUd+TChDIlbJSHyPM1xhhjzPaHa7h8hS1Cx3ZjjOkWnPtctEjIqFuX4V/0iHBimTVrVpx44olxyimnpHDUUUel+DxOeenSpVuIikrkN1aAfOk9IS3vhkHIaCjYE088kd4Zk8dXetmX251j0WKMMcYMTSxijDE9ggjgCWA8QpkJ/MxvYW4LgUcSr1ixIs0zOeigg5LI4L0rPFmMnhMeh8yjlHm3y09/+tOUXu+ayZEIKYsKvpM3z4onTx6NzEsyETA8JOD6669PNuTpJE4on6FoCBkJm5zyd2OMMcYMDSxijDFdoon1iAHerfKRj3wkPvCBD8QHP/jB9OhiHlNMYLgYjyZ+xSteEfvtt18SMbwX5uc//3l6N8zXv/719MJLtp955plpOBcCgl6bMpWEBk8wO+GEE9KwMfJjaNrXvva1+NznPpfeD0N+shWY78LjlnknzZVXXhk33HBDElN53gizrnpojDHGGDO4sYgxxnQJ4oCnhzE8jEn1ILFAoLdDQgCBwOOUeefKsccem15w+e1vfzu9YZ/emTPOOCMuuOCC9HQx0jIhn96VqVOndvbMSNQwdIy5NbzPBRvoiXnrW9+a3jeDSHr88cfjtttuS9vOOuus9E4YHgqgyfrYy2OaeZoZ75bhpZj03FAWeTE8TfNxsJt0bKM8PkNZTBljjDFm8FA3f/78wg9pH4axePHiuOaaa5KTwPsXWF/pTqkxZnjDb59ADwxDtXi7vpz+HDn6zIfZbbfdYsKECWmi/XPPPZeGmq1fvz7lg0CgNwWRAKRjeBpxEDB77rlnEi4SRLxHhm30pvAQAOJgC3kzdA17+I4gIS5D1fj+oQ99KI488shUJvkjYBhOhnBC0PBoZwQVeZKWeEAPD0PlWPKCTF6MCRYyxhhjzLaBG5z4GfgQl1xySbohevjhhycfoJIesYgxxnQJ54BazgPE7Yvjr/T5ksDk/YsvvjiJGN7Yz8spAZHEiY7HOfMizAsvvDD1BpGGnpneoDJ97jPGGGO2HbWKGF+ljTFdgpDgxCHHvrsg9Lm8XetBn8vbJIAkYOiZ0Tbm3Fx++eVpTsx1112X5sL84he/iF/96lfpxHf00UenHh3SKp9yHsDn/HuO1qvOxhhjjBmcWMQYY3pEwqC7kMfLP+dB6HN5fQ7rdedlr732ije96U1xyCGHpBdpfuITn0gPGfjKV76Shpedd9558cpXvjINSUN8KJ3yyMvoqUxt6yqOMcYYY7Y/Hk5mjOlkMPY+5Dbxnpgnn3wyPXWMoWXMtWESP3NcmKxPXMSHlsaYoY1/x8bsOOTDyS699NI45phjPCfGGNMz/N4VBivlXhWhIWMSMMaY4QG/afshxuwYSMTwQCGJmDlz5iQRw7mgfP1PIoYPXPgRMYw1nz17dno8Ket88jBmx0BPBhusv3nOR9jISU4nMwkWbObpacYYY4wZmuQiRhP7ETG8+qAsYKDugQce6LxtycRZ3n5tEWPMjoPEAY80njt3bnoksQTNYAWbCZXuzNSKhFCZvuZrjOk9/P64McHIkIMPPjjGjBnTL793Y8zgpSsRoxdkQ37Nriucls5vjDPnrdweTmbMjgO/c0QLE+b/67/+K73ZnhdRcjIxxphtjZwV3un0hje8Id75zneml+6Ce1yNGb5UGk7GnBhemcB5oXzTcavhZJ4TY8yOhXpdfvOb38SPf/zj9NunJ5aXR/bGYfCdUmNMb2lubk7j33mh7fe+97308tp3vetd6SEeYBFjzPBFIqbSxP5KvoUn9huzgyMRc9VVV8XPf/7zOP/881MA//6NMdsSnBiclUWLFsW//Mu/pJfY/uEf/qFFjDE7ALmIqfpll75zaozJzwPcwEDccELJA+t6CuU0Dg4ODtWGpqamzvMPwRhjuiKJGPXEgAWNMTsu/P7zwF3PPHAnpKdQTuPg4OBQbWDsu85FnE+MMaYrfIYwxmwFNzYUjDFmW6Fzjs8/xpiesIgxxhhjjDHGDCksYowxW5Df/fTdUGOMMcYMRixijDGdlAWL5sYYY4wxxgwmLGKMMZ2UBYt7YYwxxhgzGLGIMcZ0YtFijDHGmKFAEjEeLmKMgfxc0NNQslrmyxCPdz7kS603xhhjjKmVJGJyR8JOhTGmGnoSOYJzCvF450O+BJY+5xhjjDGmVrYaToZTIQfDGGMqgfBYs2ZNrFixIjZu3Ni5LofveoP/ypUrY+nSpbF48eJ44YUXYt26dZ1v4/b5xhhjjDG1Uo+DQag01MMYs2OR38TgPKBzgcRIU1NTCs8//3x8//vfj8997nNx//33b3EOUXzC8uXL49e//nX8y7/8S3zyk5+Mj33sY2n51a9+NW6//fZYu3ZtZ1pjjDHGGMhvcMoHaW5u3iJs1ROTOy7GmB0D/ebzk0Z+HmAIWENDQ4wYMSLFmTt3blx99dXxyCOPpJ6VsoCBZcuWxc9+9rP4xje+EZdffnnMnz8/lixZEvfee2/89Kc/jW9+85tJyCCKlNbnHmOMMcbk4BsQdKNVoR7HhKBx6nxmaYzZcdBvviwi+I4oYcjYs88+G/fcc0/8/Oc/T+KE74iaxsbGzhOKTjTcMaGH5tprr43NmzfHOeecE5/61Kfii1/8YvzFX/xFHHjggfHoo4/GVVddFQsXLkxpKcfnHmOMMcbk/gjaBF9DmkWhXk6HMcZUgvPDY489Fl/5ylfi4x//eBoKdvfddydxkvfAaIkQYa4MIoael3322Sfe9ra3xbnnnhuHH354vPWtb413vvOdsfPOO8fjjz+e8gafi4wxxhhTLfW6gyrsRBhjhM4H9Kxs2LAhLSdNmhRTp05Nd0Vy4cF5hO0EJvI/99xzad1RRx0VhxxySPpMXHpv9t5775g1a1YacobYYdI/aCiaMcYYY0x3+GWXxpgu0VyYww47LE3i/8UvfhE/+tGP4sMf/nDMmDGjI1Y7+XAwhpo988wzSewgWMaOHZsEjIaeTZ48OXbZZZckeOitWbVqVUonQWSMMcYY0x0WMcaYiiA21HuCkBk/fnxMmTIlBXpj6FFB5BCAeMTftGlTLFq0KD2ZDBGz0047dealMG7cuCRkyJeJ/TxlxBhjjDGmWixijDEVQZRImOi75sDkw774nkPvCu+BWb9+fYwcOTJGjx7dmQfwmR4ZRBBpiW8RY4wxxphasIgxxvSIelD0FMO89yVHooSnmdHDglhRGoKgB2bUqFFpiSDqThQZY4wxxpSxiDHGVA0CIxcZuTABviNMmAMzZsyYrXpZFB/Rwnry0mMTRTlPY4wxxpgyFjHGmJqRkKkkaBhCxrwZ5r0wP0Yvs8wD6+itQeTQU6MnnRljjDHGVINFjDGmX0GQIGJ4EACPWuYxykJzanhc8+rVq9N3hpUhfNwDY4wxxphqsYgxxvQLiBBECcvdd989BZ5QtmDBgli7dm3qcWE7gUcq824Yhp0dcMAB6XHLpLOQMcYYY0w1WMQYY/oFBIgm8c+cOTMOPPDANNflnnvuiQceeCC94Z95MPTM3HjjjfHggw+mt/YfdNBBaegZPTR6YIAxxhhjdlzKNzUrDTnfymOQE2KMMV2hcwTL/Hyh7xMnToyDDz44dt1113jiiSfi+9//fvzkJz+JK6+8Mv7zP/8zfvWrX6X5MkcffXSKl6c1xhhjzI4LgiUXLV35B/XcHWWSLRNsy4mMMaYSOl9ojouCTjTMiznyyCPj9a9/fXqp5a233hpf/vKX47Of/WxcfPHF6R0yJ510UpxzzjnpZZikdS+MMcYYYyD3MRjFQUCvoFsUktcgB0Tkn40xBiRQEBuzZ8+ON7/5zXHBBRfEvvvum9ZJhCgek/tf97rXxV/+5V/G+eefn4aNEfcVr3hFvO9974sPfvCDMWfOnM48jTHGGGMA3wAkZiRocup5KhBPB+LOqRIYY0wlJFD222+/eO973xvvec97Yv/9909zXxAiOodoOWnSpHjlK18ZH/3oR+Oiiy5K4eMf/3i8+93vTnkoP8U3xhhjjEGw4BvgW6BVKgXf/jTG9ArdHekKiRNOQNOnT09ih/kvs2bNSjdOdIKygDHGGGNMV+AvlHthYCsRUymSMcaUkUDpToTkcXQSIlST1hhjjDEGKvkL7okxxmwTOAEpGGOMMcZ0RTX+gkWMMcYYY4wxZlBQ7Q1PixhjjDHGGGPMoKGa6S0WMcYYY4wxxphBg3tijDHGGGOMMUMOz4kxxhhjjDHGDBn0CofuhIxFjDGmS/LHIjs4ODhsi2CMMZCfEyqdGyxijDGdJ4fyHQ++VzMu1Rhj+gOfb4wxIvdBKp0bthIxPoEYs+OR/+71ma5cQktLS+dnBwcHh4EMnG+4qcJ5yP6IMTsu/P576ompmzdvXrG+fcOSJUviuuuui/322y9OOumklIC3ahtjhi84DvzWr7nmmvj2t78du+yyS+y7776xefPmaGho6IhljDEDD+cj/I5NmzbFHXfcEaeddlq8613viunTp6ftPicZM3zhJga//+eeey4uvfTSOOaYY+Lwww+PxsbGijc26u6///4kYtiwdOnSuPbaa5OIOfnkky1ijNkB4HeO43DnnXfGD3/4w1ixYkU6YUjc6PzA0hhjBhKdazgH4dCcd9558drXvjYmT56cttknMWb4kouYSy65JI499tgtREzZD6l78MEHO9csXrw4iZjZs2dbxBizA8FvfdWqVbFs2bKtfvecOIwxZlvCeYgbKRMmTIhp06bFiBEjfC4yZpjTlYgZOXJk+v2XzwF18+fPTyKGEwYihiEl7okxxhhjjDHGbCu6EzGV9IhFjDEmoTufxhgzWODOq/0QY3YMLGKMMcYYY4wxQ4paRYwVijHGGGOMMWbQQsdKGYsYY4wxxhhjzKAEAWMRY4wxxhhjjBnyWMQYY4wxxhhjBiWVHq8MFjHGGGOMMcaYQYmHkxljjDHGGGOGFN32xFRSN8YYY4wxxhizrSmLli5FTL6hUiRjjDHGGGOMGWjoXOHl2z11smzVE+NeGWOMMcYYY8xgoZI+qW9qagpCc3NzimARY4wxxhhjjNmeoEnokUGjEKRZFOoZPsar/Al89nAyY4wxxhhjzPZCmqS7UN/Y2BgERIwxxhhjjDHGbC/KYqWhoSFplXLw08mMMcYYY4wxg4ayNqmkVbZ6OpkxxhhjjDHGbC/K2qSSVvEYMmOMMcYYY8yggQn9Gk7WFRYxxhhjjDHGmCGFRYwxxhhjjDFmSGERY4wxxhhjjBk0MIyMyfzdPXzMIsYYY4wxxhgzaOhuLoywiDHGGGOMMcYMGqp5/YtFjDGmoNLJgnWE1gpB28px9P1ltvxmjDHGGNM95Z6YLt8TU43aMcYMV7Lf/xanAk4glQKnjZ7WFfi8YowxxpheUFVPjAWMMTs6HcKDU0FbS0TzhojNa6Jt86po3byyCCxfDm3FuiBsIqwqPrfHa2kqtjWtieJLkVFrkWW7mOmQNMYYY4wxNdPV+2LcE2OMeZm6hojGMREjJ0TdyElRP3LyVqGuCEEYRZhUfG6P1zCi2DZiQnFWGVmcVLKRqj69GGOMMaYGctHCiy9bWlrSMg91c+fOTS5GfX19LF26NK655prYb7/94uSTT07ihvXGmOFMcQrouJGxckN9zH96Qzy5eH00tfF4w44OlS6ESFrdcYektaU1poxviMP2HRd7z2yMEW28bZcYZFCECndRqoHzUKU7MJDfgOkqTn+zPco0xhhjhjsIFXTHc889F5deemkcffTRcfjhh0djY2O63pY7XermzZvX4YfUxeLFiy1ijNmhaIvW1pb0W9/Y0hg33ftC/Og3T8bC5RFNMSJa21qKc0NxitjyvFGA897uwNfV1bc780XcCSM3x2lH7BTvOGef2Hsnzh3FOaShoVgU21P09jS1wN0W7KOM8vmI9QqQbx8ogdGdPbUiu0H2at1A2W+MMcYMRsoi5phjjkkiZsSIEWl7+ZpbfK/v84XYGDOEKQRG4Y7Hps118fTzG2PJmtFRP3n/aJy0b4ycXIRJ+xTLrcOoYv2oyXsX2/eIERN2K77vES2jdo5nV7TG8ys2FPKlDglTFFA448khr80px5lP3cVF2oZCCLHMnX6h7YRtAedLymJZyZ5aIY9yPhJKxhhjzI5Ifg3UdZfrfR6SevHF0pgdFQRG4YwXpwI6S+g1aWgoPrQUImTzqqjbvDrqmtZEXfPaIrBcE/V8blob9S1ro3HzizGpblkcuEtT7DezOUbXrYsGun0buGsi0VKbeAGdk3Dmn3zyyfjtb3+b7syAtrHkrs3TTz8dN998czzxxBPp+0BAWYRNmzbFQw89FLfcckuyh5OotvWG/GQs0om5OGHn64wxxpgdla6us0nE+GJpzI6LTgucH9onzjUX54S2aKgvnOvUS9vRA9IR0nmkOGU0RFOMG7ExDtt3QrztNbvHOa+YHlMnjynSt3Sk68y5Y1k9lIeA2bBhQ9x0003xzW9+M+699960jgAssfeee+5J2xEyxM9PdoqTn/y0XetYEi+PU0bx161bF9ddd1184xvfiLlz53au74lyPNXjxRdfTILo7rvvTrbDokWL4uqrr477778/mpubt8q/nFd5u1AZgnhapzRdpTXGGGMGE5W0ShIxxpgdGRxZBn8ludK5TEolzWWhV6ChWCoUp41ic31siNl7jIxzT54aB+xWxGtqjta2wukmdadv3DcnGYcb537VqlWpF6QMTnil7XLW1QUNctg5EepkqJ4b4kF3Tj3bCAiZvLye0mCHylQeCkuWLImf/vSnceWVV8bq1avTukceeSS+973vJXGzfv36lB5UJyAvPpcFmmAddSrXK1+nuhtjjDFDEYsYY3Zw6pKD2+7k8hc3OQ0v4/TQ7usnNMelvr4uRtZvjL13HhVnnrB77LX7hHjoidVxy92LY8WqzclJbmtt7kjVN3LBUSZfj5MuR50l2xA3zzzzTOrZ4LPisx0HHhGAwFm7dm08++yzSZgQJxcLlcjL6gryJ5AfYoeHpiBYJHzInzyamppS2Lx5c2zcuDGtZ4kt2MV61klwkB9iB3sRUxJoikNaAnmvWLEilcl32UG6p556KuXBumrqYowxxgxGGi688MKLOj7HmjVr0vjzadOmxR577JHWcaEzxgxX2grR0u7Erm+ujweeWh0PPVM40w0TCueWte2SJn2sa4iGQqA0NK+NXSY2xatO3ClOnTM1Fi9dH5fftDjmL9oUm1tHxtTx9XHEPuNj1vT8aSK1nUfkWOPgM2yL+S5z5syJgw8+OK0nTxx3wvz58+OBBx5IT1XkKSakZQ7Nf/7nf8YPfvCD+M1vfhP33XdfGpq18847x8iRI9N5DYHzs5/9LL7zne/ExRdfnNIsX748pk+fHpMmTeq0Qc4+IAgYvrZw4cL01JSDDjoorSeOzpWKixDhaY/0qlAOn6nHmDFjYsaMGfG73/0uvvvd78a8efPS4+2xhyFzDJ/jM4KDMHPmzNhpp53i4Ycfjh//+Mcpv0suuSTuuOOOJHSwd/z48SnuL3/5y/j973+fenP+7//+Lx5//PGYNWtWPPbYY+k75fHElzvvvDPZR74TJkxI9vpcb4wxZnvC9ZNrEXrk0Ucfjd122y1dAzWpv4x7YozZoeGk0B5wvelt4V9D8am+vuPxygwfowemEDGNbZsLAdMW55ywS5xy1MxY/PzGuLIQMI8sXB+t9YXwicY0Ai1lmdj6pNPfSDSwJNx+++3x9a9/PfU4nHLKKXH88ccn8fAf//EfccMNNyThw8nxq1/9anz/+99PPRj7779/mp+C8PnWt76Vem/Ii23KX3Tn7EtYvfTSS2mYGGUgIPbZZ5+YMmVKmuuCbQgzxNTo0aOTIOMzQgRBMXbs2HTCRuxMnDgxPVoSEfalL30pfv7zn6e4++67bxI6X/va15JAWrlyZSoTgYUo+/a3v522kye9QD/5yU/irrvuSiLvrLPOSr04//M//xO//vWvk5hR2xljjDFDBYsYY3Zw6jpUBycDBifVtzRFY+vaGN+wLsY2bIoRbU0xqtgwqm5TTB21Pl4xZ3KcfdzMWLdyY1x+/TPxu4dXxvqWidHSOrIQOvXtsqXTH+4fx7gnJ5ttiAuGX/H0MOaSvO1tb4uPfOQj8Td/8zdpyd0cHHqGUiF06Nl4y1veEl/5ylfis5/9bHz5y1+Os88+O6WnB0PU4twr7oIFC1JvB71HX/jCF+Kiiy6Kz33uc/Ge97wn9Zhce+21sfvuu8c73/nOJKB4odcHPvCB+NCHPhTnn39+6l1BgL3//e+PXXfdtbOXiO2IGez9zGc+E4ccckjaRk8UwoeAKDrvvPOSaPuzP/uzJMSef/75OP300+PDH/5w/PVf/3V88pOfTO8CQ8BYxBhjjBmKWMQYY5LwINADM7K+OfbaeWycfdK+cfQBU2Jc/bpoaF4f4xo3xjEHT4vTjp8VzS0RN89dGfMWro1NdROitUjd0twUxZ+OOTbKk88K24Zx48YlEUOvx69+9askSA499ND4xCc+EW984xtTLwS9NFOnTk1D0OjF4DsCiGG0OPP0YjD8DGFUrXNPDwzxSUfPDz07DF8Dhp8tW7Ys9tprr1QGc1WYs6JeHYSHusu1DljPo5zJb/LkyUmIkS+Plaaes2fPTvbrcc8Eut8Z6kY59NrQs8PbjhmqRs8LvTqIJATRe9/73pQn5RCMMcaYoYKvWsbs8DDnhZ6M4oRQBB6tvMfuo+KcU0fF+WdOieMPmRzTxrwUh+07Os45edcYN7YQMPe9ELfevyRWbRoZLfWN0Vw4+kz4J4924SJyEVOdGMjBsdebeiUSBE43AoOeBj4TjyFYJ5xwQpx66qmpN4ThXPSCMIRLjzEmIGQQEgzFolfjX/7lX1KPCfNWEAVMgqe8rsjtkHgA7CFvRAWihXkr9JyQN+GHP/xhp0Bivo8EkurBUusEdjJnhiFuzIfBVnp1/u3f/i319iC+BGkZQkYgPwJDz+jVocflv//7v+Pv//7v4/Of/3x6IhqCiDY2xhhjhhoWMcaY1GuCxmhrq4vW4rSwaNH6eHT+6thn+sh425nT4s1n7hqvP3F87DGzLu57ZHnc8LslsXjNmNhQNyE2t/IksyJtXftDACRi0rr0qXcgDHCwR40alZxxPXVLyOHHiScuc07onWCy/Uc/+tEkXt7+9renB5UgYHi3y+WXX55EDPky34SeDHppGPZ12GGHpeFk73rXu9LwLnovEEe5YAG+yw6WmgeT26ZeHHo5sIe8KYceEoawvfrVr06T+7FDZfC5XFYO82WYW8MQMgL5Yu+73/3ulD9pyQu7CeTHEhsYtvbpT3869bwwfI2eJwQRDwpAHGE/bWyMMcYMBrq7HgqLGGNMAhccN3ZzjIhnXtgcV968KG78/YoYO2VCnHbC3rHn7jPjgcfXxPV3vhjPrypOHfUjoy057x09Fm2cTuqTCCKvdpe+fV176PmEJHTyoneFYVQ42EyQp0cC+E4cejsYqoXQ4YliPK2Lp3shWnDs3/e+98WnPvWpNA+E4VXkwQR4xA4i5swzz4w/+ZM/SXNVmH/CQwDozSGop6cM6yhbokFChCWBvCmLIVuIIfLHDvJ/zWtek8QW8RjqlYsh6qTeJuVNYEgaQmSXXXaJ173udUmIkCdL6khexCePvPeIdYgpemuYg4OY+4M/+IP427/92/jHf/zHOO6449KwNNqUtLLFGGOM2d5Uc02qzy98vpAZs6NR/N7rGEzGsvhaT0/MiELITIynVzTGL69fGFf/9rlY3xzxxKI1cckNz8X851pifdukaGptSGnah5EVH3Cki1DX8X0LyVLjaUVOOTABnsDTtXg6F8OrgLku9CQwSZ9eDSbAM0QLAcNTxm677bY0H4T19GLg7ANzYRhixST/G2+8MU30Z/gV807+93//Nz1umfkqkIsCwCbyYcmQMSbU86Qx3q5PYL4JE/D33nvvJL6wmSehYQfzdC677LL05DAeHoBoUY8JYoOyEC2pLQuIT68R4oUeGMQadWWoG0KJR0vzhDGGwOlFmaD0fCdfHrdMmcwRogwEEW2gnia1izHGGDNY4FqW6xPd6MtDw3vf+96LdAHlucwMM/B7YozZcWgtTg64vxua6+PBJ1fHwwt5T8zEaKsfEes3Rzy7bH08/XxdzH1iQzy8aH00xYRorWssUiBc6ouAmCkc+7qRxZrWmD4hYs4+42KPacShZ4E4lFTbuYRzD4HzEb0WDz74YJpjcuutt6b5HLwrhXet0FPx1re+NY466qjk3DO8jEnsOPyICnoheDcKjv6rXvWqND8EgYEYUq8Nb8fnIQAIk3PPPTcN06I3BiRagPku5K13sSCCeA8NZSASEBScT+mB4YTLk8OwAzuxF9sZCsaT0/bcc88kSBBCxEOkUFd6n1iHXcyfQRAR6EWiPB6jzJJJ+tSJhxXw5DHmvJCG8ull0XA12g4hRRkILtWV9jzxxBNTbxQiTu1tjDHGbA+41nIdQo/wBFGu71wX0ShcU8uh4S/+4i8u4kJH4M4fk2EtYozZUXi5x6OprT6eWbomnli4unCEi999a1PU17XG5qbNsfSFl2L5yo3R0tZYiJ6WaGsp1E2x/eXAG/qbo6FlXcyaGnHMAVNi5mTu8BcnpHoNJatdxADnJs5HBx54YOeEdeBFjaeddloaIsVkfkQHaXg6F04/zjyOPUKBFz7i7L/yla9MvTKIGPJjaBdCAOFDjw3zVV772tem9UDZZejtYSgaZehpYwgSPrPkhZzkzZJ1xGeYG0PezjjjjDQ/haei0QuCzfTS8JnzLvNcmLPCUDR6ShAi5MO6Aw44INnOyZ02YD4PeSG4aBfdmaLXCqFEHWkP8qInh/wYSsd5nqF3b3jDG+KCCy5I7Uj5BGOMMWZ7kYsYbhRy7eaazs04rmHlUDd//vx2D6aAu5DXXXddujiedNJJKTNf2IwZ3nACaC3+NBefnljcFFff8UI8+UzhKEdDEVqTCGFwWLvWaR9yWnxL/9pTF6QXYkaMG9kap8yZFmcfMzMmjep4UWRHev71BhxzyM9FEl4SOvn3ZF+2Xt/zbVpf6fzGelAevaGcR15eb/KnDYhPyD+Xt+WoTJXL9nLZvbHFGGOMGQi4Qcf1ivepMdqAUQU8eAcRU+k6l0SMLmSMEWc4BHcJeRGaLn7GmOEPQoaH9a5aH/HS2kLU6GFVHecMFh2nioqwaezoiBkTCzHTkCbcRWt94UR3CBjS99ZV5lwkMQNlJ1xOOlSKq3h81jmNOPn6/LNCJfJ0WkIePy8DtE3xZS/f8ziKl9vfm7zydQpQTst35W+MMcZsTyRi6FRhGDhP9Dz88MOTiKl0rersieGiZhFjzA4KZ4G64k9b4aDzkXkuvaI9j0QdTyljlkzxMQvDCYkBIZEwmMDGwWiXMcYYk5OLGOaRHnvssd2KGCsUY0yHuij+FOKlU8Dgn6NJagj05rQW+bQlAVNkV/wht+HoQiMOyiJmMGIBY4wxZqhRzbXLIsYYUwLHvKU4g7SHujrmXFQXeBBAnR7ZDB3noELWDDsho6FYLBWMMcYY03equUloEWOM2YL2IWB6aWVD5+dqAvEL1774Vzj1w062GGOMMWawYBFjjNkCpAcCpF2ItJ8kqg3tsqU9hy0pfzfGGGOM6T34HcaYHR66bV/uuu2z5NgyO2OMMcaYfsUixhjTQS5dmNXCc8VqVyJbp7CiMcYYY0z/YhFjjCko970wM0bio5bQWqQrxA/ZbZGlthtjjDHG9B2LGGNMpkMKAdLa0v6s5GLR1tJWfG1NL1FMy+5Ca3ORfHORtomEHRkaY4wxxvQ/FjHGmE7ailNCC08k410xDVmoL32vEOrqRxRhdERdY0du0LshacYYY4wx3VE3d+7c5GHwvoOlS5f6jf3G7GikZ7G3j/1a3xzx7PKWWLK8KZroTOmgkgzRaDG2tefQFhPH1MXeO4+KnSbpAcvaCluNMTPGGGOMSeRv7L/00kvjmGOOSW/sb2xsTO9iK787pu7BBx/sXLN48WKLGGN2NIrfOeeFpra6uP+JVXHJTQvj6Rc2FNKjIZqLE0rSHVueN7aA2TPtL3uMGF2/OU4+fOd4/Wn7xsyJ7W+0ryvOITwmoF2+WMQYY4wxZmu6EjEjRoxI28svla73m6aN2ZHhGWTt79dftyni/idXxT0LNsXiDTNj0fqdimVH2DgjC+3fn9s4M57duHM8u2FGLFo3PZ4r0jyzbmrcv3BTLHx+TZpH037XpBsFVCPluzCDhe1h12BtC2OMMaav5Nc4dEpDQ0MSOFuEju3GmB2UtlZ6TBAcEZuaWmNzS7uoidY0Oybq21qy0FycNJqLE0pr1NW3Fd83xbiG9bH7tIidJ7REY+vGdOJp5qEA5J3mxND/wo2S2m6WkA9CaPXq1bFkyZJYu3btVjdc2L5q1ap014Yld3FgIBx88iT/l156KZ599tl48cUXo7m5Oa1XgHXr1sXzzz8fa9as6VynZX+Rl9nU1JSGAtNGmzdv7lxvjDHGDGcsYozZ0enQBbi9hWQpJEpjNLc1Fo5wQ7QUobX43JqW7aGl+N7UWl9sr48xja1x4O6j422v2jVed/r0mD5pRLS0Fhmmyf3kqFAb6sVZv359XHHFFfHZz3427rjjjiQiCGwjDiLi1ltvjc985jNx1VVXxcaNG7MeoP5DeSKUfv3rX8df/dVfxVe+8pV4/PHHO21RnHvvvTdtu/rqq2PDhg3JXrb1Nyr3hRdeiO985zvxgx/8IAkr2WKMMcYMZyxijDEZ7c8nq68rnOC6jnksxTLS95ao43NBfbEcGetiz2ltcfaxU+KEQ0fFrtMaY9zo+iI6vTQpYUfoHTjpCAB6GB5++OFYvnx5x5Yi144eGZx1ej3mz5+feiNygcNSVLOuUpwc1tPrQa/Po48+GjfeeGPcfPPNnT1ESouQeOyxx5K9rFPacr5sk735d+WTB9Zpff4Z6H2hLMrFPq1XXH2H8rru4mBLbh9Lfc/jsDTGGGO2NRYxxpguwHnFQSXwmflz9dHYUJcEzK4TN8VZx0yLYw6eUjj2G+OWO5fGkuXrCwHTEG2Fc9sfIA5GjhwZY8aM6ZzYJ+Rcs37s2LFpKXHDkl4ahnQR+KxtcsIJrEMEIEQ2bdqUtoPyziEuY3BlD2l++9vfxgMPPLBFfJ6iwnaWgJOPuMgFAfAZuyQCFI/1fKYXhzKIQ7mAjfQ25fnILtWPOAzBo15aB0pDXGxh2BtlaD1lqmzKBL4Th7wgby96yZRWS2OMMWZb0XDhhRde1PE5XeyffPLJmDZtWuyxxx5pXX4RNMYMQzoc0I3N9TFvwap4+Jn10Vo/oXBm29e3nwJ4wljhSDcU32NzTGxcF6cdMT3OOmG3WL2mKa6+7YX4/aOrY/3mxpgysSHm7DshZk1DdOgJh7WdR+QU49TPnTs39WzMmTMnDj744LSNPFnicD/44INJSPBUReIw+Y91P/vZz+Lyyy9PvSV8R+jstNNOKV9YuXJlXHfddfHTn/40PZXx7rvvTuXNnDkzCRXy1/mPzwQc99/97nexaNGi2G233WLFihVJDBx44IExadKkFJchZvfff386hx522GHp+yWXXJIcf9KQJ3ndeeed6ekr1GWXXXaJ22+/PX7zm9+k4WEMkfv5z3+eRBKiBVF0/fXXpyFjN910UzzzzDMxderUmDJlSqoHtiMuECeUxdA6bOA79dHjKWmvefPmpbwpm7yY30NeEyZMSPbTVtjB3J/f//73cfHFF8fo0aNjxowZcdttt8WPfvSj1F633HJLsoPrheru64UxxpjeousueoQRD1wzuYZxXa90fbGIMWYHp7U4aQAi5sGnChGzcH3UNY7n0YXtw8LachGyOcaP2BAnHzYzzj15j+L8EHH9XS/EHfOXxdrmsdFSOMnTxtfFnNkT+03E4Iw/8cQTccQRRyQRwzkpFzEMJcMxl4hB8Pz3f/93Egk4/+SBM876nXfeOZ0UEQo/+clP4oc//GEahgUPPfRQEgPkvddee8WoUaNSGSoLEAqIGNKfffbZKX8EFPnuu+++SSwgWli35557pkdDIgoQDQiBI488srOHBlGCQJg1a1YSQQiqH//4x0m0PfXUU+l8rLwokzlBeqgA3xEolEnPy1133ZXWUQfm7WAn6Sh78uTJ6XxOPRBF3/jGN+K+++5L3xmCh2BiyB7tMn369DSnB2FH+9FuDNc74IAD4umnn45vfetbybbx48cn8US5y5YtS3WlHLWXMcYYUytcQ2oRMb7aGGNepvDV63DYWzZEy8aV0bp5fcf6RgaTxdj6jXHEvuPjVSfMiKljI+66b1n8du7zsXzDWORNtNWNLCIXJ5p2n7+Ak05tAqYSOMZd3VDRepY49jje3Ix5y1veEl/84hfTpP+3ve1tqdeAngR6Nu6555648sorY/bs2fHpT386vva1r8Xf/u3fph4J5rogHoATqgSMUDm77757nHHGGek7PRePPPJI2s62SmlkZ1fQ+4P4GDduXPzJn/xJEhsf+MAHklCj5+c1r3lNfP3rX49//Md/jP333z8JO8SUbGQI2AknnBD/9E//FF/+8pfjXe96VxI09MosWLAgtckvf/nLNH/mPe95T4rzhS98IU4//fQkXBBwCCJEFmVyEXnFK16R2g8BiYiiDjzU4Etf+lIqh/eJkRbxZIwxxmxLLGKMMYl2uVEX9a1NMWVcxBEHTIv9dxsRo9tWxejGTYWAWReH7DEhXnPKHjFzp5Fx2/3Px7V3LIwX13Ia4alkzIPhYQC5s97xeUufvmokBuSoK5TB6WY9jjwBZ5wJ+AsXLkxzZV772tfGP/zDP8S5556b5ovQc8PQsre+9a2plwHHHQHwqle9Ks0BweFHjOC0k3eOxAjlHXfccalHBpHA0Cx6J7StGmQ3d5mAnh1ExUknnZR6RQ466KDUU3PUUUcl23bdddfUG0WvE4KHoGfnH3300ak+++yzT0ycODHOO++8OP7441PPDT0tiA3ubJ111lnxyle+Mokm8r7gggtSTw09VYgitSEC7X3ve1/qTVKvFMKGutK29Lwghj75yU8mkUO7qB7GGGPMQGMRY8wOTrtL3v6XmS+jRzbG0YdMjT9+y67xR6/fOY7cpyHGtz0TB81qjQvOmBEHzBoZ9z6wPK787dJYtHpMbKibkB65TA4dkmWLz9HW+almcM41/AqHH0dZIgJwrBEbOM/EQwTgzO+9997pEcd///d/n3oOvve97yVHnOFXzE2hN4LeDR5N/JGPfCT+4i/+Ij760Y+m4V0MsWKIGfl2hXqGEBqIC4QQw8MYmiXRUxY/2JqLm/wzUB5DzugNwlZQfZmvwhAutQdL8lcgL0QFc1PYTnvQBc+wONIzDA2Bxfwd5gh96lOfir/8y79M9aYXCmGC0EHEYAcChzZE6JE/Q4wRedhFm33sYx+Lv/mbv0lD4OjuJ+T7xRhjjBloLGKM2aEpHM9CZHS6n4Ujimu9/KXWWLGiLQ7aZ0K88exd41XHz4xXnzo9Dpg9PuY9sTKuu2NxPLuiNVrqR7d3svDyy+CJVls67ole+rY4xTjTDK8Ceh1w1uklwNHGuVavAb0tOPE42fRafOITn4g//dM/TU48jjmT/HG6mZtCLw1pcfaZ7K+AUKCH45xzzolDDz20U6hUcs4lQLADYYSQYd0NN9yQ5oxAWaQICQ/lqyXxER8IGZaKQ2Cb8tOyUj4E1tEmikde1AVbWUd7ShTxmd6dU089NfX+IKByoUQA2pc60uvCMD3EDb1c//Vf/xV/93d/l3qhKJOyVa4xxhgzkGwlYnRBNMbsWCA/Ctc3Nra2xaNPPR+XXv1Y3HP/2pi169R446sPjsMP2CUeXbA2rvrtc/HUC5sKz3ZcEZtTSOG0pjf+F8uOJ5pBX1xZnYdwnnG0mceCOKA3AWHDdhxtelXoQcDZRsQgdJgYT0/L+eefH5///Ofjq1/9avzxH/9xEjgMqaJXAieeoVTvfe9707yZf/u3f0tx+U6PA8OryF/CIId6yllniUggzSmnnJLmxeDQM+xKcUmPg88wNQkuhBRPNtMjlRUkNJS/Qo7WyTYFelkIgO0Mm6NXibi0DaKFgBhhHhD1ZW4L4g7hxpAwem+ANNhAIG/yol2xnXk6tNe//uu/xute97okEpljRO+VbDPGGGMGmnoumrqrCVywdPfNGLNjILeTZXNbQ2yKcfHo4o1xxU1Pxdz5L6FRYumyDXH9HYtj/sKNsS4mF2JnRHHeKBz8NgLnjLporasvdAy9OZnj3wunNnfOcay588+EfXo6cJqZsM68DCbh40AzrIsnhCF2rr322vj3f//39HQu0mtOCdsROfR08Jn05IkQ4vyHGOKJZQyX4klcIDEBsgeBgJBSTwXbGW515plnpkcl8wABRAoOP9uIy2fEE8IFG3k6GE8OY73iIYb4TJ4qS2XkZZW3CQQUTxSjHMpgoj5zf6grgXak7qxn/gt5IXr0xDIe8cy1gDyxg3oShzYgT3qz/u///i+1G3Xi4QIIH0QmYswYY4zpL7jOCa5F0irSLYSGD37wgxfpwsjFnCfeMKTAj1g2ZsegFYVSsIlHLC9YFQ8tXBctDROiubUhVq3eFEuWbYwXN4yOB55cE797cFmsaRoTm9tGFtuZQYNj3VAEhjwVzndbc+w0MeKIfSfE7tPbX05Z3/76fjROTejcwzwPRAHON4/0xVGnt4N3wDAng94NehfoCaGHhd4H5n0gFJj3QjqeykVPDk/TYmI7TvjDDz+cnlbGk7XoZfjFL36RRA2Ch8n6TI4HCQXOk7wnhvIRATwumUn2gK28swXxwOR54jEpn0nxnGgpCzt4XDTvWEF8IQYQVcThfTJsx2aEAXNsKJe6UGfqxVwfBIPagvSso4cJmxBFlMOjlqk/TyWjbCbuM8EfEUNPFmXTI8UT2IjDe2UYTsdDDxhOhxiiXSRStB9Yz7thaC+GkiEoedcMFxUenEAdysLKGGOMqRbpET1imeHOXLu4yQe6sajQ8KEPfegiLjokYsiA3xNjzI4EvQycNCI2t9THY8+sjsee3RQxcnq0NU5MYfXmUfHkkqZ4Znl9bKybEnUjJkdd45ioHzEqGhuL0DAqGorliEIYNERT7DyhOY6aPSF2Te+JeVkE9HZuDE465yNOZggW3ktCIF8EB3M0ECaaz8EJj3MYw5s4CSJkECQ8opjhT9rOxHXAIecJXjwUAEf+zW9+cyqPc5/OjTkMC0OwUDY2sZ1AzwU9RggNemSOPfbY9P4UeomIx3Z6NBAWxxxzTBJdPEkMEUN55ItYQRyRnvjUF0HE3B5EEeKLEzf5MEQMkUHdEDaIDkQIPVWcy/n+pje9KU477bRkE/WjHOpOenqbyBvx8Y53vCMJHdoaYcVSdlEePTg8UpryaSvalffHsJ0yqAtD1dQWxhhjTK1wveEagojhxpneE8P1kOtxOdTNnz8/jZUg4eLFi9NdQi6E3LFkHZGMMcOV4udf/M5ZbG6tj98/sSZ+cu3CePCp1dHUyjCn1mIT21lyU6M4H7TJUS2WKY8CnNdojanj2+Lc43eL1506K2ZOZLI/55D+e+yu5sAwDArnnWFS9CKUQSjgqONoc+cGcYGY4Hym8xp1oOeEOOSLc08cTpagk2lXsB16iqPtiAOEFd8RXAzZAuIonuJ2lXd5fZ4/UAbzgRA/1AfxUob2oEcGsYNYoQ0ROJXsKINYIh1lYD8XGASdMcYY01e4dnN9ZqQBowS4GcgNNW6gVdIjFjHG7MAkYcKHjoeKbSxWLF0VsbwIetYYcTrjFR/wb+s6ljl8HVP45bsWPi3vmWmfGdOeMpM7vQbnG3InmxMeqKsZOG8Rlzg6f6kLWt/ZxneC8lOcPF0Z5a28yvG0HSqVzzrgcw7xWKd8c5SOoHSKq/Xkr88EqNQ2uW0E8tA6ymVdbqvyUtzy+jwtaLsxxhhTKxYxxpjayX3qfvBBi1NHkU/h9CYhQ5b9cx6RIy1yh7pMHjePx7pymrIzPlDk9nRHT/Eq1QFqyV95KG6taZXe1whjjDH9Qa0ixlcfY0wH7Y5pa3ESaWluD81FaGpufTm0tC+bO0LLFqH9aSFtrS2FaEG88I9TTPdOcS3Iac6XXcG2PIhKaRRHznl/UCmvsi2geIrLslK8aqg2neLlcfU9t6UraHt6eCpdVIwxxphtga9AxuzwFA5rXWsKdfWtUd9QFw2NRWjgpYcNMaKx/uVQrGPZyLYiEGeLUJxR0sPIOnzjNOysH0WMyJ3v7ig76l2Rx6s2756otWzFzdN0JSaqybcnusojt6US/VG2McYY01csYowxGTioHSH5ql3cka/ox5KG+RcdKqb7m/mDksHmoFswGGOMMZWxiDHGJL3BALAkPpIAIbCldsgnJVVWaZ0xxhhjTP9hEWOMKUBxVOhBQcz0EosXY4wxxgwUFjHG7PDUdfwrKKsOJrV0BQnKYcuPxhhjjDF9ptIcUYsYY0wGJwkm+bcUgccOE3jfiJY9BeIVeRT/c23TMcDMGGOMMaZmKs0RTSJGj/Q0xuyoIDJQHh1LaZFWHrdbfC3+FB/TZwUleTl0SBaW2emkfbPPL8YYY4ypHWmUcm9MZ0+MNljMGLOj0VqIjI5elzaWxTmgvqFYNMT/395/ANpV1Wn/+PeU21t6T4BACCQQegdREUEBwa4jOGIBFbuOM87f99W/Y3fU8XV0BHsXGFFAWui9lxBCAiGE9JCem+TWU37rs85dNzsn5957zk255TyfZN2zz96r733W/j57lR2LJ12bkLB4l2M7OL8S2S6ua05NgSYk6BwhhBBCiFLghdS4fI0ST6VS/gV1ODz09F4CIcRwJ2apTNLWb4vbi6vNFqwye865BWz34J7vcvjl86VXzTa15gaWZZEtThTlXnwphBBCCFEcUcESRAxaJapbYs8++6zTLbnhZGvXrrW5c+fajBkz7LTTTvOCRm9kFmJ445oGPzys00mNJSvb7bYH19jCVzZZZwb5wZMPp0Xcn9wcf6QJDQs7/Ve35f75xiZrTfVmpx89wV573EQbXZN7c79rRHL+vesfg6mnOLSXYTswGPK2p0TrOVpOIYQQYl+DMEF3rFq1yq6//no74YQTbM6cOVZRUdF9X4oSTyQShpNYEaI8yaZ5ymHW2hazpxatt/ufXWMvb0zaK5vitmxjzJZuNHtlg3Puc9lG9uXcK84tdX5e2ZywZZuStmJz0hauaLNH56+1lWu3YRH7uTR7KmCgL2M6v2Hbl5CX8FQofI/uIy/7Iz/RNPYkPcKGfEfpq86FEEKI/QH3I3RK0Czd2iUcFEKUKTQOTmRknJjZ2pK1rZ01lqoaZ+nKMTmXHGOp5GhLJaJujGUqxli2cqRz9RarqLJsssY6rNGaO6pte1tuls3eMOVD93FPhnowwvG3J8Z8MYS0Ap2dndbS0uIdedxfhHyQ/t5Il5sDcRJXtHxCCCHEYKDQ/V3dL0KUOX7IV9f7YHyfSdaJgUynazE6LeaUTdwZtXG3L+5kif90Lma4jCUyLTa+vs3efPp4e8NJo21EbdoSybjFE8kQG9GWTDDSEQe33nqrffvb37aHH364exwscLyjo8Puuece+/rXv+79tba27iY09jbEv3z5crvqqqvsIx/5iL3vfe+zSy65xD7+8Y/bL3/5S3vllVd8HnvKQ6GGuBRC3MuWLbP/+q//st/85je2adMmv6/UuPHPQyw+H3vsMfvud79r//jHP2z79u271LUQQggxkBTqcJGIEaKsweh1rtv4dZ+ZrBMq7jPtDNzIxPwYBq/vX0GaZC1p7TahIWNnnzDaLjyz0U6cVW9jRtZaOpXyT/a7JUyIugQwqnH0NCxZssQeeOABW7lyZdfRHBwPxjzHX3755e4em+CCIY7jeyFCPH2JAOLAz4svvmjf//737Xe/+51vVA8//HA76KCDbOPGjfbTn/7UfvCDH9hLL73UHaZQnCFNPqMu5COkBWFfcPiDrVu32gsvvGBLly7dRbxFwwa/EE2jkJ/Vq1d7obh48WIvDgP4i4aJximEEEIMFBIxQpQ1OakRnnBg1jKJHwmC45/3k80dd/LGfXXOGbNNlR125pxRds4J4y3TmrZ5CzbY+o1bLBFP+vfL5Pw7ckH7BflCECWTyR7n7YVxsl44dZUj+onjeNiXT/ATXF/MmzfPFi1aZOeee6594xvfsG9+85u+B+M//uM//IIoHH/yySe9sR/NE7AvpBOORV0oI5/R7XAsbEM0XNiHyGA7hA37Ibod4gqEMPn7IXwPx6LxCCGEEANF4oorrvhq17Zt27bNP/UcPXq0TZs2ze/TDUuI4Q2GNWKjtTNmzy3dYguX7bBMst4yXriE378zlNnG2I1lrKGi1U6c2WTnnDrZEhVmtz+63u6bt8GaW5M2qiFpR01vsClj3AEHNjDx52Iqrj0JT/vpiXnmmWd8z8ZRRx1ls2bN8vsxpvGD0b5gwQKbP3++HXrood4Pq5jQK4KQuP322+3pp5/2bVt1dbXV1NT4No2w7e3tfugXvQ84eiIQS7W1tV70QGj/gjig9+Ouu+7yK6e8+c1vtmOOOcbHQy/F+PHjfb7oMZowYYJNmjTJ9w4Rb11dnc8X4JfeI3pRiDf0qOzYscMPU2N4HGUij5WVlX4fPU3UA8PryF9VVZVfTZIhYGxPnTrVi6d7773X1qxZs0s5yDc9VOT5wQcftDvvvNOee+4539tCfQQ/9DBRVwceeKAdffTRPg7CUDeUmTD0+BCGNAkT6kcIIYTYU7jvcV/hns19cfLkyf7e2tODSIkYIcocv4KY+9+Wjtl8RMzyFssmGrxg8T9/dzzuPmPOQE8kslYXb7Fjplfb+WdOsDGjk/bgvI12x+PrbP2OasvGEjamzuyogxtsshcxoVegSwQVSVTEYJwjYjCsexIxzz77rF8a/sgjj/Si4Ve/+pVdc801XqQQ9v777/diAGExZswYLxyYQ8O8Fo49//zzXgAgfBA7U6ZM8UZ8aFBDfjD8EUykOXbsWG/wNzY2erFBIztq1Cg/vOywww7zwuEvf/mL3X333V5kjBs3zud33bp19vvf/95uvvlmHwfi4be//a09+uijXmQ89NBD3iEaGNrFHBVEBHljP3FMnz7dz4MhDMPJqKNHHnnEFi5caPfdd5//HDlypE2cONHXIUKEst52222+Tsg/5SYO2voRI0b4GwYihpsG4gwB9rOf/cxuuukmL8yoI8Js3rzZ1w/lpl5y51cIIYTYM8I9t1gRo7uPEOVOzj7PfXT9iWU7zNIt7rPdv7w/NzPG/ET+QyYl7JwzJtiEcdX20DMb7NaHVtjazRnLZlxzkuJtMzlyn7nIi5cvu0PD1dvDlCAwgtjAsMdoP/744+2LX/yiff7zn/fihh4OeiHa2tq8sX711Vd7QcDE/M985jN20UUXeQP9xhtv9MKHuDgeDHU+GxoafFxNTU3297//3S8owPwYRAlpkodjjz3WDj74YC9aEAeIBhpjBBDCCDGFyEAEBJGB8MIh1D796U/bOeec4/3Rk4Touvzyy+2d73ynzwfpIFwCGzZs8HH90z/9ky/r+eef79NEJBEnvT7/+7//64UIZfzXf/1X++QnP+lvDpQVMYeoo4cI4cXNgm0EC/l805veZF/60pd8GAQP/p944onuehdCCCEGAokYIcqcnDxxwsV/cX8zKaur6LBpY+I2rsGJklSzJRMZS8ba7cBxFXbWSZPsoGn1tvDlTXbPYyvt1S0uWLLO98L4+TJdwmVvgbHcm8EcxAtghG/ZssULA4x/JtyfdNJJdtlll9kVV1zhX5rFylv0ptB7cvHFF9t73vMee/3rX28f+MAH7LzzzvMGPSIBARONO/Q4IGIQPvRWIBauu+46P6H/a1/7mn35y1+2P/zhD148MISMXpn6+no/FIxhXggZ4iYNjiEKiBdxc+KJJ/p4ETBnnHGG772hp+dtb3ubvf3tb7c3vvGNfsgcPTnr16/3YgNHHO94xzvsrW99q5155pm+PMcdd5wXLStWrPACinwSP3Hx8rCzzjrLLr30Uh8/dUF+KSfihTKTT/JI/PQWUY+vfe1r7ROf+IR96EMf8t/xF60fIYQQYn8iESNE2ZMb6oUpGnMipMJpkaMPG2GXvXuGXXDGGJvY2GLWttImN7Xam08fYyfPabLVa1rt7kc22cvrk9YZb7JUJp7ricmGJiVq2O6ZkRuM5SgYztF9QWAgBsJQMJYe/tSnPuWHUWH0IwzonWHuCXM9EDMM2WKVMfz+9a9/9cNpGWKF4MCgh2Ckkx5GPV3bF154oX3lK1+xH/3oR164IIKYg0IPzy9+8Qs/BIvu8NmzZ9vMmTN9bwnzdJhTwjAt5pUcccQR/hPBRX4RLQxHQzwxf4a0+M6wMGAfDv+4AIICB+SV3iJ6gUiftOhNwT9D0DgWykO+DjnkEJ8neqdCfSIEEXj01BDHD3/4Q/vsZz/re5vwh8iixyj4zz83QgghxP5AIkaIMgeTNrfYriObsYQTBDFLWn2l2dknjbd3nzPdTj6kyt5wfKOdOGeUrVjbav+4e6U99/J2S2erLJ3KLSPsO2G8PRtEC5/5rjiCoY1xzyRyBAW9A4FgOOMPoxt/DKlCSLzhDW/ww8gQFkyEp2eEHoQvfOELfk4JE/FxiArmoDDn5JZbbvHCg14SJuUzLxCi6eAYbobwoZeD9OgZueCCC/zKZIglRBM9L8xPQRDRi8FcHXo1mN9C/IRlGBkuxEu+CRd6V0K64XuUEAY/OIQJLnxH0CFC8INACZPxGdrGseAvxE3d4vAfQCxRLoa20YND78+VV17p34WDeGM4GcIoGkYIIYTYn3gRoxuREGWMM2gZTOZbAfcnlcrYs8+ttL/d9IKtWdNmZ8wZb5e/8wQ796Rptn1rym5+YK09/mKzbbcR1mE1vPLSh8s6AZSTQ8ygCRBrcMUTjG2MaQx0jGwMaQxywICmx4LviBHaMIx0wjCcjF4OhncxXwWjm7kg9MbMnTvX+2eoF+Lic5/7nP34xz/2vQ30qrBcMkLk1FNP9UIgiALSwjEhnmWVCcOcFfKFIEJIIWoYxsV8GPyGHg0m+XOMIWUIJYZ2IX4QS8QdyhqF71EXJbTXfOIoD+KKbdIlT/QyUUaEEgKGeqJeyBMOP6xuRp2ykAFCkfDkhTonTfy85jWv8ctHf+9737P/83/+jx+GxiICzLchXfyRphBCCLEvCfe+KF7EFLpRCiHKhZyEyb203zUJ8RprcwLlycXb7c+3LbNFK9ptxOi4NbfH7OaH19ljCzfZjmy1dTrRksqkXAMS9++WybgmJO1cxsVRmmTZHdqjYFQzfIteijBhHwHDfoY2sY9Vuxh2hT+M9+uvv96/4Z8eE8QCw594pwtDrhgeBfhl2BhGPHNnGIKGMc/kf3pu6EUJoiDacDK0C4eYobeFPCAAcMAkeuaXEFdY4phhYsSP8c/KYaTNvJTQexJ6WigTFGqoo4S2Gn843lmDQKJe6JFiqBwCi3JRfubekAY9Qc3Nzd3LIxOG+TIMPaP+ovcAhr+xwhvijnk1iELmC9HLhTCihysIymg4IYQQYm+Qf28pdK9JXHbZZV/liRs3a25wjKHWEstClA8YwvzKWWJ5wdJttnB5u6WTI63TKm39xq326oZt7nujPbd0s9371Drb3N7gxEoNL/Z3hnfXAxAiYDuesdENMTt6elhiGSHCwagrjtD20JsRlhPGEGdoFoY6SxczqZ75K/QYMKmdXgfEC0sSE4Z2LbzRH6Mdg/7ss8/2xv5TTz3llw1mmBo9GfSSIIAQKUxiRwT4unH5CAKDVcmIk7kvTIgnLziGibFE8zXXXOMFAGmcfPLJPu+IGcQO6dMbQi8P+Q1xIYgQIiwYEJaQRgg9/vjjvjwIHtpk2mf2IVAY4kXvDu+JYXga+UfAsX3ttdf6enrd617nFzVALNH7g19EHGKH/N9www2+XKx6RtrR98Twvh3KRx0jWMg/K7YhwigrZcMh1nSPEEIIsTcI91zuVdwXeWjGgzb2c79Er0Rd4vLLL/9qCMRNUCJGiPIi6xoGaE/H7flXeNnldkvH65xIiVvakrZxR8peWrnDXlrRaRu2xS1lVWaZuCVc07CzdeCL25ftsPGNGTv6kEabMjqIGAQAPktrS0LbgxHOJHPAgMbQRtBgdDNkipdOMtGe4Vn0MjAPhSFevDuGuRsY/hjxrEyGwc4Ed3oe6N2hveM4Bj5x4+f973+/73kg3+QhfNJO0qNBg4qAQDzRC8S8GnqIECPsJy8sS4wIotElPL0WNMgIAlYZYxlm4gwii6FupMlEe0CA0UtCW8wQNYbKEQc9RIiuIGKIk3JTFpZEpiyIHXpMWK2MPHCMeBj+RX1QVnqFqDtWKzv99NO90EIA4agfVl4jXkQXYg9H3AxBO+WUU/wyzhwH3SOEEELsDaIihnsg73bjnhvuwfn3m5i78fqxCxzk6SbvJWCs+Gmnneb35QwQIcRwBUOaXpUWJ0zue3aTXXvHClu7yTUOiUoncHjvS8piWSZ+JywTq7R0lsaEgWc0Hc65RsX/i2WtKt5ip84eYe85+2A7cCxHMeKTzl//DV3aIfKIQY3QoKeD3gR6ORiaxQOXMB8m+McPPQdh3gYG/wEHHOCf6tALwz5EAfEhRoiPXg/8hNXNIL/B5MkPMK+EYVb0ihAPaYaXZJKfMLwsQK/GT37yE7/NUs/0fATCksmUBdEBNOAICsrIcDTiRpjRRnMMUcc+0scP4or84IeeJHpTEHPkC0d+X331VS/aeFhFGG4O5BUBA9QZdUF4jlF2eoSoI4QR9wKOIXKIm+PBCSGEEHsK91juNdzrGBnBiqKMDOCeVUiPeBHDTQ64YTHxVSJGiPKBnz9v7WdOy4YdMXvulXZbubbdNSYxS9NLE4u7/8zbYBlljOLcqy8RLR4XzhuzLo6GarPZB1bZIVMqrSoRXpEZemJKJ7RNfPZmMIfjYRt6M67xUyjOnvZHCX4KtY3sR3AFEBUIJIa3/fGPf/RDvC699NLueSkhjWhahI8eI85A/r5ouCjRMGzj8BvNc09xRMMWij8aX6CnfAghhBDF0i8RwwY3JYkYIcoPb5Q6I5SGgH4GTPCU+4Itzj6aAOfF403Vru1sAbsVqcMgMj4TvunA894zcMlrIYIRHTWuC/mNGtt9xVUMPaXBfsTLHXfcYX/729/80Dd6T1iiOLSt+emEcNHtqB++R49H/YdPCMcguj+faNwQjZvtaPxRovvz4xBCCCH6S1TEMG8TEcMw755EjBSKEGUOhiimKK4im7GqdMpqMx3WEMO1u+1Oq8+mrSHb6ZzbZ7iu7TxXm01ZpZNBzJfJsXeNXJ/XAi6Qv53vohQ6jiuFQuEx8HHh3TUMveKdNZdffrmfa4IfGuP8cNH4wnY+0eMQvue7QvTlJ7o/+pnvAtFtIYQQYm9S6CFaPhIxQpQ9WSc1cs4PHUskLZ6odK0DrsptVziXcPsrzNjvXYWfM7O7S+a6boJ9SxvUdzs0rIga/EyC5/0qX/rSl/zqaUymL6ZhHuxIwAghhBhoJGKEKHu6nrp3b+WUR6zrjS+7mqslqpKdkZYVQcQw4Z4FA3iBZJgr018BEOIMLkqp+4UQQoihjkSMEMKBkRsM3bBN85Bv/Eb99UW2VMkz7KDXhTG+YbK+EEIIIfYOEjFCiH1ErCTJMxxBuNAbg5OIEUIIIfYeEjFCCCGEEEKIIYVEjBBCCCGEEGJIIREjhBBCCCGEGFJIxAghhBBCCCEGDcXMI42zag6r5wyHdxcIIYQQQgghhi5oEvRJ0Cbhe77zIoaDEjFCCCGEEEKIwUTQKbuJmGQyabg4b9kWQgghhBBCiEECGoVXFQTN0q1duo4LIYQQQgghxIDDnJi+5sVIxAghhBBCCCEGBYUETKFpLxIxQgghhBBCiEFDvmgp1CsjESOEEEIIIYQYUkjECCGEEEIIIYYUEjFCCCGEEEKIIYVEjBBCCCGEEGJIIREjhBBCCCGEGFJIxAgheoHVQXpyGTk5Obm96ELbIoQQfSMRI4TogS6DIuuMi4KOY3JycnJ7yUnACCFKQCJGCBEhGBIZZ1NkLZONWSaWsGyXMzk5Obl94GhffHuTybq2J+3bICGE6I3YggULnK2Se/qxevVqmzt3rs2YMcNOO+00b8TE49I5QpQHznjofhIac1s4sw5nT6RSOWnj3zUVvAghhj67vz9u39BTu+H2064kk845c4PtGLYHxwq83E4IMXxJp9Ned6xatcquv/56O+GEE2zOnDlWWVnpX3aZ/8LL2DPPPNPdtLz66qt2++23S8QIUXbQDOREDE9DU5m4bWput9WvNtuGTZtt27btvnEJDzx2UsjIcH7yvQkhioeflfsd7kJsL/+ufBruw6uG3K59xW7Nhoedzihxf+MuD7W1NTZqRJNNmDDaxo2qtpqKWJeQ4Y8QohyIipgbbrjBjjvuODvyyCMtkUgUFjHz5s3zzQsH1qxZIxEjRFlCM8Awjpi1dpotXbXJFix62bZs3eGMizqrrqmyRDyR8+rwfTTuf66vJjQqvikhlq6t8gOTrHxLL3qj9GuDELnfVi7cvrmuQhql4ENgTOxRlgicqxP+pTpS1rxtm8UTcZs54yA7fMYEa6pJOiHj/HVnsfS8CiGGDvki5vjjj/c9Mclk0uuU/AepfjgZGxzQcDIhyhQm6jvaUnF7Ydl6e3bhUktWVttBB0yzkY0NlkgmXFvgvXi8KdGbAdPbseFKsK/Kseyib7g++nNt9Ddcsbj4S7nNY0Pk2RH9xusgF1k2k7WMy0hLa6ctX7HKNqxfbwdNG29HHjbRmmpd2+P8xWJkksoQQgxXehtOVkiPaE6MEGVP7vefzsRs2epN9sSCZRavqLZDDznIGuqqc09CHb6dcFYH49UJ05M5EdoTIcSekPuF5Qx9tvb+78oPz+j6LFYf8PsmP6X8zvOHgOyKi4cy8scJlc5Os1eWrbLVa1bZ7EOn2eyDx1tFMjfkrPd4hBBDnVLnxHiFooZBiPIl44yRdCZr21s77RUnYjpSMTtg6hRrqq+0eDblGomUJWKZnDPXwLjPeCzbs3OtSjzOZzm6ci67XG8ukSj92khwPbnbc6Fje+6IGwGBGIkund6Hc3KDcD5vxbrQNuziaEdyLubS5zObTlllRcamTp1oNXUNtmzVBtvQvMOy3kYhn8ULJyHE8KKQVnHNixBCmDXvaLXm7W02oqnJRjTWmaWdwZDNTebPZFjyNBgROdfTv9zxcqWcyy56I9dxkX8T7v0BYvil7Rt2/l5L+Rf1H3LYl9v9X/RIF24j4cRNphMhYzZ54lhraW2zDRtbLJV29eS7f7r8CiGEQyJGiDLHDyiJxa21rd06OlJWV1vplzvlCS3durkuXJoKDC45ObnSXReRzV2/RP0GB1GrvZCfoeqgwD6etLr/9PLUN9T5tmdHS7ulU2lfFdIwQogoEjFCCG8dZDIMFeF9DXH/RJReGJkNQuwNuox03x0TMdr97yts58Ox4IYroS4iddI1ZCThPuPxhGuXGPK6c78QQgQkYoQQHgyFjB/3ntv2ozf8uypkPAixd8j/LfX22wq/vfL+/XUPOOv6EEKIgESMEKLbTsqtPJRbeYwhZDvNJ1kQQoj9g293uhofOoWFEKIQEjFCCI8XLvzlvx+6kXuVpRgscDaCixLdn+9E76iuBjX+oQqfua9CCBFFIkYI0c1OWyHfcuh6LCoGmNx5CD1muW3/IcTwI/csRc2PEKIgXsSEm6EQolzJjTzfte9F7cJAQu3v6rrODsP8uleNCy//oinntaRRq2/4WH476yD8y/i/ub39hbCh7kJd7Ul8Yq/QfQqGz/UrhNg3eBGTuwkKIcodjGC1BgNPMM9zLlh17syw0IL76s9Rd7uNkMm147mzF3UQwg9NQu5zdYFzEsYVrasq9phc3UWFjBhQui9bzq4T7jotQogeiLOsalhaVQhRbgTTMGIQdu+S9TAQhPPQXftug32IlEQ84b7mdmTTGUulUpZJpy3VyWfGG+PeIA+RdLPbjr0M8ee7KL0d65tdQ1ADLDqR640qjWj61KMzknkFiW6Bgw93bvt3tQghhhuMGAt6JeriaXcDDI4dQohyAiMwZwh2m4Pdu2Q+7G/ya9wPEnM7+czSaKc72bJEwpnwCU6Ta8RjGausSFgcT5mUM8pTbn/WYt3DhHee457B756c75BG1EXp7VhfRPNGWFdQVgJ3oi3rXyBSSr5D+l0D71xUiUTc193O+hKDiVKvFiHE8CD6kCqIlqhmwcWTyaRrxLkB0pBzFxRCCDFQ7DSlc4a23+Eab8RJqrPVli970f7y59/Z17767/bl/98XnftX+9a3/v92x9ybbMP61ZZOtXm/sOvwMujLUO+vIR9Np1B6+fuLZ9fYclvcqWL+nUbE7ySb+9w57K5QGXbu88LHBU11dtqiBfPt+r9da48+8oDt2NHsl/NFLAohhBhYovP1g0ZBs0RdHKXDgdK75YUQQux9dhrk3jj3bx4129a82W677R/23W9/3X7zi5/Yg3febE89fJ898dA9dtfN19uPf/g9++53vmkPPXiftbW1ENjb+MQUHFGlGYbmXBph5G8SON93413G7cs4jxzy/p2/VIqnXhl/DN/RWMMWx4g3lco6v26fn8yw877i4wu6w3/HX+7pWiDnpyuerjySB3/MH8d/2latWmF33Xm7Pf74Y9a8bZvPRbjhhTLkyuny7eMIQ5M4lstrZ6rDnnzyMfv9b/7H7pp7o23ZvMn74JgQQojBQ1SrRJ3veomqHSGEEIMD2mYa6tbWVnvg/vvsumv+bCteWWIzD59t73jvP9tlV3zGPnT5p+yCt7/Xph54oD0//1m77n+vtQULFhC4S0IQh4/Mf6PnvSKZsAQ97/hxu+mx4R946RHvEh/uODeOioqkJV243IsH+eN8+3DOuT+IC0i6eCsqcsOzskw2iYA/nw8XKtxz8E9+Aj4e54f9uDhj5pxf79+53JCClL285EX76zV/sHvvmmvbtzf7OkLs8Yk/shhPuHzzpM5lxsfr9vvkff67PryAyn3nb/AhhBBicFFIq3gR4xt+IYQQAwotcdeUdScSuox9Z4AvfH6+3XHbjbZp4zo77fQz7PLLP24f+ODl9o53vs/e9d5L7COXfcze//5LnbiZZS8uftEeeeQh27p1oxMjzBvx3SJehFQ6wz7d2WbtLdvdZ7sXM+z3Br5z3BDiTsAwzybuwlYkXR7Sndba0myd7S0ufMwq/MIBLqf+0+XUZbGSeNzXzrYd1tKy1aXZZtWVCKUu2ZBTCF7cxF2ApMsHxzo6Wpxry6Xv7kPVlRVWEc9aysXT0bLN5bHVx13lXMJFEHd14UpgsUyHEyDt/jPp8pp0YeMIGXe8wmWkqiJmmVSbtbk4Mql2q3F5qXBpkpsg15hP5CJxaWe6votBRbho+BBClD2FtEriiiuu+GrXtm3bts2WLFlio0ePtmnTpvl9EjhCDH+wEzZu2WGvbthmjY31NqKp3hsR/P7VBuwvcv0AMYQBW04ooBNaW7fbA/fdaY88dJ9NP2i6Ey7vtdmzj3KmfNKZ4M605xzFEzZx4gRLJJP2imvD6UmZdeRsGzNmlGU6nWhwx1tc+/7cs884MXSzPXj/XbbkxResva3dausarKKiwouATidsXli0wBYsmG/pdJutW7fa7rn7Drv7zrm2wIXFf1NjoyWcfz9EC+HjRMCWjRvsyScetbm33eTyeretXP6KK0HGGhsaLFlRSalsx45t9vRTj9vSJS968fTCi8/bbbfeYs3NzTZ+3HgvbFavXGaPPXK/zf3H9Xb/PS6PL73owm23+to6q66udum32Isuf4898oAtWbzY0ilXA65stTX1Vt/QaJUVST/s7pmnH7e775hrD9x7ty1e9IITYB0uL41WVVXle3Nczl35Ou25+fNs0cIFNmnSFJtzzHHW2DQiVybUlhgQ0C7Uf3tn2l5dt8Ea62pt4jh3bp2Ado2R2iMhhjG0v/zG0SMvvPCCTZ482caPH+977Av99iVihBASMYOE3HCtXH17Y9oZ9suXLbU7595kmzZtsDeec76dctqZTkTUuPOS9EZdp5/3kfLDwzDUJ06eagcferhNnTrdqiurvcG+euUr9tdr/2J/+dPv7bGHH7AXFj5nzz7zlBMVT9oGJ0BGjRplI53b1rzVbr35H3bjDX+1Rc/Pt7tun2t3336LvbToOSdunrcF859zBmbSpk47wCqqKi2TTnlR8ec//c7++r/X2DNOpLz8wkKbP+9pmzfvGR/fqLGjbcSIEbZhw1r769V/sDtdfC8sfsHuuu02e/SRh126o23WrFn2ogv3y5//zP7x9+ucEFtsa9assmddHI88/JCtWrnaJk6a6Mt43XX/a7c7IdbWssM2bthgi5xIGTl6jB0yY4atXLncrr36j/aXP//BlfN+J2Ced0LlWXvKlXPN6pUuH03W5IRKzNUrw9Kef55yLXA3yil21DEnWENDk0TMACMRI0T5UqqIUUsthBCDEIZGMfRq7dpVttoZ9KPHjrODDp1ptY1N/ngykbXaypiNGVFto0fWW2NTnR188IF2/gXn2bnnvtHGjBnj4ohbW2ur3XfvXTb3thustqbC3vXe99knP/cv9t73v99GjR7pBMFNdvddd9j2Hc3uhpC1VEebbV6/zs+vGTFylL3/0svsQx/9pJ1w0qm2Y8cWe/LJh23lquVOUGRt65YNNteJknvvv8cmT5li7//AR+xTn/+SnXve26yzvc1uuekGe/Lxx9x2q4u33dKpDluzaoU9/tCDVllVbW+64K12/PEnOkGRtvvuv9eeW7DA5hxzvF328U/b5/7l3+2SSz9k4ydMtMefeMSedqKLHqDXve4se+PZ57q8jXTC5VB757vfY8cedxw5t4ceut/uvvM2a3KG7zvf9X775Gf+zd71noutrq7K7rjjZrv/gXtt2/ZtTtjlbobJRNL3UiVdvAnGw8k+FkKIIYN6YoQQ6okZFOxa1xnmasTjvgfkqccetrr6Rjv2xFNswsRJTgykraoiaUtfetFuvOF6u/vuO+3xxx6yRx99yB568AGbN+85S2djNnbcGFu+7GW79abrfc/De953ib3lorfZYbPm2NFHH+va+lF+oYDNmzbY9OkzrKmpyRbMf8aWLH7RZh9xpH3wQx+1s95wrh111DE2afIkHxc9N4cdPsumTp1i999/txNB/7DpB0yzD334cieezrfZs450wuQEiycqbNHzzzshlrRZsw43lkR+8sknbfXaNXbK6afbpc7/Wa9/o+/VYUjZ4088bvV1DfZel8cznFCZetBBNsvlYUfLdlvsysmQM/J0qBNylGXxC8/bQQcfbG992ztt+iHT7el5T9nN1/+v0YmCmHrHW9/t/M+x45zA4Z62fNkS27J1qx1y6OE2zsWVTqds1Yrl9oKL54ADDnJC6ESrrqlzcasnZiBRT4wQ5Yt6YoQQYojiFyyO8Tdj2fDJxHy3lUzG/fAyL3ackcd8/FWrVzgRcZvddOP1dsvNN/mhYDc5Q/7Gv//FFi181s8nWfzSy7Zy9So70BnqUyZPtfUbN9nLryy3dRs2WW19vTU0NdqG9a/aqy4u42Wa7iZSWV3rjPqTbfrBh1lre8Y6XBaaRo6xxpFjraWl1To7O63Nfb6y9BUnDLbbuImT/XyTVauW25IlL9mmjRtt0sQJNn7saFu1fKmtf3WNJZnk74RDkxPJc5yAOuTgQ1wYhsXFnaiYYB+77KP2hc9/ziZNmGArV65y8Sy1Z55+yguqttYdXriw1HNrS4e1t3a4qLL+e1tHu7W0ttjy5a+4cqyzcWPGWkN9rSvfGpe/Jfbq2rVOnDXaqBEjbPWqFX555nSK4XdJq62tsarKSqt0ea+orPD1HMuN6RNCCDHIkYgRQohBBNKFyfrAZPtKZ1zzFCrlDG9EAA+k8dXhjHhExvs/8EG74orP2BUf/7S9693vswMOPMQJhgr/Fv90qt3WrV1lWzZtsgULnrP/+elP7Lvf+qb96Iffs29/5+v286uudCJnsbW2tjkh0GZpHoO7+Gtqa62+sdHiFc6wd4Ip628VvGiswuWN71kXpsW2b9/hXxr51JNP2I//+4f23e9+y37g4v76N75qv/v9r22FEwyt7a1OTLX5hQBiTngx72T0qNFOkCXcPieaLG0VLq8d7W32+CMP2S+v+pn94Hvftu9842v2/e980x576H7LdHY4fxQ8xhuafVi++l4TF2mHO7516xZr72izpUtftt/8+pf27W993X7wg+/Zt779dbvyyv+xF5cstvb2Dpfn7daZ6vSrstXW1TshVZ1bipk4u9IQQggx+JGIEUKIQUUwop3R7wz/Jmf0NzY2WfOWLbZuzRrraGvzBnjGiYnxk6fa685+k735/LfauW96i5188mlOIIy0WCztlySOZdPW1rbDOtOdVlVdbU0jmvyKZcyFYbL9hEmT7JjjT7YzGNZ10HSXZMwJGb/wcLeQyuHy4m4XrILmyWT8yyQRHulM2uob6l2co22ES3vUmNHOjbGp06bZ8SedYief+hobM268i5OhQLm3LjPULM7Sa14zxezll5fYr3/1S/v5lT+1Z5553C8FPXPGwXbO2Wfbccce54WG11dOsLhS+aFy9JcQln2swNZB70xnxmqqa/x8mZEuDyPGjHWf41w9TbFjTjzFXnv2G+3AAw/y5WAeTHV1rROITsRU1bhPJ9CI1MUphBBi8CMRI4QQgwwvGZyRz9vlJzmhcsBBM2zdug32xKMP24ZX1/j5JZ0dndaRTlurEzXtHR2+p2b1qjW2dt2rPg56S5LJpI0aNdrqamtt1hGz7NIPf9g++anP2Kc++Vn3+Wm77GMftwve+nY76dQzbPKUAy2erPSigFtDTiB4yeDywvwcv8f9y+WvuqrKamtq3We1HXvcCfaRyz5un/7MF+yKT37OPvmZf7EPffijdt6bL7QTTz7Vxo6b4IUDIsapIxe6q3cnyy0oZs8/95zNn/ekTZ461f750svsU5/5rH3oI5f7SfnM30l60UMvjAvn8pSOvkjT1VFlZY3V1TdZRUWVzZgxwy6+5AP2iU993uXls3bFpz5rH7n8CjvvgrfZKae8xs9/oV6oH8TOjMNn28SpB3gRA7toNyGEEANC/hwY5svkIxEjhBCDDoZJxfwSxvSYHHzwDPfZaEsWL7J5Tz5u6Y42q62u8CuEVVVVODFRaS+/tNjuuecuW7NmjQ/PXJpKZ9RPm3aQFxHrN6z3k+QbGhusvr7ORo8aYxs3brSr/3K1XXP11bZs2SvcJVxYbgs5ccGLIIkr5xxewcQtlc444VBto0aPsYTL5/q1ayyd6rSGhkYnJupt5IiRtnTpK/b7P/zObrvtNtvavMkFS/vFCnKRdKXhhE1HZ6e1tLS4OLM2ddp0O+rYY2zCxPEurjrbsGmjvfTyUutwgg1pxbAy+mB4mz/RMMyOnp3amhobN3ac1dfV2iYXhjk7TY0j3f46a3L1t3HTJrvur3+1vzq31olAhuilXXpjxo63c89jMYIjfBF9zrpe0CmEEGLgyBctBSf28+IvXEArfwghxEASGm4nRNxmVXWtHXf88XbEEUfZ2rXr7K/X/a/98pdX+pdfrlq21BbMe8qu+fMf7Gc//bE98sD91rZ9uxdAtOS8V2XatANt4uQDbeHCxd6QX/T8c37J46effMyuu+Yae/6Zx21MY41NmTjOkgz1ciGZ9O57TXwsXY7/TnQkkhUWSyStprbOjjnmGCewpvt3sdzyjxv9JH7etP/gfXc7YfQnW/j8Ahs1sslGNo30Y9QQPC5z7n/CRefid+VjiWO6P7KZTlv36ipbsXy5f+nmy0tfsquv+bOfb8O8mw63L51ud+FSLjwriCVs9epVtmjRAtuydZPNmn24HTzzMHth8RL7+9+us4ULnrZUx3ZbOO9p+9s1V9szjz1ioxj25gQW6XZ0dNhTT7m6c3Vwv6u3rc1bXTlz82yEEEIMLOiRoEkQNEGvRF3iwx/+8FcZhoBjmUuWWOb9AlpiWYjyAbNNSywPMny9x1xDnfW9CZMmTbQdTqAsWvScFw2PPvaYPXD/A3b3XXfao07QbN600U477XSbesCBfinhww6bZYfOnG319SN9DwnDzHjp4xOPP2733nuv3XnH7fbiokV2yCEz7a1vf6cdftjh1tbaZvPnz7flK1ba7COPtEMOnumHtDHpvWXHDnvSGf2rV6+2Y4491g48aLqNHj3WqmqrbfGihV5sPProYy4/d9ldd97hXzxJfi5669ttwoSJtmXzZi+cmrftsKOOPtGmTp2GTPOrrtGzsuyVZa5cC+yZec/4/N18002+V2nipEm+1+SFFxdbS1ubX9WM1cQWPDff5j+7wPfUNDY2+uWXmZOzYvkye+KJJ+wxV8577rnb7phLORfYzJkz7aK3vcMOOvBgV7VxJ5RSdt9999k9c2+0utoam3XkHFdPDf7GqCWWBw6Eu5ZYFqI8iS6xvHDhQr+8cu6dZzkRg1ZJ84LnLpf41Kc+9VW65BkjvMPdpJYuXar3xAhRNiBfMCVjO0VMgxMxTshwiJ+/2oD9D2cFAeM/Xf0jJEaOGOUM9SP8e1VqnLFdU1NrVdU1fs7L7NlznBB5h1140Vtt2gEHWVPTKC9OJkyc7A3C8ePH2qEzZvr3wKRSGd8bMm7seDvjNWfa29/5bpt5+GyLxZNud9zS7jhzRQ6fNdsvfcwEf97ST1463Q2EG8rs2Ue4z7H+upk0eYpNd3FX1dQ5YZCxpPN74AEH2FvecqGdd8GFfvnlWIz5Js4w7XDhXZyHz57th7Nx76G0I0Y22ZSpk3yZ6EWqcKLm4EMOsXe5vL3pTefZCFf2rCWcn2k2Y+ZhfqGA6toG5+ps7NhxdpjLK0Pmxrr9bDeNHOHLGYslbez4cXbGma+3i5xQO3Tm4ZasqHS55sI2S6VTVlPXaIfNPtKmHzzDKiurqHEXTiJmoNhVxGx0IqZGIkaIMiEqYhYvXuzfEzNp0iS/hD86Jer8u2MWLFiQu186Vq1aZXPnzvUTI0877TQfmZ5ICTG88U843OcLr6yzeQtX2ZTJE+yAqeMtm077xkRGw/6E5hhRyT/ommDPd7rOnfhgOkhnJ+9Jyb3rhKFdDBsDehcIlxMHji6DMHdjYJ5N3J3rjKWZm+JOK/G5aF3cGIguHhcgTAnhmki7/dmu71wH+M9m026/S8cdwOAk7WQil0aGa8Z9Jvz7bLJ+nkvWxcvyyvF41iqcI2G/Ahr7XJy8/yWT6XQ3JVdW4kilLeEK6Vdg47vLiB/hFQ8rk6X9Po7H3XHCZGMJHydzeGIxelJy9Uce/YpoiDMXjjpkKFvWR+jy6efWkAb+3T9fWN3zBo6su7a4fhLWvKPD5s1faJPHjbZjZ0+x+kp3btz1p/ZIiOELvSvcs9AjN9xwg51wwgk2Z84cL2IK4Vtrbj44IYTYidqEgQNDDYONs0D7zD6Mep5QszqXM8yTrlFPVHox0O4s+PaUM8Yx0J2w6XTiIydAnEhwIdEone54hxMIfr8Ln0rHrK0jY51pjrNamLuBuD+d7ibS1tnpBREGfrgMuEcwCb/DiSfS5PbBSmYsd9zWmXHHiDsnTjpT7rtLz92OXPrOrxcrOX/tPg8Ih9yY5lw5eacNNzDynPRhW9vT7tP8Ni/bpAOJcNQDL5zpdOl1uJ2dLtPkmSO8w4bykXUcYTpcmq3tnZZy8RAWIUS94Dqcp452hifwUlF32Ne7GCxw7ftrsOubEKJ8CPcI/4Cs6zMfL2L0ZEOIcscZdf4D487vEAMClU/PC9Pe3bY7Kb4vxp0XZ597o46ljuOJpDtPGOR4z/U08DZ/5q7Qu0FPSIzeEbeN3Y/hzksiQ28GLuG2WbqYT9LzifHh4vCT953/XPz8zTmekOGf9HyenP/cJHv36f7EnMt654SGi4fvfplmv0Sz80e+8OwCsgoY11pODzm/lMl94ljq2WXCHUOs5YYNQO5elfUv/KTnxpcz6fzz6dMhDerHlcHXRW6+TUVF0ueP8vkyAXnAj4vfv//G+fUexOCA68tvdJ8xIUQZ4e8pvs3PUUir0GoLIcoc/8QzD5oLmXQDQah5jLhwBnIiIteI02vijH4nYrzhzT6/f6cQha4QXsjwmetoyPnNzfkIRnvO/86rIOc/9y3fwa5h2Pb57Io79HIQR46dYXPxsj/r8kMKufC5/BHOiRjndm7v7MkJN7BcnXTF59PhW0gjF19wQfRAbhvnv/jtXF6iTgwucufOf/rTE74LIYY7xYwQk4gRosyhmQjOk3XGn/8io27wEIzs3FkKpns+0TMWQkTdrmc6P3yXD3/jwLzPD507vith3864dve981t0K/zLfQtup8yJbueI5jc/3M6t3Qn78stb2LcYTIQz5D53P31CiDJHIkaIsiZqNObgIbU3Y4t4CiL2N+Es9Zfome6J/pz3Pc1XT0TjzU+j1DT3VR7FPsFfhu6chdPmP3UOhRA7kYgRoszBLAgOvHZBycQYtiQhU37IUBSDga5BgmGSnpoiIUQeEjFClDU5+cLKt1UVTKDOvcsjxQpWfq3dYNB6c0JOTk5uH7rQIuWWC091duaW0u5alEEIIaLsJmKY/BgmUAohygBnO/CLr6+tseqqCtu0dZu1tLO8LgPNmFbtnPPgnfMnJycntzcc+FXlXEvDp3/Pj9vHQ5T1Gzb5/SNHVFllpdsKAYQQogsvYjT2XQjRUF9j40Y3Wmtri726YbOlM6x+lXtRIa/zSKedpHFNhZycXOkOU73Q/nJ2mB4MF8u1MXH36dqceNK2bN1ha19dbxPGjbKJo5ssjrhxfvR8VQgRxb+xP4iY1atX2+233+7f2H/qqad6ceO7cYUQwxgsCRa8jdmG5g57fMFy27Bxhx144DSbNG6kVVfm2gCMDtEz3r7iD9XJthARui4NESFYF9QLPS28LHXT5m328tJlrsHptOPmHGQHTBjh/KVd/TkPfmlwIcRwJfrG/uuvv777jf2VlZUF9YhEjBBlD1Z3rg3gDetrN7baM07IrF2/2UaNanJuhNXW1vqx6eFRaO6v2B2ZqqIH+O10/c7KHWphZxsSc4aLWWt7u21p3mbr1r9qNRUJO2rWdJs+eYRVJhlqFvzvDCWEGH6ULGKeffZZL2KYB7N27VqbO3euFzGnnXaaRIwQZQLrAGEeZDIxSzkLY3Nzuy1ZtsFWrHnVdrS0+Qn/vN08q+6YHoiaZbuaaEKInnC/FVZBdB+pVMqSFUkbO260HXLARJs4ssZqKrOW8AuM6BclRDkQFTE33HCDHX/88V7EJJz9UWi+fmz+/PlexMCaNWu6e2IkYoQoD3K/fowEt8WYDgdvd293f7a1mW1pbrPmrc3W2dnpPLnjXe2FEKJ4+NXIEN9JaEW8neEMlMb6Whsxot4a6hJWlTSrYL9ribJ+qfedrzMVQgxfehIxyWTSi5h8IbPbcLI77rjDi5hTTjlFIkaIsgIR4/67RoImwbcKaJbcEY+MCCHEnhLak0BUoND2sFBZnFXLnMv1EeeOqv0RYnhT6nCy3fZkMhnvhBBlSJeVwMOOhDMgeH9M3DUHCfeZdPsTcnJycnvoaEtwFXw61ZLMpl0bk3N+O8ay7kgdemAkYIQQhekWMXo3jBDlDm1AdNgGXbe0DTwVDUfl5OTk9o4Db3vEnLQJLs4npgku5yv4FUKUL2HUWJRuEVPooBBC7G5A0FbIycnJ7S0nhBC9U6izZbfhZEIIsQu7tRvskJOTk9tbTgghSkciRgghhBBCCDGkkIgRQgghhBBCDCkkYoQQQgghhBBDCokYIYQQQgghxJBCIkYIIYQQQggxpJCIEUIIIYQQQgxaenxPDGsv62WXQgghhBBCiMFGwffEZDIZS6fTetmlEEIIIYQQYlCBRgl6Jeq8iMF1dnb6HaBeGSGEEEIIIcRAgBZBvAQBU8jFE4mEJZNJq6ioMLYlYIQQQgghhBADBeIFTYKLx+PeoVeiLh48BPESVI8QQgghhBBCDCRRrRJ1fmK/hIsQQgghhBBiMIJoyad7dTIhhBBCCCGEGGwU6mzp7okRQgghhBBCiMFGjz0xQgghhBBCCDFUkIgRQgghhBBCDCkkYoQQQgghhBBDCokYIYQQQgghxJBCIkYIIYQQQggxpPAiRkssCyGEEEIIIYYKXsRoiWUhhBBCCCHEUCEe3tYvISOEEEIIIYQYbBTSKfFMJmM4iRghhBBCCCHEQBOd6hK0SiqV2sVpYr8QQgghhBBiUIOwibp4IpEwXDwuPSOEEEIIIYQYWKIjxNAoQa9EXbdyiXbbCCGEEEIIIcRgpVvEaE6MEEIIIYQQYrBRcGJ/16cQQgghhBBCDDoKjRiTiBFCCCGEEEIMKSRihBA9wpKG6XS6qGXYg9/BNDSVvISlGQs5DaMtHeptsJ1nIYQQ5YdEjBCiR8KKIHTjYrT2ZLiyP+p3sOCXYHT56skBBrmM8uKh3gbbeRZCCFF+SMQIIXYDg76trc1efvlle/zxx23p0qXW2dnZfSzAU3leOLV161Z74YUX7JlnnrG1a9d2+xloYfDqq6/a008/bU899ZTP27x58+zZZ5/1bvHixbZlyxbvD4NcPTPFsWrVKn9NrFixQuJPCCHEgJG44oorvtq1bdu2bbMlS5bY6NGjbdq0aX6fnrYJUV5gzAMi5oEHHrDf/OY3Nn/+fBszZoxNnjzZH4sa/a2trXbnnXfaz3/+c1u0aJFNmTLFu+BvICBfGNj33HOPXXXVVXb77bfb3Xff7fOJu+uuu/yxRx991IuuESNG+HYvoHavZ6jHv/zlL1ZRUWHTp0+3ZDLp61t1JoQQYk8I9xL0CA9GsTnGjx/fY++/74nRzUcIEaA9oCGpra21Qw891BoaGuyhhx6yO+64w9avX+/9IBCCiKGXZu7cuV7o1NfX29SpU/2xMEwr6rcQve0vdCzs47OneMOxjRs32ksvveR7ZPjOUCjKh9u8ebMXMT/72c/sV7/6lS1btsz7wQVCPKEMvYHfUN5CeQpE/RFn1C/bPYXtbX/+Mb6HfPeUn/xwIUy+X75H89vc3Ox7Y6i/vupECCGE2FdoOJkQYheCkY9DxLzxjW+0UaNG2RNPPOGHZQWjluObNm3yvRoM1Tr66KPtbW97m02cONHHwxN6np7ggniIEozl/P2BkAeIGtZhH5+F4oUQlrQrKyvtjDPOsB/84Af2hz/8wQsW3K9//Wv7zGc+YxMmTLD777/f99AwZI5wwTgPaYQy9EZID8d2lPz8B3/5+Wc7P2ygt/3RY6TF95Dv/CfC4YoAAEblSURBVPxwPPiJ7g9h8mF/NB78BAfRsgkhhBD7Cz+cLNyE6L7hqSrDKniaCtGbnBCiPOB3T7uAoTpy5EjfNtBrwdP3gw46yMaNG2cdHR1+31//+lfv/x3veIe95jWv8dsMMVuwYIEXBoifdevWeTFRU1Pj4yduhBDzKlauXOmHJlVXV3eLB8LTFjHUi/1VVVV+/gr7duzY4dOg54f5LoRtamrqNqZDm8V3/DB/45BDDrFTTz3VizHiw9FrxPfly5f7+TEHHnigHXnkkT4t5vnQ40AZEDiIN3qhEGaEJQ1cKAf1wjybe++916fZ0tLiy0qZQ74oG3lnyB1xkndEYCg7/kiDMobwCAfCsZ8eJfJE/sIQru3bt9srr7zi0w/+yc+aNWt8GgyZe/HFF629vd33rJFWyDtpEyfnlvO8cOFCnyfip/eN80tPFuViP3kgn8T33HPP2cyZM319ReMUQggh+gv3Ne4lxQ4n63FOjESMEOUNv30aFIx9jFeMZYzeuro6b8CuXr3arrnmGm/Qnn766XbhhRd6UcBiAPR4XHnllXbbbbf5oWgY1Bj3QE8NBjcG+Z///Gf729/+5ufg0VhhsJMuaf3P//yPD4cAoU167LHH/PwWJudjcP/2t7/14oK2Cj9A2NBmkXfSREQhUI4//nhvnEdBLBAHhjllOvbYY71AIAy9Nb///e99GZgbhMOYJ4/M+cHYZxuh84tf/MJ++ctfetGGP8qMOEMAMpeIPDEE609/+pMvwy233OLLhnv++ed9XPQIUcaf/OQnXlhRJvLL3CSG6/3oRz/y5aGuaNThySeftJ/+9Kd+KBz+aeiZs0Ldc26I/8EHH/T5QdiQHxz+EDjESZm4WTDPhfQPPvhgmzRpkg/HUDvOJXWAQEPsITwRNIcffrgXMQi1aL0LIYQQ/aE3EQP595k4T9sYQsGTRwJzU+ZTCCGCcTp79mw/rAwD/5FHHvGGP8Yvjsnd55xzjjeuN2zYYNdff71dffXV3u8FF1xgF198sR133HG+h4FFAjCeMcxpd+hxYWUzeiiAtgdHu0TvASIDP7RLNGr0zBD+hhtu8PlCdNArxPHeoAGMDoMibzh6I8gzx+mpwCBHbFAGhskhnt7znvfYhz/8YZ8WZUB0ISZIn7k2fGe+EOX/53/+Z/unf/onL3LCBHjEDOW79dZbfa8VgoVeK/wec8wxvqH+4x//6MUQgoc8IKoIB/RA8R1hg7gjD2F+CqIChyikN4p8ERfC6IgjjrD3vve9/hwghm688UZ/jHgIS71Tds7nTTfd5M8JooT6RCQiuB5++GEbO3asnXnmmTZr1iyfD/aF89VXvQshhBD9gXtssAmwF3DYBlGX+NjHPuZ7YvDM0AR6YriRanUyIQTQgGDwYyhj4NMTQi8MhjJtxvnnn2+vf/3rfW8Nc2Mw6um9+eAHP2jve9/77JRTTrETTjjBtyX0HCBMmGtDfGGo2YknnujFEGkhMjCuOUYjxTF6BjDgiR8xw7C1j3/843b22Wf7JzUY/giR0F4RD4Y+Rj3DyRjyhHigNwJDHCOdnoZ//OMfvjz05px77rk+X6SDUOLpzyc+8Ql7y1ve4vMwZ84cP7yKNvKwww7zwg4RhwBobGy0yy67zIuTk08+2cdDHVFfYQWvm2++2YseRN0HPvAB7484Qw84PSn0bpA/hA09IggHtukJofeDch1wwAFeoBAXaSPsEJHU0d///ncvMDkf5J39DKMjD+QlPNkif/Sq4Zd6oj4/8pGPeP+IIQQXPUonnXSSuXuEvf3tb7ezzjrLlxMRxc2EOVDUAfVKveteIYQQYk/gHse9JPTEcF/jXoxdwH6OA9/9Jzd3HDdZdkYNASFEeUNbEBoLHmy86U1v8r0MGL80MBjdTJrH8KXHhKf8GPr0vDDEjP0YuTREGNMY6hwPBnlokHoj6o/8YMC/853v9GnQS4BgCl3NUQhDTwGOIW///d//bV//+tftO9/5jncMw8JQp5eCoXDkj3aQciLAEAGIiNB4hnrA6Kfnmnj55Du9GogPhAVQzk9+8pP26U9/2guGUAZ6lxAs1BNhGVpHj8y//du/+Z4eRAL1S5wMy2OuC34RX4gP8opooYGnDhF79JzgEF+IM+JAIJEHxB09TNTVaaed5tNEtBFHqB+G2iFEESzcLIiXeDhvnEPECueRYWiII4blhbooVO9CCCHEnsI9insvjntzeBiJY5v7m78T4SEQAgghBIQ2gQbjqKOO8k/tMYwx9s877zxvLNPYMMSIIVA0NuxjKBZGMmE5jsFOLwJiB78YwsEYLobQLjF3JMzZI37iLkTIN2mQNkY8RvhrX/ta3+vyrne9ywuVr3zlK17EIIaIC0GA4Y7Bf91119n3v/99LzL+5V/+xQ8xY3+In3LSm8KQL4bK4e8///M/fQ8PvRUIE0QCeabuqDeGqv37v/+7fetb3/LzVhAU9GhQN+SBzyBW6M0JwgghQu8MYoU5MAgZ5hUhksgH3+kZQ9jhEEKUhzqi0We+EucQ4YM4CrAfgYJ/8kwcOPJCrzxChWOUl3gpD71oPdW7EEIIsS8J9x9vQURvRmzr5iSEiIIQoF3A4MWQxsCld4Vt9mPYY/hG55dAEBI4DGgcBnEQAvngD/LboajYiYqf4B/y262QLn4RCR/96Ee9yPjiF7/oBQm9JJdeeqkf7oZoCIKLXg8m6ePn//2//+eFC70hCIEwKR5Ij94RhocxD4a6YMgW84EQKITnBaCEJf43v/nNfhgZ82AQcQwv++53v2uf/exnvfCh94M8ILgQPYgS4gu9LYgYPtkXenMYmkfPDYIRAUK90mtCb0woe6gr8s128BdgX7RHhSF8+KG8nC/AT6hP9iNUhRBCiIGAexEU/xhUCCG6CCIDFwxc5sSwchlGMJPEAaMc0YJjEj1DlfAXRA6EeCD0rBCeHpu+COH4DI1alO6GriuPfIZuaRz7SDMIGNJFtNCTgjBg3g1Dz374wx/a1772NT90DoOf9IgL6BXCH34QI/SysAgC9UBPDvEhNhBA9P5873vf8707X/7yl/1cE/bffvvtfsUyhqWxhDWCCBHD/BN6TRA1CDEcAoX5LCx9jJgMc27CsGAEEo48hvqh/qlPxAnhEVWB/HojDsoYxAwQT6inEI8QQggxkEjECCFKIoiB8Bm2R4wY4YeYYehiZGOQc4zvfNJzEJZoDkY04TDw8UvvAN8xmBE7TPgPBGMc8IOLUuh72MdnyCcuGOlRF4x0emGYrI8IYCL7u9/9bj8kjB4XDHeGdiEIiINPljD+6le/6lf+QlCwgAErgvESTcIThp4UVh5D4PCCTfaxChgvBv3CF77gVz+j94ThYwxLC8KE+mDVM3poEDrUL71f+OX9PMRJvhBRlAFhyDAv4glD0MgjZaN+GYLGNgKJYWGhXqKwjzhwDFXjPBAHEJbhgsz9QcgQNnpehBBCiP2JRIwQomSCQAggAOhhCXNhWIaXFa4wnoFlgFlymF4F3sfCvA96DjCWMdwxylkogCFpvNOEnhAMcYzkYCiTZn66+d/z4TjGdjH+gDxRDr6TLxYhYDI+AoyeEno/KGvoicDQZ8U18hvED8foxUCckXdEByKDXhXiYEljykm8YRlpwiBeEHiAWKHHBOFBeohDjjGcjGMII+qWemQf0IPDQgTUMaur8VJNhBB55B0vpIt4Yb4Pgogykq9Q9iDyiJMeH8rAOWOVOPJIXbBKGt+BcBIxQgghBgr/sstwE2P4AiviYISEibPhmBCivAkGK70piBTaCVbB4pNjGMCIANoRjH16CngxItu814UXKWJoswwxQoYw+MXYZrlmhA6rnjFXhHkfzMfAcGc1LOZ90DZhQGO0ky49DyHdQu0Ux0gbgcRkdHpJQg8QYQpBnPQy0PuBqArLErNsNGIFgYNBjwhBENATgnFPvqkXeipYCY2ljxENlJe5MPSsMJyOJaJDvVBeRAG9LaTL+1xYeS3kjfjo9UAYshABZQDqgTpDzLCwAivEIXQoG/NVmPgfVo/DLwIGkYXoecMb3uDf+YJf4qA+6eVhCWkm8VNn1DnlpOwsT01+EXEIGpalpuzUN3llUQPOE991rxBCCLEncA/iXoJtwD2Me2x42WWhe8xub+znpsfkXZ78gW5MQgigcQGMdgxcGhcmqdPTEIxYjGPaDoxyegvCO094qk8PAMOzEBOIHRxCgB4I2p6wZDA9AcwpobeAeFj6F+FCDwNDzDhOXBjaENLOBzHA8DDEA4Y+Rnfo6cgPw3YQRGHyPvlBENAmkhYigyWH6W0hH+SdvPHAB+GDgEGMIWLwQx4ZKhbqiIaYdMgTAoZ32BAP9cXcGFZNo7xADxVxIhioL1ZWYx8ihX30UiEEmaNDex0a/tBTQ33Ti4MY41zhB8HDO284DpxHVj8L9RnOI+A/xMPwNAQVPVPkBcc54105rIzGeSRcCCuEEEL0h1JFTGzBggXeMiEgNzQmmPLkj5tmuKkLIQTtAWCgIwx4Ao+xixEbGp7gh94KRABP/9mHX8QBhj/zSSA0SBjrGNQMe2If/hBDfGc4FD0EGO/EyT7iQuDQqEGhhi2Af/KKeCFe0g557Y0gqhAMQHrkHRAe5Jmy44gLgYV/hoeF8nIsLFHMPtpS8kN4ysJcE+ou+AtiAOhZIQ/UHwIKP+Sd4+ynTCEsdQOhXHxyPOQHKD+LAyA+QhrEgzAhPOUL6RMeyAPnhXgY7kaZuJngj3IQF0PedI8QQgixN+C+yD2Fh2+8joCHZqHHv9C9RiJGCFEUwUjuiXA8GMH5ftkfbVOCv+i+QH4cfI/Gl/99b1Mo/vw8QdgHhfKDEGA/Dr+4Qm1qNO5C6fRGNA/A95BmFPICYX+h+ENYPvFPXqP+ouWB4F8IIYTYU0oVMVIoQoii6MtYDcejRm4U9oVGKGpoF2qY8uOIbkP+974gvVIoFP/OPLm4sgiCnWXAFUoiiIBQ3kJlBY5BtF6KJfgN4UKaEC03+8OxQsch7IfQfY+f4C8aN0S3d4LfqBO7k19HqichhCgViRghxH6nsPG779h76XUZmzGaThenN+5z+3pLopj08dPffPYUrq/4ignHdl/x7MTVRdQe99UT3SE8u1QJdeYrKvdVCCHEbuQ/dIPY/Pnz3f7c0z8mnGo4mRDlCb/3MOQoEAxYjuHKG+qCOnGbtJl8uL+uZrz9qdrJ/fGCx1dG7r6Su3b4vpNyrKvc9ZLb8L+rrmuIHe5Oaxn/Pff7K/drKQp1JTtEiPKgp+Fk0TmjUWLz5s1z95jczYZVaBAxM2bMkIgRoswIIiW/oQjtw94kP86Q9mAi5M+LlC7zMt2VzYQ7RJbRfIlY1jsIZmkp5NfDntZ1T3GUEnefceSqZDdjm+8pVyfUVcLdOhh1R5ikC5Oro1ycuTotF5xg8eV1zhU/4/50pjnvZsk4Ii93XXFNua++hqL1z3Y5QblDmYu9XoUQw4OoiOHVDLxiARETFrbJbw93m9g/d+5ciRghyojQKNALExqQ/Wk8kH5+wzQY6DYinYu77ZaOtK3Z2mZWWWH1jTXWtr3NMu2dNraxyuqrEhSEUD5MuUCJESScv1gsbu3OGl+7eYd1uhtOY2Odtbe0Oddu41wdjaiu8KovW+BGVA74nhen7NpSMVu7ZbtlEpVW31RjHW0p2751m42ur7aR9VWW8LXKlZSTemVZV13XSFhcgvlZskWEGP5odTIhRElgKPBbZ032++67zy8XTEOyvwjGymB76kp+yBG9CoiY1nTMmrM1Nnr6LJs4ZZptXLva1r680GpS26whSZeDc36uTHmBqU0dUVtt2aQ1ZyqtacohNuXAg6154wZb8dLzro6arSnurqlMqrxFTDzh62hrKm4jpx5qk6bPtB3bt9ryhU9bonWzNVYknIhJ8aPwYXL1VJ4iBuGCw4jB8Q4l7JHB1k4IIfYevYkYf0/O+/0XFDH0xJx66ql+n0SMEMObIGJ4c/xVV13lt3n/CO9oocHIGVL7jkIN02DAl9u5rM9azNKxKmutHmUNBxxp46ceYFvWrrQNSxdYRct6q862WdyJGIYKFcu+rtf9gZd57r8viTuHnfEqa68caXXTDrNxUw+xLevX2rqXn7PqlnVWm25h5kd3HQ3Gc74vQORRT4iYjLuYOlwddVSPtIaph9nYgw6zHds22boXnrD41tVWle20eHiAQP34a2Tn0LJygN8Fdgftz4oVK+z888+3973vff5dSoCwEUIMT/a4J0bDyYQoL4KIue222+zqq6+2s846y17/+tf7FxyG3385GVH5uNrxnSyZWIW9srnVVm9LW3V9k3W2NNuoKrPpYxusOubqCp8l9MQMZRETDHOv8Fw5cv+c0EtU2PJNLbZqe9oq6kdb23ZXR5UpO2RcvdVmO7rqyAlj53z4MiInYtxNOlltKza32fLN7ZZsHG2t27fY6KqUzRjr6iietpj7PSJg3N3X1RACpiuCMgEjhkm8zNH96U9/akcccYRdfPHFNnr0aH9cIkaI4YtEjBCiJIKIufXWW+3aa6+1iy66yN7ylgvdEf3+IUiN7a0dtmT1JstUVdjEiaNt47pN1tnaaQe77caaZJev8qYtbbZ4xTrriCdswqTRtmVjs+1obrUDxzXYuMYab5yXO9TRouWvWmvWXUeTRtqObS22deNmmz6uycaPaigzabc7YSgrvTDf+ta3bObMmXbJJZf43mGQiBFi+NIvEROeCErECFF+IGJ4mn7rbbfZNddcYxdeeKETMRf44RxxZ4zu616YwdrLE9rFIGLSDAXKuLwm41bh7KiMs7WwtyrirL5FVw3GV2llGfo9XDvzT+9Kro7cl3jMKpyuo0o6U77KrCrubk5U5lAvcj+h6LhO6igds1giZknscbezw1Va0tVLpaunuNuRuyzKaxhZgB5gemKWLVtm33Yi5rDDD5eIEaJMKFXESKEIUfZ0menuww/y8YYTE2tzqwKxtOG+csQ/WN3OfOa2q5wlXl8VtzpnQ1W4uqp2rWddpTPOnfWZdP4xvEp1O9Pon9s1nwPgfF2568TdXBLuuqlwhnldZcxqXR2x1oGrLmuoMqOjyvvBf/gsM0dd4ardddRQ5erJ1ZG7fMxVlzW6i6nWKZgKfy1RP3Ffv9y0C8U1nB3lBhbT4FrJGSldbZQQQkSQiBFCdJH1y7vmJIxz7s++fhA8FJ40h9kb5JXJ+4ls2ve8JHBuO57N1Rk+9zcDXn8uefIQi/NCwty7YBKujqgf30Nl1BF1lfVGaVdF5sKWIZScnhZfR65uKqinvDqiLsN5HQq/j71N6AH1l8ou4iX8zoQQIodEjBBlDqYB87PZ4l/u0/3NjTITUZi4H2M4C01n1/YAGZrB2BtcuLrwixvgurb9d5mfO4nWS9en6mg3GJXIFU6t4Lje1RwJIaLQcgohyh1vLeSepvMl93R938+HEb2TL1T4zphhXFiQQYjhSCzuzBNcl3ThZarMtdIVL4QISMQIUe4446AtG7NtqZi1WIWlLGFtnRnb2pqy9hTPQx0ylgcERGQQKgiX9vb23EIMDiZAs88/odb5EcMBdx2HByfbO9LWmk5YR6zS0s5U2drWaTs6eM9Qzp8QQngRo6etQpQnOVsg6w2GjprRVjN1lm2pGmGLNjfbotUbrMWJGY6LgYP2GeGCYGHi88KFC+2BBx6wHTt2dO9XGy6GB07EuGu81RK23aqsasph1j7yQHthW4U9u2KrbdjR6gQNvlybJCEjxLCmmPuaFzE8xdNNUIjyIxZzhoD77ddUVdjY8eNs0sxjbXvVRFu+yaxptBM11RWyFQYYhAo9MIiWhx9+2H784x/bN7/5TfvTn/5ka9as8cfolRFi6OPsEHe917h2qbGu1g6adZTZ2IPs5c0dVtnQZI0NDUaT5f3JZhFiWJM/wqDQiIM4N78wLAEQMxI0QpQL7vfu/vJ+ikx7i+3Y1mwdnVmrrknYuBHVlnQWg3/qqSZhv0FDHea78NnW1ua3m5ub7cknn7SlS5fahg0bfI8MIib4Cf6EGLK4dibDNZzNWLqtxVpbtluru67jiaSNaqiw2qSfFqP2SIhhDveycA/EpVIp74JmCS6OYGEt+hBAIkaIMsP97v0LCZO11lRbY/XJmHW0dNqqNc3WmelqD4ahbTzYDX4eLNFoQ0dHhzU0NPgXkZ588sk2YcIEO//88+3QQw/1PTG8WyM0+IO9XEL0iLt0/QvtnKusqrGGyiobWZW0ZLrD1m3YYdvamAOW8zcsGyUhRDdBj9AmFHL+WPdLy5wL4kU3QSHKA37r/Npb2ztsxbJX7KVnHrKm9pV26Ngqa29rs9bWjq6HnoOrTdjTNiqEj34WG2cp/kqJF/BLO8wnIgaB8swzz9i8efNs69at7ny0en/44di2bdu8e/nll23t2rVe7LAfMSPEUMO3Ru5/ezZmG7dsteeefNg617xkh42vtSrr9L0y7pD3OciaJCHEXoR7XHCAaCn0YtzuOTHhRhvdFkIMb3INRMwaayqtKdlm6Y3Lraa92Q4c1WCHTxln9W4/x51H739fE4z3qOupTQrHgE8M9/yw+S5q3Id42Q+hsQz7ovGFHo58ccC+AMeijvhCmGg8uGi4fPBHNzmCBPHyu9/9zm655RZbvHixvfDCC34I2fbt2+2VV17x7qmnnrLf/va39o9//MM2btzY3c0uxFDDmSyWyWasKpu2kVVxi21ZY5XbVtuUynabNXmEjW2o9UYL/vZXmySEGBh6u08GvIiJqp1iAgkhhg8xZzTw1vDaeNZq4qx0lbXKWMbqKpwxwXsdPfveYKDtweU/bWFfMP4DtFccC+0WFHpSk+/wE4iml9/+Bb8hHIT0o2myzX6EB9uEwbHNULD88kBII5+QH3pSiO/VV1+166+/3h555BGbO3eufelLX7Kvf/3r9vjjj/s5MYibz3/+8/ad73zHbr/9drvtttv8nBnyg4ghjp7SEmJQwm+r65qtq4xbdTLjWp6U25212mTMtU/utxn8CSHKikL3s8QVV1zx1XCAYQlLliyx0aNH27Rp0/y+6A1bCDH84PfPr/ylJYvt+QULbObMw+3QmYd6Y5jf/562AT7+IuPALxPYly9fbqtWrfLbFRUVVl1d7eMIbRVDp+6++2576aWXrKmpyR/bvHmzX8GrkCOeMHcEkUE8fD777LPe+Gd73Lhxfj89IPR2rFixwtavX++/V1ZWegfRsoSy8bl69WqfJ3pEbr75Zrv11lu9+Lj//vt9Lwp+yGtVVZUPW6hOyAcChKFjpBvqgjkwp5xyik2cONEPKUOgHHnkkXbcccf5ffg94IAD/HwZ4ifumpoa/1koHSEGK6Hd2bpliz1w/wM2eswYO+qoOVZdVe1+NLnfiBBieBLuqegRRh5MnjzZxo8f7x8CFvrtxxYsWODC5AwDbsLcdGfMmGGnnXaaj0wNhhDDm6wzGmgCbr3tFrvu2mvtgrdc6Nxb3JG0+/0nXStRuA0IjU1fFPIX3cc2jp6Lxx57zP7whz/Yc889578jXk466SR773vfa0cccYQPg6M34ic/+Yk32D/+8Y970fHrX//aD6eisYsKMMQH8TMJ/gMf+IA3/mHdunV25ZVX+naPOObMmeO3//73v3sBQlyEHzVqlJ111ln29re/3aZOnerDsp84AXHEe1v+8pe/+PD19fVedOAQUIixTZs2eXFy9tln+7LQKEO0fQ31gD9EGqKM7w8++KAXJGeeeaYfRkb9zJ8/3z70oQ/ZGWec4cvBd/JJg08YHkIhmELvjxBDBa5/fhcrV6ywb3/r2zZj5ky75JKL3fU90mmYmMUT/GYkzIUYjvCAjt8/901GIpxwwgn+3sx9vJAekUIRosxhwEZusqwzpHMfXSZCcYYCRjOigc/wPbqNwZ9P/j4arvvuu8/+67/+yxYsWGCHHXaYf5BC78hdd93l9z/99NPeL2nhPwyX4hNjvba21urq6rxDSODY19LS0t2rg18gHOKAHhKEBcIG0XLNNdd4kUDPxjHHHGPHH3+89//HP/7RrrrqKt8rEtKnDMSN6OHdLQiNf/u3f7Nf/OIX9qMf/cj+/d//3b7xjW/Yr371Kx/2bW97m91zzz32y1/+0ouUkPcA8dFI01s0cuRI32gTP/WAgCFdeqUoH+KNT0QSq5a99rWvtREjRvh8I544VqjehRgq0C4xgNO1Tl0tkWtXNJtfCBHBDyfr2tZwMiHKkKxTMJgGL770si1Y9IIdNvNQmzHzcOs05nbEc+9l6AEMawxneggY5oQRjnFOLwrwnTYEfziMboZo4T/aS0BPBU9dECrvfOc77Qtf+IJddNFFduyxx/pj9DTQJvFEBhAl9MZg6DPMChFy6qmn2gUXXGDnnXeevfnNb7Y3velNfrgV80fI21ve8hY/3IowL774ol177bVeMOCPnhFWAbvhhhu8GPjc5z5nH/3oR+3cc8+16dOn27Jly2zlypV++8ADD/RlBAQWPTCk8+lPf9qLL/wypIxhaogVyor4Ofjgg33c9NrQwzRz5kxfByEunkBv2bLF98BQZ4gw6ozwjY2Nft+9997rw1MnHKNniPaa3hiO8x0BhNgp9NRKiMEND0RyDz42b9th9z/4iI0ZPcr/7pO1tZaJ5eav6coWYnjC/ZDfeKHhZOzPR22BEGWMN59jWdvRmbGtnUlrr6i3tlilbW5ps1Ubmq2lnVWunK8uQxtoZIJxjVH9ta99zT7xiU949+1vf9uvlPW9733PCwJEC4IGAUBvxmc/+1m74oor7JOf/KR9+ctf9oY+PSRh3gpG/kEHHeR7Enh5I8Jl9uzZXmzQqGHok34w/MM2Bv+UKVO8o9Hjk14cXgyJYHnNa17jBQn+iOP555/3vTAMnT3kkEN8HAgD0pg1a5YdfrgTcc4fDtHCfBOGjZGnAEKK3iOGbSGcGM71xBNP+F4ZBBIPhBiWRp0w9I35O/SYUCZEGWKOnhjiREB997vf9fXymc98xk/Y/+lPf+qHp9HDw/wc8swnIoe6ok4RR6xQRjyUm/qTgBFDFvezjsdjlo7FbZtrezriVdZZ0WDbLWlrtrbY1pZ2cxqn6/e/s00SQpQnutMJUcbk+mDM0s4yqB011ibNPM6210ywF9a32sat252x4A93E0QDjvkrGOcImTC8ipW0fv7zn/telUWLFvkeEHoj/vSnP9nPfvYz/z4TjH2GedGTwjwWPhkexbCo0OuCgU4PD0PLOE56hEPMkA6GOts8ncEhqsgDn4gmtpm0f9NNN/meide//vXewOc4Q7Qw/skDvSP0igA9I+9///u92CEv7EcMIIQQDwgg9od02E95iAPHvBzKTU/MpZdeaj/4wQ98zxDihzwgzhA8OPaFhQYQUwxBY4UxwC/1Rt5///vf+/xSdoa7HXXUUb6niqFppIHAIg5EG356GjcsxNAg9xQ2k41ZrKLGJh82x2zsQbZoQ4ctX7fdOlNpGi0hhPDobidEWcPkd3MGe9JqGuqsYvREa0402tZ0hU2cMtlqqityQqbLcMB4R1BgsNMLQY/AJZdc4nsb6H1hCBYGdZizgcCgS/jhhx/2RjzLBH//+9+3b37zm354FwLnoYce8nEjNOgVwZgnvm9961v2n//5n76XgrkpDNnCwMERPyKDTxywP3wyhIz5J8TP5HeGm2Hckx/yzPLFiAV6RUKc9Mq89a1v7R7CxlwX5rYgyhA95IEeGoQC/ombXhJ6ihA4Cxcu9AIMocEQN46RRhAuiCjygAtCECFDTxFiiLkvlJn5Pyyl/IY3vMH3utBjw5Ax8vy3v/3Nxo4d6xcHQIQh2OiBIR0JGDHkcb+rjPtdVMQyVpFMWP2YydZaM9rWtiesYdwoa2qsyxkt/qcuNSNEuaM7nhDljhMpmAOxOBPLmaORsXQ2ZbEEh3L/vDdnXGC8YygzNAqDHcP/da97nRcuY8aM8YKB1cTorcA/vSn0yCAKmI+Cw5ifNGmS7/GgRwFxQ7yIHoQJfnmBI2KGVcroiaDnBRfywTZGexAz7AsCCxAGDO1CpJAmcYdj9HIQZxAW+ZAXeoIQMcx34YWThKHHA4iH8iEwyAc9ICyJjBBhaBhDz0JvC8PB2If4YXgbc15wCJxovoF5LQxRYx/5/uAHP2j/+q//akcffbT3Ty8Q+UIsUUeEp+4QNeRDAkYMG2iTYrmHDr632P0mKn371HVcCDHs4V7cF7mHGs5jMZ6FEMONLsO+PW07trdZ57aNVhfrtEq3f/mKddbWkbU4bYO3I3J+MeDpiaG3AxGAcY0hzn62McDpmcA/xj8GPkY9k84xvIPRzvCtf/7nf/ZDrhA7zKFBGCGCWOWLXhgm2DNZnp4c5s8wDwdjPYiY8En7FfKHQGEoGX6Z7I/QCsfwh7hAWIShaAGO8Z34CcPcnf/7f/+vveMd7/AT6xFV9O4QlvhIO5SPsrOfsNQBjvQRcOQPEUPZWRGNHhxWPgvig/IhRhiexzwhys4wO0QRdUZPC/7IH70v5IX6ZBUy6h9xFRUwoaxCDDnctct1nnLXc7v7TW3fusGqM602oop3Q222zVtb/YpluWZL17kQw5li7mVxPEWfYNKA4IQQw5+wMpmlU7Zl9TJb/uwj1rhjpR05rtpGVCcsk+rw/iC0C0x2RygABjW9IRjRCAAMagxtDHb8Y+QzaR8jnP0cD+IB457eG3oy6GFg4jq9GBdffLF/JwuT8Rk2hYjAL/Nt6GEJIoZ0+eRYgDSZUM8QNEQCQ704jsiI5h/RFPJL24djUj9DtsgzeWJ9eoa8XX755X5oF8O6WD0N8UbaxE8Y5sYg2hBvDO+iB4h5QixkwCflZ54Mk/2vu+46P2QOcUXegZWXeE/Nu9/9bi9MqAfmD33xi1/0w8sQZEAeyS91hrghfeqZckTb7Oi2EEOJnDbJ9f62bNtiS55+xDrXvGCzxyZtUiO/F+fD/c/1zuBZCDGcCdqET7RKvouHSbC44FkIUR54e9f97JuqK218bcxq2rdYbabNJjTV2oxJo62xrtoddp6cx9A+YDRjxPOd+SX0bIQGhvaE4VLs5zsCgqFQiIawUllobxAMd9xxh++BQAwQD2+fRwxwHKFEvMz3QCQgLoJ4CgIIoz+IGMQNfoiPIVcMWeN4OAbEh3/yH8QMkC9WEuO9LoQnfXpWyFMQKHyGdpI6QIwgJhAdCCdEzxvf+EYvtJgfxJC7888/35eJd8XwDhrmyvDCzWi+KDvfP/WpT9kPf/hDv0oZq7gxjwcBw5whyoVf6pS0EUDRMgkxHGAIGdd4hXPjm+qszlqtpm2TjYh12sHjR9nYhtrcku+8gFdiXYiygXYBF+yH4OLRJ6N6gidE+cFTTV4rF3ef8WzKWcUZ12KkLZbppOVAwnSDwUybgWHOZHOGRiFGMKjZz3eM+NDTwbAq/IU5Ixjs7Kfxuf/++/0Ef1b04jtDpOjlIA7ioucGwUFciIkwjIqGjO0LL7zQL22MSKLtIg+IJ+aV0JNy+umn+6FYEAx+YH5MviiiXIgsenDIV+htIX3EDvNVgqBhP/nlnTEsmczKZbwXhvx+7GMf8wKGiflf+cpXvBhhm8n6//Ef/+HfSYO/0NaSPmG/+tWv+ve/IMxYQACh8773vc/3tlAm0gtlpP5CedindlsMR+KpDoulO337465yi7v2KJlJWUKiXYiyI+gUbIOoi4cboxCiPOkaUObIvSM7fI85YyFqHtNO0F5g8DPHg54Hlgdm+eS7777b92AwZCqsNobxT6PD/A+WAsbP1Vdf7YeF3Xzzzd54p0eB48yPoTeClczww/yXJ5980gsc4mR+CauTsZQxIFQIf8stt/jJ8+EpDduICl6ORU8M+8hvMPZxCCCOMzEf/0A+mAfDAgWICSb0M38Fx3tvyA8T88kDAimEYSEDhppRZnpRmNODwGMyPv4RH4geenooM8suM7+HugmCED8sJX3jjTd6AUXPDvGRD4RVmDuDf1wokxDDGayShH+4QhuV++5+vrkvQoiygHt2IHofD86/sT/cEHlKytNSbtIMnwA8CSGGL/7n737nL720xJ5fuMgLClwm5kRLnB7anL8o9H5gnNNrEuaA3Hnnnd0vZ6T3hOFWLFfM5HMMbwQPRjpDyBAywJv1zzrrLC9gCMeqW6wGxpvw586d65dxRsCceeaZ3UOzaK8YqsVywwxdY0ljenvYz/ArwjLMC4ERVh+LtmMIB+aosAIaPTXMSeE44gZBgZAif0zkp0wIE4a0XXTRRb7nhd6Y0IDSq4JAo8eGtBFqiC+ECOXgHTcIMQQKgoTeIfJFfOSXvBAfPVWIQEQTaZMucTCnh3IjuoiP+TcMM0NEBlEZLZsQQx3aCq7p5m3bnZB/2P+25xw1x7UP9GDSJumhqxDDFe6L/P7RI4zq4GFkeGM/5N/vvIgJOyVihCg/EDH0vyx66WWbv+BFO+ywmTZj5uGWysb9+HM/Bt33zuw0mPlEeLCyFm0FvQ70ZCBKaHCYI3LooYf63hqGgDH0CoMcccHkfcQNxjmigJ4GjHl6QY444gjvh2FVNF70aDC5Hke4YLgjoPCHQU/vTBiiRTzkh2WVWfGLHgz2R3uRaAxp6xg6hsFEvhj2Rpzkk3Igligf2ywwwPtj+AyiKMQHpI2oQAxRdnpdWAQAQRbm+Zx99tn+JZWIGNpXwobwCBrKgD/iQtTw/ZxzzvHCiXqkHOxnmzJj2EnEiOEHPY05I2bD5ma77/6HbNSYcV7EVDoRk3UiBg2T6y3WdS/EcCMqYljdkweNQcRwz8sntmDBAt8NQ0CeovL0kSeovHiNfYUCCSGGBzkBk7UtLR3291vvsTvvudfOP/f1dsrJJ9nW5jY7YFyTjayr6NIwO40G2gYEAO0Dn0yCB3pTWIHrqquu8u+B+fCHP9z9jhYaIfxi5LON4IDQaPEJIT6GXLH6FuIiEPXXH+OduIEeHPJI7wmrjyEu6IUhXzjSjpaJvJIuLr9NjO7nE+GCIy3CUYbocDAg7yH/YR/+mSND2pSZcCGt/pRViKEG76jiJ9rprvdnFi6x/77yVzZr1hF20VvPt1Rbu41qqLEJI+st4Rok/4vQ70KIYQX3Ye57DBlnFAMPQnlAyGiH/Hsv+D3cRPNvqEKI4U8s1mVUV1TauAOm24zjTrMdNRPthXWdlo5XWGXVzuWLo9BeYOyH9gJDH6Ob7+wPhnsA/8FvaIxorELbEz6BT3ok6PXAmA/hoseB8CGOANvsC2IlH8Li6P0IQ8MYxsVwrqioYju874W8hvgKNaLEF/zgyDO9T6RBeOKKlhW/oQzAdjiGf3pqQs9SOA7EnV9eIYYT7tfJH3fNmzWMGGWzjj/dqicebAtXb7PN7a7N4WFAl191xAghuu/IujEKUaY4i6GyImYZJ2ia01W2KVNjnVUVNmHKCEsmspahbejBYMAgR7RgaONCLwaiICyRHIj6jW5D9DNq5Od/D/Cd8NE4IOwnTCE4Tp4QBAxpoweGYWVhjg7gJxoncRXKA/H0VL4ofA95yj8WCGkE8Jfvv6f4hRg2uEub4WRJ5zpTaWtP1tgG1yY1x+ps1ASWWq/yfnLtkX4HQpQ7he/0Qoiygc6YWMasJllhjdUVVuNahUx7xnZsT1vWGcz+6WgfBKMbmLj+ne98x7+kkqFk+Qb6QBPEAT0kLNPMUsisOsY+REKx4F+CQoi9S+49MDGrSiastjJh9c6x3HJbS6elXDvV1XkshBASMUKUNRgE2ay1t3bYlvUbbP0ri6ym41WbUJ+2DWvXOsOhA3si569ImKDOxHomp4chWoONIKxYkYzJ8kwclCARYmChZ5PVxzqyMT8nbe2ShWZbVtm0EUlr2bLJtm3d5lQMHr1nH0YIUb5IxAhRzjjDHVOgqrLCUju22Polz1l962abObbRDhg/2iqS9EyUZtwzVIvJ+0Nh/gb5C3kVQgws9PpmMmmrjGUsnm6zTUsXWmzTcps+wuzQySOtvnbnIh+5pytCiHKmW8ToKaQQ5Qm//Opk1hoq0lYV63QGRNrqKpM2uqHaqiu6hleV0DzQw0EPTJi/MZiHXUXzKoQYYFw7kc1kfS9LQ1Wlb4uS6XarzmZsdG211VdVeKNF9ooQw59ifudexOBxsD8xFULsK7JOo2T927ErM+2WyKYsnnXGQ7bTNRBhlS8ZDbCzlWQruHKG8nON5Oohu1udhO/huNhJtG6CA2oxV5PlTCzTaYlMh1VkO1yblHHtU8qSmdwb/IUQwxs0Sb4uKaRTdmsP9IRDiPIjtA3IGZ6GemL+mWduW3hyg++c0e6MKu/8990b1nIld7W4+uiun+B2GuWqLQjXza51pNrJgwesrh1igRHMFdWOEOVB6FzhM+iSQvokjifGsAcKKR0hRLmw8+lHtut9Kzj27UsX0hksLp3JOmf+M+M2fF34T3a6+nF59s4dZ1+hOMrHhfOXdrrF1U/XcCAcOoZdvh67/ZWv41rJcv3gqCdXN7hsmnraWT/UIy4atpzcTlwdSboIUZYw3Jv2ABsB8u0GXLy1tdWvAsIbppngKoQoP6JPOsJ2vOvdJriwf1+5kM5gcYk4ebLcZ8KVn/k97jPjPtO4eNJSznXGE35fLtzgK8e+d5Q952LOZZ1Ldbl0l2PbVaLzE3P1Sd0WiqccnLvW3TWUTcQs5T6pm0yoI3cNsZ2rp+AKxVEeLhBTb7AQZQkCBQHDe+fQJ7x3DodmibrYc8895/zmVM6aNWvs9ttvt0MOOcROO+20nMqJNChCiOFHePJ566232rXXXmvnnXeenXvuudbR0bHfXq64P9IojZ1Pf6geBN221pSt3LTDkrX1NmrkCNu6tdlaW7bbpJG1NqraGfCZtDfkyw1/s6GuXNlbOrO2akOzWWWtjR490nZs32Zbtmy1CSNqbVx9pVm60y+hmzvf++ackx/coLmmuIxi5Cnjr4/mjqytXN9siao6GzVmhLW1ttv6detsbEOtq6c6q7Q0hbCsf4FTTuSXExgt1dXVtnLlSvv+979vM2fOtIsvvthdT6P9cS3CIcTwhZVC0R2rVq2yv/3tb3biiSfaUUcdZRUVFb4tzG8PYwsWLPB3ahr91atXS8QIUWaE7lp++1deeaXV1tbapEmTvIjh98+xfUlomPZ1OkVBA+nywdyXGIanN7QZix+3dqYW142zpikzra5plLU0b7TNq5aYNa+1upirKy988I8bBGXZD/jbCVVGjcUS1mEV1lkz0homH2yNo8Zbx/attmHlEstuW2u1mVa/YIQ72y7MvrmuwnU0KK6lbnLXA9eU+0FZm5MpHVUjbMSUGdYwbrJ1tjsR88pCy2xebXXZdks6MYx/RAylGDS/jf0AZaU9ot3BmHn++eftnHPOsUsuucTGjBnj/UjECDF8iYqYv//9717EzJkzxyorKwvqES9iQgMpESNE+RFEzNNPP2033nijbdmyxe9nX3D7GoyXwUTO7Azl5lvMDx9rrxxlDdNm2dgp023rqytsw8vzrKJ9i1VZp8Wy1GMIWy5QUgx0V2onTDpjFdaabLD6qTNt/LRDrXnTq7Zp6fOW3PGqVTkDPeavJ8z5fVtD++OaLRV/hWOkx6usJVlntZNn2Njps23Hlo228aV5lty+1tVRp8WZK0MNuQC+FIOwLPuSINqCWDnzzDPtta99rX8xLcdkkwgxfOlNxPD7z7cV1BMjhPCEMaZhCBm///wGY1+xv9IpFm9kU363jU1J/0FnNm5L1m2zVdszVlnfZOmWbTam2uyQiSOsJp62BL0Mfgw/TergKs++ItST/3Bl77CEvbx+m63clrKK2pHW4epoVEXaDp3YaI1JV5/45Vzvw+oZjALG4/JFHaViSVvq6mjZlg6L14+09pbtro467dDxjdZUFfPLCXsF0/WbGGQ/jf0G5xGDhvc40TuMLTLY2gkhxN4lKmKuv/56O+GEE/ruiWFDIkYIIXpmW0fWlm3cbplkzMaNqbctm7dZZ7vZtNH11lQp4wranP29dP0W63RiZtyYBtuyZYe1tXTatFF1NqquostXeePraN1W68gmbfzoOtvR0mZbm1tt8sgaG9tQvft7D4QQokyIipgbbrjBjj/+eIkYIUTf8HvH6WlnDnoZqAmGSmVcnaSc8el0jCXczgrXLKbcNvsq3XZF6JEos7rzNw9HbjhZrteq3dUJJBO5RRE6qSN3rCru+23KGHpiYpbOxqzD1Unc1Umy6/bake66rmK8dJZaYsid21HmNRZQmyREeVBqT4wUihDCg6FAI8GnHI66cE0k265+EC71zjCvwfh0gqXaffIdA9156V51q5xcvMu5/76OMMRrXZ3gKt33aldnDUknYNx3PHh/3n85uri74cacUDGr67qOKpxGwfGduko4f8wtcp75Hwlb3k4IUX4U89t3raUQQogo4fl3+Mw1pfQkZFmDzD9Rp8Mht44UlKuhRelzNRC26JDq2uV79nx9hR05H7nNMsbXEZeMc75GQrX4qsltdH8VQogyhPtHX0jECCFEHjn7MjegJwfbXa5rZ/AT/okcuzw8c9u5egLVUSBaR2z7797l6ij8jXgTQgiRh0SMEELsRjC4w2ewMqNb4TPfbzlRuF7CRsz/E8DV0fsVkjsa/OTqrRyvKSGEKI7dREwx3TdCCFGe7DTVg3EuM70vdtbUTicKkbv7RutHdSWEED3hRYxWJBJCiCjB2M43KHdtJ3M9Dbl/+cdElFA/5VtHfZc+eiWVd10JIUQ+hTpZvIhBwKgHRgghhBBCCDHYKNTZEk+lUoZjbWYJGSGEEEIIIcRAEhUtmUzG65SgWYKL816I4AigYWVCCCGEEEKIgSLasYJGSSQS3Xol4iRehBBCCCGEEIOXPAGjJZaFEEIIIYQQQ4vuif1CCCGEEEIIMRRQT4wQQgghhBBiSCERI4QQQgghhBhSSMQIIYQQQgghhhQSMUIIIYQQQoghhUSMEEIIIYQQYkghESOEEEIIIYQYUkjECCGEEEIIIYYUEjFCCCGEEEKIIYUXMdls1n8RQgghhBBCiMFOPJ1OWyaT8Q4kaIQQQgghhBADRSwW69oyr1HQK/kuHg4IIYQQQgghxGCAjhVc6GzJd/FkMmkVFRUWj+emx4RPIYQQQgghhNjfIF7ojcGhVQq5ePAAYTt8F0IIIYQQQoiBJKpRgtul2yV02+CEEEIIIYQQYjCisWNCCCGEEEKIIcVuIka9MEIIIYQQQojBjHpihBBCCCGEEEMKiRghhBBCCCHEkEIiRgghhBBCCDGkkIgRQgghhBBCDCkkYoQQQgghhBBDCokYIYQQQgghxJBCIkYIIYQQQggxaCn0ChgvYvRuGCGEEEIIIcRgA51SUMSk02nDZTKZrl1CCCGEEEIIMTDEYrGurZ0iJpVK7eJ8T0zUoxBCCCGEEEIMBoKIQa9EXTyRSFg8HpeQEUIIIYQQQgw40eFjaJVCrntiv0SMEEIIIYQQYrBRSKdoOJkQQgghhBBiSKElloUQQgghhBBDCokYIYQQQgghxJBCIkYIIYQQQggxpJCIEUIIIYQQQgwpJGKEEEIIIYQQQwovYqJrMWulMiGEEEIIIcRgRj0xQgghhBBCiEFLtMMlIBEjhBBCCCGEGDRER4YhYIoSMYU8CSGEEEIIIcT+oCfhEkU9MUIIIYQQQohBRRAx9MoUmrMf7+josM7OTu8ymYx6YoQQQgghhBADCpoknU536xQ0S9TttjqZEEIIIYQQQgwG0Cl0tOQTr6ysNFxFRYXF43HvhBBCCCGEEGIgQLgkEgnv0CnV1dX+M+qkWIQQQgghhBBDCokYIYQQQgghxJBCIkYIIYQQQggxaCi0Glk+EjFCCCGEEEKIQYNEjBBCCCGEEGJIUczKyRIxQgghhBBCiCGFRIwQQggh+gVPS4MTQoj9iUSMEEIIIYQQYkjRq4jR05WeiT59KsZFKXQcFyV/f/7xgSKar2Jdf9mTsH2xN/K3Nxjo9Pc1g6We9xehnOVS3v6yJ/UTrqfg9gf7O729RTH5zj8eDbM/XJRCx/NdlELHi3H9pT/xlOp/bxLSjOahLxel0PHeXJRCx/tyUQodz3dRot/zjwWiYfNdqexJ2HwKxZG/L5peIf/FUEy44Cffb0i3mDj2J/FCGQ0UszLAvqS3yopWZnR7XxPSoW5KcVEKHcdFie4PaWYymf1Wzp6I5qtYVyrhfPYnbLHsSf6KIZShN/oqYwgf4irkSqVQHMGF43sL4sqv570Z/2AjlBd6O6/DAcpayrkM/oPbk/oJ11Nw+4P9nd6eEOoYisl39Hg4N/vTRSl0PN9FKXS8GBfqp1Ty4ymGUv3vTUiz1HMapdDx3lyUQsf7clEKHc934VoPZQxEt6NEw+a7UtmTsFHy8x5gH8cg+Im6/lBMuOAn329It5g49gaUGZu3L2ILFixwfnMVtXr1arv99tttxowZduqpp/oI9leGCxFOXE+ECsVfX373JqG+SiGat57C9+Un7OupnMWkkU9PcUXD9yfevQHp7kk5+hN2f5avL0K+yBMu1Ee0XgqVG3ra31NcfPYUZk+Iprcv4h9MUM5AKPNwJVrWYsoZ9R/ob/30lfa+qPuhdD5D/ZDfvuoqSn/LWEoag4X8uhmu9PecwlA5r4XKWGhfOOd7UidRCqW5L9lX+e6NaJmi4fZlWdPptCWTSVu5cqXdcMMNduKJJ9qcOXOsoqLC4vHdB4/F5s+f7/KTy9CaNWvstttus6qqKps8ebKlUqnujAc/e6MS9ybkayDyVOpJLOYCyC9HtM4LbeezN+shml6UntLuif7kiTT2ZlkKES3Hvk6rJ3qr431V7z3FM1B1MBwpdP6GI4O9nOSt1N9NuRLqqT/nM1rHg/26z79m9+T6KLaspdZPf/LUW7zhYXSx+Y0S8tKfsANF/jnujVLPzd6kP3VbStny2d/nsr91G8rY0dFhixcvtpNOOsmOPvpoL2IgP67YvHnzXJicOl2/fr09+OCDtm3bNq94UEQhQMhQT5kJQ50IV0qGA4TND1doX4BjuJBHlBvfS6G3+Pui1HDRvPVWpijBH/txQaEWQzSNnsqZn14h8sP2lPe9RSgn11Eh1V2IaDn6k99o+P6ULz/NYuE3Q1nDj7M3onmMUmq6xFMov8XG05+yEoYHIolEouhzGqU/aQ4E5DO0g/ntUaH8R4/3hxBnf+IhbH/TD2FLPad91cdghd8oUNZiGciyknZ/0gztEdduKeH3pKyEjea3mPAhvRCu1DShs7PTX7elnFPoT1n3Rn5D2J6I5iuAf/bzOy3lnPYUVzGEsCG/xYYLhPClhoPw0L2vc1qofNCfNPckv/zeAqXcF/fkd4rrzz0YCFtqeoH+1A/nsa2tzU444QQ7/PDDvZ1UKB4/nKxr29rb223Tpk3eY/QmHM1MT+CHyiVhwhcTJhC98bPdV4HxG9LYvn27VVZWWk1NjT+xfYUNkA6ONEuBNEknNIDFlpN8kR5hQx0VC345N62trdbY2FhS2Gh+S7l4S81vqIfgj7AQ6qiY8PghvR07dvhzWltb678XmzZpsk05Q5i+wgJh+lNHQJq4Us8pcD65mdbX1/uwxYYPaZLXUq5BKFRHxRLOBWGJo6/wIR1uLi0tLf36neIXSs1vf85piJ9wIe84touFaxf/XLvRdAvlHX8hbj6j5zTQW9ohfuoX+E46vYUJ4C9cR2yHuPoKy3HyF9qj6upq70I8vRHyht/wPdBbWMJwnHCcm/Bb6y1MIIQN57SU3yn+qRce6hGGc9pTWPyGtIIjTfIczkugpzggxBHqKPr7Dp89QTj8hHMRHIR4e4ojek4pZ7j/h/C9gT/Kit9wHfUVLsRNXkMdhbB9EeIO1z15LxbSxX9zc7P/XldXV1QZA9H8Rs9NMQQjm7Ch/MWkjR/CEq7YvIZyYgTS9mI3RNPtjeAnek5LCUf9hN8pYYshmib055xu3rzZ32Noj3rKK34hHA9phnPaU7hC4Dd6DZYSlnwQlt9ZqN++COXknPI7bWho8GkWmy7hKSvpEU+xaeKfcP05p/iNXvfFQljqho6VUaNGeUf4QmXdRcQQsD8nEwgbMl0q/Q1L5WA0oNBoeEshlJWTUgohHJQalnCELzUchAt35MiRXXuKI9RtKRd7YE/yG+qp1LAY9TS6XMDcYEohlLXU6yiE628dQX+ue8rJNcwNphRC3fbnd7on57S/ZeWccv3yO+UGUwp7Ur/9DRuuh/6kyUMVwnKDKYVwXjifpabbnxt/oL91xPnEBRFTCpQTSr12CUd++1NHe3IdYfBSt6W2R+GckmapZeWc9qecEOqo1DQ5nwgZzidDykuhv/Ubzml/66g/4WDLli3dD1VKCb+n+SVMf85pf8vKkBxsJOyj/pxT0is1zT2po/6mCYgYysj1W0odD7Vzyv2Uc8rDz1Ifwg+1c0qnSvTaLRTHLiKGxELFRk8KBeiLUEgaexIqJkyAcEDYUODeCHGTV4wGjCNOaDFhA/jFlXoRkHaoI/JbbDnJV0iz1AuBNMJTshEjRpQclvySV9KN5re3ePAXraPgl/3ROPIJ/ggHxdZR8BMVphgN7C+2vCHNUL/FpAv4C+clv476Yk/CUk4apPxz2lsc+CO9ns5pXxAWF85pKWGjbUMx4YKfcE5D71qxaZI/0gTKWuo5JSxhCFsMIf4QttQ08Ut7RP3mC1OO5RONN5om9RslP/3wPcQZ6ohwhdLJh/DhHBK22HBAGPxiHCHCSxExhCM89QP55eyJkLdw3Yf8Fptn/BGO8KX8ZkI9bd261X+Gp/Yh3d7iwE/Ib7iOwv6+IF5+MxAN2xf4I2x/zin+ucdwTvmN8luFnuKIlj2aJg5CuKi/fPBTqI76IvgjHOSn2RvkB38YvOEeUyz5+SXd3sqXT/ScQjH5xQ9pELaUOiJMOKf0JPJQJXpOe8p39Fj0OuotTBT8EQ7HPSacm74g7hCW7VBHfRHyxefGjRu9sRt+p6XkN7QNfC8W/NIOUsZQzmLC44f0OKehjorJK37wy8MGzil2Q6l5Due02DQh5BdbJdgNxaaJP9KEUEf59JQP/G/YsMGfTx42QKF0d+uJIUE8FnsRBSgk4UsNRxjCQrFhQ6G5CMJwslIN3lCx+yO/gVBHnJxi8xngwuUGQ7daKYT8kl5PF1FPEA7HhVsK/a0jwoWnDNEbTLF11d/6DeFgf57TqIgpBdLEkWap5zTaoJSS3z05pzT0CHBuMDRG7Cs27f2dX+hvmsDNhbR5qEJ4tqGveEKa+OvtnBaKL78tC34g6i8/LN9DHRVb1hBHIRHTW3jChePR+g0Uk3a47vEbwvYVLqRLmmyHOiomvRA2KmJ6Ozf5hPwSppRw0N9rkDwTljDFXvehnNxj+J3yG+3tyWch8q/BYtnfdRTKGkQMgq2UdMlriKPU/GKvhHDF5jcQzmmxaYY8ImK4z3Dt9iVM8yk1zcBAnVNEDG0R128p6ZImcXDtFptmIHpOoZQ8B2Faah2Fc4owLSU8aVJW/ONCvfVG8MP5JGyoo2LKGcJGzymUEpbhZNxLe7vHlFZ7vUCiwfWH/oaDUtMNfksNB/0JE6W/YUO4/ua3P+nuSdhS2Rtp7Ekc+6OMUaLp9Tft/R0uSjFx5Pvh+95Iuxii6ZSSZvDbn3wWCkOjW0yjDdwo+qKn+Eg7pB/85PvrKWx/KKV+on5LCZdPtIwDQal1F/Lbnzzv73LuSXrRMpYaz/4uZyCa7v7MQ3/SIkwQT6VCmD0Jtz/ThP6Gy6fUePYkz/uLkL+ByutAptsbe03ECNET++PCH4gf11Blb9TV3jKG9yWhnP3JK2GH0jW1p+djIM5nqWniP4Qp9twUSqO/ZS31eiAdnj72N739yVDI496k3Mq7J+yPdjCaRjEPc/Y2XA/D/ZrIL2Mx5d2TOikUtj/x9RVGImY/MZQMIiGE2FvsyY2wJ4qNc2+2u/uiHGJowfWke/m+Rb+zfcNQvXb7yvNeFTF7UkF7cuEOpYt+KOQ1XOzkdW/kt9Q49la6Q4GBaFT2Rt0ORL73B6Fu9uQJen/rZk/Oy2A/Hz2Vjf19lTuUjc+wXUw4iPopxv/eJJpf0TOl1tNQrtP+XoPFXu+F2N/XfX8IedyTcu4p/bmuomGGQj2X+luLEs7N/ixnMempJ2Y/EU7EUGiAw4WzJxd8lP1R5qFUv1H6+oEWYm+dlz2hP/kuF1Q3exfVp4ii60EIkcPs/wPx7MGG1j6pXQAAAABJRU5ErkJggg==;" vertex="1" parent="1">
                    <mxGeometry x="70" y="40" width="301.25" height="250" as="geometry"/>
                </mxCell>
            </root>
        </mxGraphModel>
    </diagram>
</mxfile>